<svg width="104" height="32" viewBox="0 0 104 32" fill="none" xmlns="http://www.w3.org/2000/svg">
<path d="M99 0H31V32H99C101.761 32 104 29.7614 104 27V5C104 2.23858 101.761 0 99 0Z" fill="#0F1418"/>
<path d="M5 0.5H30.5V31.5H5C2.51472 31.5 0.5 29.4853 0.5 27V5C0.5 2.51472 2.51472 0.5 5 0.5Z" fill="white" stroke="#171C20"/>
<path d="M15.2283 25.2296L25.381 15.0746H17.9987L11.5383 21.5373L15.2283 25.2296Z" fill="#39CEFD"/>
<path d="M6 15.9988L17.9988 4H25.3811L9.6923 19.6912L6 15.9988Z" fill="#39CEFD"/>
<path d="M17.9989 27.9977H25.3812L18.9208 21.5374L15.2285 25.2297L17.9989 27.9977Z" fill="#03569B"/>
<path d="M18.9208 21.5374L15.2285 25.2297L20.7046 23.3327L18.9208 21.5374Z" fill="url(#paint0_linear_18_2)"/>
<path d="M11.5383 21.535L15.2306 17.8427L18.9229 21.535L15.2306 25.2296L11.5383 21.535Z" fill="#16B9FD"/>
<path d="M25.3811 15.0746L18.9207 21.5373L25.3811 28H17.9988L15.2284 25.2296L11.5361 21.5373L17.9988 15.0746H25.3811ZM17.9988 4L6 15.9988L9.6923 19.6912L25.3811 4H17.9988Z" fill="url(#paint1_radial_18_2)"/>
<path d="M43.9926 15.225H49.0326V17.175H43.9926V15.225ZM44.1726 21H41.7426V10.5H49.6776V12.45H44.1726V21ZM51.3377 21V9.87H53.6777V21H51.3377ZM59.4344 21.12C58.7644 21.12 58.1644 20.99 57.6344 20.73C57.1144 20.47 56.7094 20.075 56.4194 19.545C56.1294 19.005 55.9844 18.32 55.9844 17.49V12.93H58.3244V17.145C58.3244 17.815 58.4644 18.31 58.7444 18.63C59.0344 18.94 59.4394 19.095 59.9594 19.095C60.3194 19.095 60.6394 19.02 60.9194 18.87C61.1994 18.71 61.4194 18.47 61.5794 18.15C61.7394 17.82 61.8194 17.41 61.8194 16.92V12.93H64.1594V21H61.9394V18.78L62.3444 19.425C62.0744 19.985 61.6744 20.41 61.1444 20.7C60.6244 20.98 60.0544 21.12 59.4344 21.12ZM69.8072 21.12C68.8572 21.12 68.1172 20.88 67.5872 20.4C67.0572 19.91 66.7922 19.185 66.7922 18.225V11.145H69.1322V18.195C69.1322 18.535 69.2222 18.8 69.4022 18.99C69.5822 19.17 69.8272 19.26 70.1372 19.26C70.5072 19.26 70.8222 19.16 71.0822 18.96L71.7122 20.61C71.4722 20.78 71.1822 20.91 70.8422 21C70.5122 21.08 70.1672 21.12 69.8072 21.12ZM65.5472 14.91V13.11H71.1422V14.91H65.5472ZM76.33 21.12C75.38 21.12 74.64 20.88 74.11 20.4C73.58 19.91 73.315 19.185 73.315 18.225V11.145H75.655V18.195C75.655 18.535 75.745 18.8 75.925 18.99C76.105 19.17 76.35 19.26 76.66 19.26C77.03 19.26 77.345 19.16 77.605 18.96L78.235 20.61C77.995 20.78 77.705 20.91 77.365 21C77.035 21.08 76.69 21.12 76.33 21.12ZM72.07 14.91V13.11H77.665V14.91H72.07ZM83.4846 21.12C82.5646 21.12 81.7546 20.94 81.0546 20.58C80.3646 20.22 79.8296 19.73 79.4496 19.11C79.0696 18.48 78.8796 17.765 78.8796 16.965C78.8796 16.155 79.0646 15.44 79.4346 14.82C79.8146 14.19 80.3296 13.7 80.9796 13.35C81.6296 12.99 82.3646 12.81 83.1846 12.81C83.9746 12.81 84.6846 12.98 85.3146 13.32C85.9546 13.65 86.4596 14.13 86.8296 14.76C87.1996 15.38 87.3846 16.125 87.3846 16.995C87.3846 17.085 87.3796 17.19 87.3696 17.31C87.3596 17.42 87.3496 17.525 87.3396 17.625H80.7846V16.26H86.1096L85.2096 16.665C85.2096 16.245 85.1246 15.88 84.9546 15.57C84.7846 15.26 84.5496 15.02 84.2496 14.85C83.9496 14.67 83.5996 14.58 83.1996 14.58C82.7996 14.58 82.4446 14.67 82.1346 14.85C81.8346 15.02 81.5996 15.265 81.4296 15.585C81.2596 15.895 81.1746 16.265 81.1746 16.695V17.055C81.1746 17.495 81.2696 17.885 81.4596 18.225C81.6596 18.555 81.9346 18.81 82.2846 18.99C82.6446 19.16 83.0646 19.245 83.5446 19.245C83.9746 19.245 84.3496 19.18 84.6696 19.05C84.9996 18.92 85.2996 18.725 85.5696 18.465L86.8146 19.815C86.4446 20.235 85.9796 20.56 85.4196 20.79C84.8596 21.01 84.2146 21.12 83.4846 21.12ZM89.1224 21V12.93H91.3574V15.21L91.0424 14.55C91.2824 13.98 91.6674 13.55 92.1974 13.26C92.7274 12.96 93.3724 12.81 94.1324 12.81V14.97C94.0324 14.96 93.9424 14.955 93.8624 14.955C93.7824 14.945 93.6974 14.94 93.6074 14.94C92.9674 14.94 92.4474 15.125 92.0474 15.495C91.6574 15.855 91.4624 16.42 91.4624 17.19V21H89.1224Z" fill="white"/>
<path d="M99 0H5C2.23858 0 0 2.23858 0 5V27C0 29.7614 2.23858 32 5 32H99C101.761 32 104 29.7614 104 27V5C104 2.23858 101.761 0 99 0Z" fill="url(#paint2_linear_18_2)"/>
<defs>
<linearGradient id="paint0_linear_18_2" x1="-573.205" y1="-255.447" x2="-573.098" y2="-255.554" gradientUnits="userSpaceOnUse">
<stop stop-color="#1A237E" stop-opacity="0.4"/>
<stop offset="1" stop-color="#1A237E" stop-opacity="0"/>
</linearGradient>
<radialGradient id="paint1_radial_18_2" cx="0" cy="0" r="1" gradientUnits="userSpaceOnUse" gradientTransform="translate(-523.364 -211.869) scale(1.13977 1.13977)">
<stop stop-color="white" stop-opacity="0.1"/>
<stop offset="1" stop-color="white" stop-opacity="0"/>
</radialGradient>
<linearGradient id="paint2_linear_18_2" x1="0" y1="0" x2="0" y2="32" gradientUnits="userSpaceOnUse">
<stop stop-color="#BBBBBB" stop-opacity="0.1"/>
<stop offset="1" stop-opacity="0.1"/>
</linearGradient>
</defs>
</svg>
