<svg width="138" height="32" viewBox="0 0 138 32" fill="none" xmlns="http://www.w3.org/2000/svg">
<path d="M133 0H31V32H133C135.761 32 138 29.7614 138 27V5C138 2.23858 135.761 0 133 0Z" fill="#0F1418"/>
<path d="M5 0.5H30.5V31.5H5C2.51472 31.5 0.5 29.4853 0.5 27V5C0.5 2.51472 2.51472 0.5 5 0.5Z" fill="white" stroke="#151A1E"/>
<path d="M44.729 20.18C43.919 20.18 43.164 20.05 42.464 19.79C41.774 19.52 41.174 19.14 40.664 18.65C40.154 18.16 39.754 17.585 39.464 16.925C39.184 16.265 39.044 15.54 39.044 14.75C39.044 13.96 39.184 13.235 39.464 12.575C39.754 11.915 40.154 11.34 40.664 10.85C41.184 10.36 41.789 9.985 42.479 9.725C43.169 9.455 43.924 9.32 44.744 9.32C45.654 9.32 46.474 9.48 47.204 9.8C47.944 10.11 48.564 10.57 49.064 11.18L47.504 12.62C47.144 12.21 46.744 11.905 46.304 11.705C45.864 11.495 45.384 11.39 44.864 11.39C44.374 11.39 43.924 11.47 43.514 11.63C43.104 11.79 42.749 12.02 42.449 12.32C42.149 12.62 41.914 12.975 41.744 13.385C41.584 13.795 41.504 14.25 41.504 14.75C41.504 15.25 41.584 15.705 41.744 16.115C41.914 16.525 42.149 16.88 42.449 17.18C42.749 17.48 43.104 17.71 43.514 17.87C43.924 18.03 44.374 18.11 44.864 18.11C45.384 18.11 45.864 18.01 46.304 17.81C46.744 17.6 47.144 17.285 47.504 16.865L49.064 18.305C48.564 18.915 47.944 19.38 47.204 19.7C46.474 20.02 45.649 20.18 44.729 20.18ZM54.2817 20.12C53.4217 20.12 52.6567 19.94 51.9867 19.58C51.3267 19.22 50.8017 18.73 50.4117 18.11C50.0317 17.48 49.8417 16.765 49.8417 15.965C49.8417 15.155 50.0317 14.44 50.4117 13.82C50.8017 13.19 51.3267 12.7 51.9867 12.35C52.6567 11.99 53.4217 11.81 54.2817 11.81C55.1317 11.81 55.8917 11.99 56.5617 12.35C57.2317 12.7 57.7567 13.185 58.1367 13.805C58.5167 14.425 58.7067 15.145 58.7067 15.965C58.7067 16.765 58.5167 17.48 58.1367 18.11C57.7567 18.73 57.2317 19.22 56.5617 19.58C55.8917 19.94 55.1317 20.12 54.2817 20.12ZM54.2817 18.2C54.6717 18.2 55.0217 18.11 55.3317 17.93C55.6417 17.75 55.8867 17.495 56.0667 17.165C56.2467 16.825 56.3367 16.425 56.3367 15.965C56.3367 15.495 56.2467 15.095 56.0667 14.765C55.8867 14.435 55.6417 14.18 55.3317 14C55.0217 13.82 54.6717 13.73 54.2817 13.73C53.8917 13.73 53.5417 13.82 53.2317 14C52.9217 14.18 52.6717 14.435 52.4817 14.765C52.3017 15.095 52.2117 15.495 52.2117 15.965C52.2117 16.425 52.3017 16.825 52.4817 17.165C52.6717 17.495 52.9217 17.75 53.2317 17.93C53.5417 18.11 53.8917 18.2 54.2817 18.2ZM63.9158 20.12C63.1558 20.12 62.4708 19.95 61.8608 19.61C61.2508 19.26 60.7658 18.775 60.4058 18.155C60.0558 17.535 59.8808 16.805 59.8808 15.965C59.8808 15.115 60.0558 14.38 60.4058 13.76C60.7658 13.14 61.2508 12.66 61.8608 12.32C62.4708 11.98 63.1558 11.81 63.9158 11.81C64.5958 11.81 65.1908 11.96 65.7008 12.26C66.2108 12.56 66.6058 13.015 66.8858 13.625C67.1658 14.235 67.3058 15.015 67.3058 15.965C67.3058 16.905 67.1708 17.685 66.9008 18.305C66.6308 18.915 66.2408 19.37 65.7308 19.67C65.2308 19.97 64.6258 20.12 63.9158 20.12ZM64.3208 18.2C64.7008 18.2 65.0458 18.11 65.3558 17.93C65.6658 17.75 65.9108 17.495 66.0908 17.165C66.2808 16.825 66.3758 16.425 66.3758 15.965C66.3758 15.495 66.2808 15.095 66.0908 14.765C65.9108 14.435 65.6658 14.18 65.3558 14C65.0458 13.82 64.7008 13.73 64.3208 13.73C63.9308 13.73 63.5808 13.82 63.2708 14C62.9608 14.18 62.7108 14.435 62.5208 14.765C62.3408 15.095 62.2508 15.495 62.2508 15.965C62.2508 16.425 62.3408 16.825 62.5208 17.165C62.7108 17.495 62.9608 17.75 63.2708 17.93C63.5808 18.11 63.9308 18.2 64.3208 18.2ZM66.4358 20V18.35L66.4808 15.95L66.3308 13.565V8.87H68.6708V20H66.4358ZM75.0215 20.12C74.1015 20.12 73.2915 19.94 72.5915 19.58C71.9015 19.22 71.3665 18.73 70.9865 18.11C70.6065 17.48 70.4165 16.765 70.4165 15.965C70.4165 15.155 70.6015 14.44 70.9715 13.82C71.3515 13.19 71.8665 12.7 72.5165 12.35C73.1665 11.99 73.9015 11.81 74.7215 11.81C75.5115 11.81 76.2215 11.98 76.8515 12.32C77.4915 12.65 77.9965 13.13 78.3665 13.76C78.7365 14.38 78.9215 15.125 78.9215 15.995C78.9215 16.085 78.9165 16.19 78.9065 16.31C78.8965 16.42 78.8865 16.525 78.8765 16.625H72.3215V15.26H77.6465L76.7465 15.665C76.7465 15.245 76.6615 14.88 76.4915 14.57C76.3215 14.26 76.0865 14.02 75.7865 13.85C75.4865 13.67 75.1365 13.58 74.7365 13.58C74.3365 13.58 73.9815 13.67 73.6715 13.85C73.3715 14.02 73.1365 14.265 72.9665 14.585C72.7965 14.895 72.7115 15.265 72.7115 15.695V16.055C72.7115 16.495 72.8065 16.885 72.9965 17.225C73.1965 17.555 73.4715 17.81 73.8215 17.99C74.1815 18.16 74.6015 18.245 75.0815 18.245C75.5115 18.245 75.8865 18.18 76.2065 18.05C76.5365 17.92 76.8365 17.725 77.1065 17.465L78.3515 18.815C77.9815 19.235 77.5165 19.56 76.9565 19.79C76.3965 20.01 75.7515 20.12 75.0215 20.12ZM80.9444 20V11.75C80.9444 10.84 81.2144 10.115 81.7544 9.575C82.2944 9.025 83.0644 8.75 84.0644 8.75C84.4044 8.75 84.7294 8.785 85.0394 8.855C85.3594 8.925 85.6294 9.035 85.8494 9.185L85.2344 10.88C85.1044 10.79 84.9594 10.72 84.7994 10.67C84.6394 10.62 84.4694 10.595 84.2894 10.595C83.9494 10.595 83.6844 10.695 83.4944 10.895C83.3144 11.085 83.2244 11.375 83.2244 11.765V12.515L83.2844 13.52V20H80.9444ZM79.6994 13.91V12.11H85.2944V13.91H79.6994ZM90.3777 20.12C89.5177 20.12 88.7527 19.94 88.0827 19.58C87.4227 19.22 86.8977 18.73 86.5077 18.11C86.1277 17.48 85.9377 16.765 85.9377 15.965C85.9377 15.155 86.1277 14.44 86.5077 13.82C86.8977 13.19 87.4227 12.7 88.0827 12.35C88.7527 11.99 89.5177 11.81 90.3777 11.81C91.2277 11.81 91.9877 11.99 92.6577 12.35C93.3277 12.7 93.8527 13.185 94.2327 13.805C94.6127 14.425 94.8027 15.145 94.8027 15.965C94.8027 16.765 94.6127 17.48 94.2327 18.11C93.8527 18.73 93.3277 19.22 92.6577 19.58C91.9877 19.94 91.2277 20.12 90.3777 20.12ZM90.3777 18.2C90.7677 18.2 91.1177 18.11 91.4277 17.93C91.7377 17.75 91.9827 17.495 92.1627 17.165C92.3427 16.825 92.4327 16.425 92.4327 15.965C92.4327 15.495 92.3427 15.095 92.1627 14.765C91.9827 14.435 91.7377 14.18 91.4277 14C91.1177 13.82 90.7677 13.73 90.3777 13.73C89.9877 13.73 89.6377 13.82 89.3277 14C89.0177 14.18 88.7677 14.435 88.5777 14.765C88.3977 15.095 88.3077 15.495 88.3077 15.965C88.3077 16.425 88.3977 16.825 88.5777 17.165C88.7677 17.495 89.0177 17.75 89.3277 17.93C89.6377 18.11 89.9877 18.2 90.3777 18.2ZM96.5468 20V11.93H98.7818V14.21L98.4668 13.55C98.7068 12.98 99.0918 12.55 99.6218 12.26C100.152 11.96 100.797 11.81 101.557 11.81V13.97C101.457 13.96 101.367 13.955 101.287 13.955C101.207 13.945 101.122 13.94 101.032 13.94C100.392 13.94 99.8718 14.125 99.4718 14.495C99.0818 14.855 98.8868 15.42 98.8868 16.19V20H96.5468ZM106.97 20.12C106.1 20.12 105.325 19.945 104.645 19.595C103.965 19.235 103.43 18.74 103.04 18.11C102.66 17.48 102.47 16.765 102.47 15.965C102.47 15.155 102.66 14.44 103.04 13.82C103.43 13.19 103.965 12.7 104.645 12.35C105.325 11.99 106.1 11.81 106.97 11.81C107.82 11.81 108.56 11.99 109.19 12.35C109.82 12.7 110.285 13.205 110.585 13.865L108.77 14.84C108.56 14.46 108.295 14.18 107.975 14C107.665 13.82 107.325 13.73 106.955 13.73C106.555 13.73 106.195 13.82 105.875 14C105.555 14.18 105.3 14.435 105.11 14.765C104.93 15.095 104.84 15.495 104.84 15.965C104.84 16.435 104.93 16.835 105.11 17.165C105.3 17.495 105.555 17.75 105.875 17.93C106.195 18.11 106.555 18.2 106.955 18.2C107.325 18.2 107.665 18.115 107.975 17.945C108.295 17.765 108.56 17.48 108.77 17.09L110.585 18.08C110.285 18.73 109.82 19.235 109.19 19.595C108.56 19.945 107.82 20.12 106.97 20.12ZM116.014 20.12C115.094 20.12 114.284 19.94 113.584 19.58C112.894 19.22 112.359 18.73 111.979 18.11C111.599 17.48 111.409 16.765 111.409 15.965C111.409 15.155 111.594 14.44 111.964 13.82C112.344 13.19 112.859 12.7 113.509 12.35C114.159 11.99 114.894 11.81 115.714 11.81C116.504 11.81 117.214 11.98 117.844 12.32C118.484 12.65 118.989 13.13 119.359 13.76C119.729 14.38 119.914 15.125 119.914 15.995C119.914 16.085 119.909 16.19 119.899 16.31C119.889 16.42 119.879 16.525 119.869 16.625H113.314V15.26H118.639L117.739 15.665C117.739 15.245 117.654 14.88 117.484 14.57C117.314 14.26 117.079 14.02 116.779 13.85C116.479 13.67 116.129 13.58 115.729 13.58C115.329 13.58 114.974 13.67 114.664 13.85C114.364 14.02 114.129 14.265 113.959 14.585C113.789 14.895 113.704 15.265 113.704 15.695V16.055C113.704 16.495 113.799 16.885 113.989 17.225C114.189 17.555 114.464 17.81 114.814 17.99C115.174 18.16 115.594 18.245 116.074 18.245C116.504 18.245 116.879 18.18 117.199 18.05C117.529 17.92 117.829 17.725 118.099 17.465L119.344 18.815C118.974 19.235 118.509 19.56 117.949 19.79C117.389 20.01 116.744 20.12 116.014 20.12ZM124.367 20.12C123.677 20.12 123.012 20.04 122.372 19.88C121.742 19.71 121.242 19.5 120.872 19.25L121.652 17.57C122.022 17.8 122.457 17.99 122.957 18.14C123.467 18.28 123.967 18.35 124.457 18.35C124.997 18.35 125.377 18.285 125.597 18.155C125.827 18.025 125.942 17.845 125.942 17.615C125.942 17.425 125.852 17.285 125.672 17.195C125.502 17.095 125.272 17.02 124.982 16.97C124.692 16.92 124.372 16.87 124.022 16.82C123.682 16.77 123.337 16.705 122.987 16.625C122.637 16.535 122.317 16.405 122.027 16.235C121.737 16.065 121.502 15.835 121.322 15.545C121.152 15.255 121.067 14.88 121.067 14.42C121.067 13.91 121.212 13.46 121.502 13.07C121.802 12.68 122.232 12.375 122.792 12.155C123.352 11.925 124.022 11.81 124.802 11.81C125.352 11.81 125.912 11.87 126.482 11.99C127.052 12.11 127.527 12.285 127.907 12.515L127.127 14.18C126.737 13.95 126.342 13.795 125.942 13.715C125.552 13.625 125.172 13.58 124.802 13.58C124.282 13.58 123.902 13.65 123.662 13.79C123.422 13.93 123.302 14.11 123.302 14.33C123.302 14.53 123.387 14.68 123.557 14.78C123.737 14.88 123.972 14.96 124.262 15.02C124.552 15.08 124.867 15.135 125.207 15.185C125.557 15.225 125.907 15.29 126.257 15.38C126.607 15.47 126.922 15.6 127.202 15.77C127.492 15.93 127.727 16.155 127.907 16.445C128.087 16.725 128.177 17.095 128.177 17.555C128.177 18.055 128.027 18.5 127.727 18.89C127.427 19.27 126.992 19.57 126.422 19.79C125.862 20.01 125.177 20.12 124.367 20.12Z" fill="white"/>
<path d="M133 0H5C2.23858 0 0 2.23858 0 5V27C0 29.7614 2.23857 32 5 32H133C135.761 32 138 29.7614 138 27V5C138 2.23858 135.761 0 133 0Z" fill="url(#paint0_linear_227_21)"/>
<path d="M28 23.5V16C28 15.6022 27.842 15.2206 27.5607 14.9393C27.2794 14.658 26.8978 14.5 26.5 14.5H23.5C23.1022 14.5 22.7206 14.658 22.4393 14.9393C22.158 15.2206 22 15.6022 22 16V23.5C22 23.8978 22.158 24.2794 22.4393 24.5607C22.7206 24.842 23.1022 25 23.5 25H26.5C26.8978 25 27.2794 24.842 27.5607 24.5607C27.842 24.2794 28 23.8978 28 23.5Z" fill="#F44336"/>
<path d="M17.5 25C17.8978 25 18.2794 24.842 18.5607 24.5607C18.842 24.2794 19 23.8978 19 23.5V8.5C19 8.10218 18.842 7.72064 18.5607 7.43934C18.2794 7.15804 17.8978 7 17.5 7H14.5C13.673 7 13 7.672 13 8.5V23.5C13 24.328 13.673 25 14.5 25H17.5Z" fill="#2196F3"/>
<path d="M4 23.5C4 24.328 4.673 25 5.5 25H8.5C8.89782 25 9.27936 24.842 9.56066 24.5607C9.84196 24.2794 10 23.8978 10 23.5V13C10 12.6022 9.84196 12.2206 9.56066 11.9393C9.27936 11.658 8.89782 11.5 8.5 11.5H5.5C4.673 11.5 4 12.172 4 13V23.5Z" fill="#FFC107"/>
<defs>
<linearGradient id="paint0_linear_227_21" x1="0" y1="0" x2="0" y2="32" gradientUnits="userSpaceOnUse">
<stop stop-color="#BBBBBB" stop-opacity="0.1"/>
<stop offset="1" stop-opacity="0.1"/>
</linearGradient>
</defs>
</svg>
