<svg width="138" height="32" viewBox="0 0 138 32" fill="none" xmlns="http://www.w3.org/2000/svg">
<path d="M133 0H31V32H133C135.761 32 138 29.7614 138 27V5C138 2.23858 135.761 0 133 0Z" fill="#0F1418"/>
<path d="M5 0.5H30.5V31.5H5C2.51472 31.5 0.5 29.4853 0.5 27V5C0.5 2.51472 2.51472 0.5 5 0.5Z" fill="white" stroke="#1C2125"/>
<g clip-path="url(#clip0_18_76)">
<path d="M14.007 3.99997C13.22 4.03097 12.492 4.36997 11.785 4.68497C11.1837 4.96944 10.5603 5.20455 9.92095 5.38797C9.28595 5.56397 8.62095 5.74197 8.10695 6.17597C7.88495 6.35597 7.75095 6.61497 7.57795 6.83797C7.26895 7.32397 7.12995 7.90497 7.12095 8.47597C7.15695 9.08597 7.33695 9.67597 7.49695 10.262C7.86495 11.524 8.30395 12.765 8.69395 14.021C9.05995 15.182 9.39695 16.365 9.98795 17.437C10.185 17.831 10.338 18.245 10.523 18.643C10.55 18.71 10.575 18.801 10.665 18.792C10.801 18.78 10.908 18.677 11.033 18.628C11.861 18.214 12.773 17.986 13.688 17.879C14.396 17.805 15.118 17.801 15.819 17.933C16.539 18.096 17.236 18.359 17.911 18.657C18.271 18.829 18.63 19.005 18.999 19.155C19.047 19.195 19.134 19.213 19.159 19.139C19.378 18.812 19.628 18.504 19.826 18.163C20.321 17.102 20.348 15.884 20.864 14.832C21.222 14.111 21.7559 13.495 22.1299 12.784C22.3049 12.518 22.561 12.317 22.718 12.037C23.155 11.368 23.4979 10.639 23.768 9.88697C23.8699 9.59397 23.94 9.27497 23.858 8.96797C23.798 8.66897 23.656 8.39797 23.54 8.11997C23.4797 7.88769 23.386 7.66537 23.2619 7.45997C22.8549 6.78397 22.1919 6.31097 21.519 5.92397C20.474 5.33397 19.323 4.95497 18.168 4.64397C16.9426 4.31868 15.69 4.10645 14.426 4.00997C14.2862 4.00076 14.146 3.99743 14.006 3.99997H14.007ZM13.118 4.60597C12.857 4.82897 12.755 5.17497 12.65 5.48897C12.482 6.05697 12.387 6.65197 12.443 7.24497C12.507 8.30697 12.64 9.36497 12.773 10.42C12.953 11.772 13.16 13.12 13.45 14.454C13.476 14.619 13.514 14.801 13.5 14.964C13.385 14.789 13.318 14.581 13.242 14.384C12.992 13.619 12.81 12.835 12.638 12.05C12.3303 10.6292 12.1423 9.18515 12.076 7.73297C12.051 6.88997 12.072 6.00697 12.446 5.23197C12.564 5.00597 12.705 4.77197 12.926 4.63497C12.9927 4.59882 13.0682 4.58186 13.144 4.58597L13.118 4.60597ZM9.51595 5.76997C9.64395 5.76997 9.65495 5.92897 9.68395 6.02197C9.94995 6.81997 10.106 7.64997 10.363 8.44997C10.537 9.09897 10.601 9.77297 10.671 10.441C10.768 11.48 10.779 12.526 10.917 13.561C10.943 13.76 10.999 13.954 11.036 14.151C11.046 14.218 10.977 14.2 10.953 14.165C10.805 14.004 10.77 13.774 10.707 13.573C10.547 12.928 10.465 12.268 10.373 11.611C10.199 10.295 10.086 8.97097 9.84395 7.66597C9.68595 7.05397 9.48795 6.45097 9.38395 5.82797C9.38995 5.77697 9.47695 5.77997 9.51595 5.76997ZM7.58895 7.60697C7.81795 7.66297 7.95395 7.87497 8.10095 8.04097C8.50095 8.57597 8.64095 9.24497 8.79595 9.88397C9.07895 11.149 9.24195 12.437 9.52095 13.704C9.65195 14.37 9.81395 15.03 10.028 15.675C10.042 15.726 10.063 15.808 10.066 15.845C9.83295 15.415 9.67295 14.949 9.50095 14.492C8.90295 12.794 8.67795 10.996 8.20095 9.26397C8.06795 8.78597 7.89295 8.31397 7.60495 7.90597C7.55795 7.81797 7.52495 7.70197 7.56795 7.60897C7.57395 7.60497 7.58195 7.60597 7.58795 7.60697H7.58895ZM20.235 20.803C20.099 20.81 19.925 20.913 19.959 21.07C20.053 21.288 20.293 21.378 20.485 21.486C20.926 21.702 21.423 21.776 21.843 22.032C21.935 22.092 21.992 22.229 21.907 22.319C21.727 22.585 21.437 22.759 21.184 22.953C20.812 23.219 20.407 23.463 20.127 23.832C20.061 23.939 20.086 24.099 20.209 24.152C20.318 24.231 20.452 24.17 20.547 24.101C21.065 23.807 21.542 23.447 22.025 23.099C22.345 22.86 22.669 22.622 22.951 22.339C23.0359 22.204 22.9209 22.065 22.833 21.968C22.5599 21.683 22.213 21.481 21.868 21.298C21.4107 21.0581 20.9188 20.8911 20.41 20.803C20.3517 20.7989 20.2932 20.7989 20.235 20.803ZM8.95995 20.83C8.43295 20.964 7.96295 21.25 7.48595 21.503C7.06095 21.746 6.63195 21.999 6.28095 22.344C6.16331 22.4786 6.10175 22.6533 6.10895 22.832C6.17395 22.94 6.30895 22.972 6.40995 23.038C7.26195 23.48 8.14495 23.86 9.03995 24.206C9.17195 24.248 9.30495 24.319 9.44595 24.313C9.60395 24.293 9.75495 24.109 9.65895 23.957C9.51295 23.714 9.23895 23.596 9.00895 23.451C8.46195 23.148 7.85495 22.939 7.37295 22.533C7.32695 22.442 7.46695 22.405 7.51495 22.353C8.06395 21.958 8.74395 21.76 9.22795 21.276C9.31695 21.186 9.39195 21.017 9.27595 20.918C9.18995 20.845 9.06995 20.831 8.95995 20.83ZM17.075 21.623C16.645 21.65 16.24 22.054 16.301 22.499C16.333 22.758 16.39 23.024 16.529 23.248C16.649 23.428 16.859 23.534 17.075 23.535C17.348 23.566 17.665 23.476 17.801 23.217C17.938 22.98 18.013 22.703 18.006 22.43C17.968 21.97 17.54 21.585 17.076 21.623H17.075ZM12.585 21.633C12.121 21.661 11.778 22.138 11.815 22.586C11.826 23.03 12.13 23.488 12.58 23.58C12.932 23.64 13.29 23.39 13.383 23.05C13.508 22.7 13.515 22.289 13.339 21.955C13.182 21.705 12.861 21.628 12.585 21.633ZM12.697 22.286C12.938 22.35 12.991 22.756 12.742 22.844C12.601 22.878 12.503 22.724 12.508 22.6C12.5 22.473 12.558 22.313 12.697 22.286ZM17.134 22.429C17.231 22.429 17.36 22.5 17.324 22.616C17.311 22.787 17.109 22.949 16.947 22.842C16.815 22.772 16.775 22.546 16.927 22.474C16.9909 22.4414 17.0622 22.4259 17.134 22.429ZM13.616 25.406C13.063 25.457 12.572 25.741 12.074 25.965C11.77 26.121 11.412 26.277 11.069 26.152C10.692 26.032 10.362 25.802 10.01 25.632C9.93495 25.619 9.94895 25.709 9.96295 25.754C10.044 26.284 10.092 26.856 10.417 27.304C10.755 27.741 11.319 27.922 11.85 27.971C12.647 28.043 13.492 27.853 14.121 27.342C14.43 27.08 14.692 26.711 14.706 26.293C14.7 25.969 14.462 25.697 14.182 25.559C14.0109 25.457 13.8151 25.4041 13.616 25.406ZM16.196 25.414C15.8 25.466 15.381 25.676 15.224 26.064C15.095 26.422 15.258 26.812 15.496 27.084C15.922 27.593 16.566 27.877 17.214 27.968C17.791 28.046 18.4 27.982 18.928 27.728C19.366 27.503 19.695 27.073 19.778 26.586C19.842 26.295 19.859 25.996 19.902 25.702C19.836 25.624 19.754 25.74 19.684 25.754C19.347 25.896 19.037 26.121 18.674 26.189C18.311 26.213 17.987 26.017 17.659 25.896C17.229 25.718 16.808 25.493 16.344 25.418C16.2951 25.4137 16.246 25.4123 16.197 25.414H16.196ZM13.315 20.323C13.245 20.323 13.172 20.337 13.099 20.353C12.9437 20.3912 12.7919 20.442 12.645 20.505C12.495 20.566 12.353 20.632 12.238 20.685C12.1662 20.7177 12.0935 20.7484 12.02 20.777C11.9572 20.7868 11.8929 20.7748 11.838 20.743C11.776 20.706 11.718 20.642 11.697 20.488L11.427 20.526C11.458 20.744 11.567 20.896 11.697 20.976C11.827 21.055 11.965 21.066 12.075 21.043C12.16 21.025 12.235 20.985 12.351 20.932C12.467 20.879 12.606 20.814 12.748 20.756C12.891 20.698 13.036 20.646 13.158 20.618C13.2399 20.5943 13.3265 20.5912 13.41 20.609C13.55 20.669 13.6 20.739 13.625 20.788C13.65 20.838 13.655 20.855 13.655 20.855L13.918 20.795C13.918 20.795 13.92 20.771 13.868 20.667C13.7912 20.5265 13.6672 20.4178 13.518 20.36C13.4534 20.333 13.3838 20.3204 13.314 20.323H13.315ZM16.059 24.26C16.0394 24.2605 16.0201 24.2652 16.0025 24.2738C15.9849 24.2824 15.9693 24.2948 15.957 24.31C15.957 24.31 15.835 24.458 15.671 24.605C15.506 24.753 15.291 24.885 15.178 24.888C15.066 24.891 14.864 24.77 14.708 24.628C14.553 24.488 14.441 24.344 14.441 24.344C14.4305 24.3286 14.417 24.3156 14.4012 24.3057C14.3855 24.2957 14.3679 24.2891 14.3496 24.2863C14.3312 24.2834 14.3124 24.2843 14.2945 24.289C14.2765 24.2937 14.2596 24.302 14.245 24.3134C14.2303 24.3249 14.2182 24.3392 14.2093 24.3555C14.2003 24.3718 14.1949 24.3898 14.1932 24.4083C14.1915 24.4268 14.1936 24.4455 14.1994 24.4631C14.2052 24.4808 14.2146 24.4971 14.227 24.511C14.227 24.511 14.351 24.671 14.526 24.83C14.701 24.99 14.923 25.167 15.186 25.16C15.445 25.152 15.67 24.97 15.852 24.808C16.034 24.645 16.167 24.483 16.167 24.483C16.1837 24.4629 16.1943 24.4384 16.1974 24.4124C16.2006 24.3865 16.1963 24.3602 16.1849 24.3366C16.1735 24.3131 16.1555 24.2934 16.1332 24.2798C16.1109 24.2662 16.0851 24.2593 16.059 24.26ZM14.007 4.00097C13.22 4.03097 12.492 4.36897 11.785 4.68497C11.1837 4.96944 10.5603 5.20455 9.92095 5.38797C9.28595 5.56397 8.62095 5.74197 8.10695 6.17597C7.88495 6.35597 7.75095 6.61597 7.57795 6.83897C7.26895 7.32397 7.12995 7.90497 7.12095 8.47597C7.15695 9.08597 7.33695 9.67597 7.49695 10.262C7.86495 11.525 8.30395 12.765 8.69395 14.021C9.05995 15.182 9.39695 16.365 9.98795 17.438C10.185 17.831 10.338 18.245 10.523 18.643C10.55 18.71 10.575 18.801 10.665 18.793C10.801 18.78 10.908 18.677 11.033 18.628C11.861 18.214 12.773 17.987 13.688 17.879C14.396 17.805 15.118 17.801 15.819 17.934C16.539 18.097 17.236 18.359 17.911 18.657C18.271 18.829 18.63 19.005 18.999 19.155C19.047 19.195 19.134 19.213 19.159 19.139C19.378 18.812 19.628 18.504 19.826 18.164C20.321 17.102 20.348 15.884 20.864 14.832C21.222 14.111 21.7559 13.496 22.1299 12.785C22.3049 12.519 22.561 12.317 22.718 12.038C23.155 11.368 23.4979 10.638 23.768 9.88697C23.8699 9.59397 23.94 9.27497 23.858 8.96797C23.798 8.66997 23.656 8.39797 23.54 8.11997C23.4796 7.88803 23.386 7.66606 23.2619 7.46097C22.8549 6.78497 22.1919 6.31097 21.519 5.92497C20.474 5.33397 19.323 4.95497 18.168 4.64397C16.9426 4.31868 15.69 4.10645 14.426 4.00997C14.2862 4.00076 14.146 3.99743 14.006 3.99997L14.007 4.00097ZM13.118 4.60697C12.857 4.82897 12.755 5.17497 12.65 5.48997C12.482 6.05697 12.387 6.65297 12.443 7.24497C12.507 8.30697 12.64 9.36497 12.773 10.42C12.953 11.772 13.16 13.121 13.45 14.454C13.476 14.619 13.514 14.801 13.5 14.964C13.385 14.789 13.318 14.581 13.242 14.384C12.992 13.619 12.81 12.835 12.638 12.05C12.3304 10.6295 12.1424 9.18581 12.076 7.73397C12.051 6.88997 12.072 6.00697 12.446 5.23197C12.564 5.00697 12.705 4.77197 12.926 4.63497C12.9927 4.59882 13.0682 4.58186 13.144 4.58597L13.118 4.60597V4.60697ZM9.51595 5.76997C9.64395 5.76997 9.65495 5.92997 9.68395 6.02197C9.94995 6.81997 10.106 7.64997 10.363 8.45097C10.537 9.09897 10.601 9.77297 10.671 10.441C10.768 11.481 10.779 12.527 10.917 13.561C10.943 13.76 10.999 13.955 11.036 14.151C11.046 14.219 10.977 14.201 10.953 14.165C10.805 14.005 10.77 13.775 10.707 13.573C10.547 12.928 10.465 12.269 10.373 11.611C10.199 10.296 10.086 8.97097 9.84395 7.66597C9.68595 7.05397 9.48795 6.45097 9.38395 5.82797C9.38995 5.77697 9.47695 5.77997 9.51595 5.76997ZM7.58895 7.60797C7.81795 7.66297 7.95395 7.87497 8.10095 8.04097C8.50095 8.57597 8.64095 9.24497 8.79595 9.88397C9.07895 11.149 9.24195 12.438 9.52095 13.704C9.65195 14.37 9.81395 15.031 10.028 15.675C10.042 15.726 10.063 15.808 10.066 15.845C9.83295 15.415 9.67295 14.949 9.50095 14.493C8.90295 12.793 8.67795 10.996 8.20095 9.26297C8.06795 8.78597 7.89295 8.31297 7.60495 7.90597C7.55795 7.81897 7.52495 7.70197 7.56795 7.60997C7.57395 7.60597 7.58195 7.60697 7.58795 7.60797H7.58895ZM20.235 20.803C20.099 20.81 19.925 20.913 19.959 21.071C20.053 21.288 20.293 21.378 20.485 21.487C20.926 21.702 21.423 21.776 21.843 22.032C21.935 22.092 21.992 22.229 21.907 22.319C21.727 22.586 21.437 22.759 21.184 22.953C20.812 23.219 20.407 23.463 20.127 23.832C20.061 23.939 20.086 24.099 20.209 24.152C20.318 24.231 20.452 24.171 20.547 24.102C21.065 23.807 21.542 23.447 22.025 23.1C22.345 22.86 22.669 22.622 22.951 22.339C23.0359 22.204 22.9209 22.065 22.833 21.969C22.5599 21.683 22.213 21.481 21.868 21.297C21.4106 21.0578 20.9186 20.8914 20.41 20.804C20.3517 20.7996 20.2932 20.7992 20.235 20.803ZM8.95895 20.832C8.43195 20.965 7.96195 21.252 7.48495 21.504C7.05995 21.747 6.63095 22.001 6.27995 22.346C6.16255 22.4804 6.10101 22.6546 6.10795 22.833C6.17295 22.942 6.30795 22.973 6.40895 23.039C7.26095 23.481 8.14395 23.862 9.03895 24.207C9.17095 24.249 9.30395 24.32 9.44495 24.315C9.60295 24.295 9.75395 24.11 9.65795 23.958C9.51195 23.715 9.23795 23.597 9.00795 23.452C8.46095 23.149 7.85395 22.94 7.37195 22.534C7.32595 22.444 7.46595 22.406 7.51395 22.354C8.06295 21.96 8.74295 21.762 9.22695 21.277C9.31595 21.187 9.39095 21.019 9.27495 20.92C9.18895 20.846 9.06895 20.832 8.95895 20.832ZM17.074 21.624C16.644 21.652 16.239 22.056 16.3 22.5C16.332 22.76 16.389 23.026 16.528 23.25C16.648 23.429 16.858 23.535 17.074 23.537C17.347 23.567 17.664 23.477 17.8 23.218C17.937 22.982 18.012 22.704 18.005 22.431C17.967 21.971 17.539 21.587 17.075 21.624H17.074ZM12.584 21.634C12.12 21.662 11.777 22.139 11.814 22.587C11.825 23.031 12.129 23.489 12.579 23.582C12.931 23.641 13.289 23.392 13.382 23.052C13.507 22.702 13.514 22.29 13.338 21.956C13.181 21.707 12.86 21.629 12.584 21.634ZM12.696 22.288C12.937 22.351 12.99 22.758 12.741 22.845C12.6 22.879 12.502 22.725 12.507 22.601C12.499 22.474 12.557 22.314 12.696 22.288ZM17.133 22.43C17.23 22.43 17.359 22.502 17.323 22.617C17.31 22.789 17.108 22.95 16.946 22.844C16.814 22.773 16.774 22.547 16.926 22.475C16.9899 22.4424 17.0612 22.4269 17.133 22.43ZM13.615 25.407C13.062 25.459 12.571 25.743 12.073 25.967C11.769 26.122 11.411 26.278 11.068 26.153C10.691 26.034 10.361 25.803 10.009 25.633C9.93395 25.621 9.94795 25.711 9.96195 25.755C10.043 26.285 10.091 26.857 10.416 27.305C10.754 27.743 11.318 27.924 11.849 27.972C12.646 28.044 13.491 27.854 14.12 27.343C14.429 27.081 14.691 26.713 14.705 26.294C14.699 25.97 14.461 25.698 14.181 25.56C14.0099 25.458 13.8141 25.4051 13.615 25.407ZM16.195 25.415C15.799 25.467 15.38 25.677 15.223 26.065C15.094 26.424 15.257 26.813 15.495 27.086C15.921 27.594 16.565 27.878 17.213 27.969C17.79 28.047 18.399 27.984 18.927 27.729C19.365 27.504 19.694 27.074 19.777 26.587C19.841 26.297 19.858 25.997 19.901 25.703C19.835 25.626 19.753 25.742 19.683 25.755C19.346 25.898 19.036 26.122 18.673 26.191C18.31 26.215 17.986 26.019 17.658 25.897C17.228 25.719 16.807 25.495 16.343 25.42C16.2941 25.4157 16.245 25.4143 16.196 25.416L16.195 25.415Z" fill="#222222"/>
</g>
<path d="M51.5926 20.18C50.7826 20.18 50.0276 20.05 49.3276 19.79C48.6376 19.52 48.0376 19.14 47.5276 18.65C47.0176 18.16 46.6176 17.585 46.3276 16.925C46.0476 16.265 45.9076 15.54 45.9076 14.75C45.9076 13.96 46.0476 13.235 46.3276 12.575C46.6176 11.915 47.0176 11.34 47.5276 10.85C48.0476 10.36 48.6526 9.985 49.3426 9.725C50.0326 9.455 50.7876 9.32 51.6076 9.32C52.5176 9.32 53.3376 9.48 54.0676 9.8C54.8076 10.11 55.4276 10.57 55.9276 11.18L54.3676 12.62C54.0076 12.21 53.6076 11.905 53.1676 11.705C52.7276 11.495 52.2476 11.39 51.7276 11.39C51.2376 11.39 50.7876 11.47 50.3776 11.63C49.9676 11.79 49.6126 12.02 49.3126 12.32C49.0126 12.62 48.7776 12.975 48.6076 13.385C48.4476 13.795 48.3676 14.25 48.3676 14.75C48.3676 15.25 48.4476 15.705 48.6076 16.115C48.7776 16.525 49.0126 16.88 49.3126 17.18C49.6126 17.48 49.9676 17.71 50.3776 17.87C50.7876 18.03 51.2376 18.11 51.7276 18.11C52.2476 18.11 52.7276 18.01 53.1676 17.81C53.6076 17.6 54.0076 17.285 54.3676 16.865L55.9276 18.305C55.4276 18.915 54.8076 19.38 54.0676 19.7C53.3376 20.02 52.5126 20.18 51.5926 20.18ZM61.1453 20.12C60.2853 20.12 59.5203 19.94 58.8503 19.58C58.1903 19.22 57.6653 18.73 57.2753 18.11C56.8953 17.48 56.7053 16.765 56.7053 15.965C56.7053 15.155 56.8953 14.44 57.2753 13.82C57.6653 13.19 58.1903 12.7 58.8503 12.35C59.5203 11.99 60.2853 11.81 61.1453 11.81C61.9953 11.81 62.7553 11.99 63.4253 12.35C64.0953 12.7 64.6203 13.185 65.0003 13.805C65.3803 14.425 65.5703 15.145 65.5703 15.965C65.5703 16.765 65.3803 17.48 65.0003 18.11C64.6203 18.73 64.0953 19.22 63.4253 19.58C62.7553 19.94 61.9953 20.12 61.1453 20.12ZM61.1453 18.2C61.5353 18.2 61.8853 18.11 62.1953 17.93C62.5053 17.75 62.7503 17.495 62.9303 17.165C63.1103 16.825 63.2003 16.425 63.2003 15.965C63.2003 15.495 63.1103 15.095 62.9303 14.765C62.7503 14.435 62.5053 14.18 62.1953 14C61.8853 13.82 61.5353 13.73 61.1453 13.73C60.7553 13.73 60.4053 13.82 60.0953 14C59.7853 14.18 59.5353 14.435 59.3453 14.765C59.1653 15.095 59.0753 15.495 59.0753 15.965C59.0753 16.425 59.1653 16.825 59.3453 17.165C59.5353 17.495 59.7853 17.75 60.0953 17.93C60.4053 18.11 60.7553 18.2 61.1453 18.2ZM70.7794 20.12C70.0194 20.12 69.3344 19.95 68.7244 19.61C68.1144 19.26 67.6294 18.775 67.2694 18.155C66.9194 17.535 66.7444 16.805 66.7444 15.965C66.7444 15.115 66.9194 14.38 67.2694 13.76C67.6294 13.14 68.1144 12.66 68.7244 12.32C69.3344 11.98 70.0194 11.81 70.7794 11.81C71.4594 11.81 72.0544 11.96 72.5644 12.26C73.0744 12.56 73.4694 13.015 73.7494 13.625C74.0294 14.235 74.1694 15.015 74.1694 15.965C74.1694 16.905 74.0344 17.685 73.7644 18.305C73.4944 18.915 73.1044 19.37 72.5944 19.67C72.0944 19.97 71.4894 20.12 70.7794 20.12ZM71.1844 18.2C71.5644 18.2 71.9094 18.11 72.2194 17.93C72.5294 17.75 72.7744 17.495 72.9544 17.165C73.1444 16.825 73.2394 16.425 73.2394 15.965C73.2394 15.495 73.1444 15.095 72.9544 14.765C72.7744 14.435 72.5294 14.18 72.2194 14C71.9094 13.82 71.5644 13.73 71.1844 13.73C70.7944 13.73 70.4444 13.82 70.1344 14C69.8244 14.18 69.5744 14.435 69.3844 14.765C69.2044 15.095 69.1144 15.495 69.1144 15.965C69.1144 16.425 69.2044 16.825 69.3844 17.165C69.5744 17.495 69.8244 17.75 70.1344 17.93C70.4444 18.11 70.7944 18.2 71.1844 18.2ZM73.2994 20V18.35L73.3444 15.95L73.1944 13.565V8.87H75.5344V20H73.2994ZM81.8851 20.12C80.9651 20.12 80.1551 19.94 79.4551 19.58C78.7651 19.22 78.2301 18.73 77.8501 18.11C77.4701 17.48 77.2801 16.765 77.2801 15.965C77.2801 15.155 77.4651 14.44 77.8351 13.82C78.2151 13.19 78.7301 12.7 79.3801 12.35C80.0301 11.99 80.7651 11.81 81.5851 11.81C82.3751 11.81 83.0851 11.98 83.7151 12.32C84.3551 12.65 84.8601 13.13 85.2301 13.76C85.6001 14.38 85.7851 15.125 85.7851 15.995C85.7851 16.085 85.7801 16.19 85.7701 16.31C85.7601 16.42 85.7501 16.525 85.7401 16.625H79.1851V15.26H84.5101L83.6101 15.665C83.6101 15.245 83.5251 14.88 83.3551 14.57C83.1851 14.26 82.9501 14.02 82.6501 13.85C82.3501 13.67 82.0001 13.58 81.6001 13.58C81.2001 13.58 80.8451 13.67 80.5351 13.85C80.2351 14.02 80.0001 14.265 79.8301 14.585C79.6601 14.895 79.5751 15.265 79.5751 15.695V16.055C79.5751 16.495 79.6701 16.885 79.8601 17.225C80.0601 17.555 80.3351 17.81 80.6851 17.99C81.0451 18.16 81.4651 18.245 81.9451 18.245C82.3751 18.245 82.7501 18.18 83.0701 18.05C83.4001 17.92 83.7001 17.725 83.9701 17.465L85.2151 18.815C84.8451 19.235 84.3801 19.56 83.8201 19.79C83.2601 20.01 82.6151 20.12 81.8851 20.12ZM92.713 20.18C91.903 20.18 91.148 20.05 90.448 19.79C89.758 19.52 89.158 19.14 88.648 18.65C88.138 18.16 87.738 17.585 87.448 16.925C87.168 16.265 87.028 15.54 87.028 14.75C87.028 13.96 87.168 13.235 87.448 12.575C87.738 11.915 88.138 11.34 88.648 10.85C89.168 10.36 89.773 9.985 90.463 9.725C91.153 9.455 91.908 9.32 92.728 9.32C93.638 9.32 94.458 9.48 95.188 9.8C95.928 10.11 96.548 10.57 97.048 11.18L95.488 12.62C95.128 12.21 94.728 11.905 94.288 11.705C93.848 11.495 93.368 11.39 92.848 11.39C92.358 11.39 91.908 11.47 91.498 11.63C91.088 11.79 90.733 12.02 90.433 12.32C90.133 12.62 89.898 12.975 89.728 13.385C89.568 13.795 89.488 14.25 89.488 14.75C89.488 15.25 89.568 15.705 89.728 16.115C89.898 16.525 90.133 16.88 90.433 17.18C90.733 17.48 91.088 17.71 91.498 17.87C91.908 18.03 92.358 18.11 92.848 18.11C93.368 18.11 93.848 18.01 94.288 17.81C94.728 17.6 95.128 17.285 95.488 16.865L97.048 18.305C96.548 18.915 95.928 19.38 95.188 19.7C94.458 20.02 93.633 20.18 92.713 20.18ZM103.609 11.81C104.249 11.81 104.819 11.94 105.319 12.2C105.829 12.45 106.229 12.84 106.519 13.37C106.809 13.89 106.954 14.56 106.954 15.38V20H104.614V15.74C104.614 15.09 104.469 14.61 104.179 14.3C103.899 13.99 103.499 13.835 102.979 13.835C102.609 13.835 102.274 13.915 101.974 14.075C101.684 14.225 101.454 14.46 101.284 14.78C101.124 15.1 101.044 15.51 101.044 16.01V20H98.704V8.87H101.044V14.165L100.519 13.49C100.809 12.95 101.224 12.535 101.764 12.245C102.304 11.955 102.919 11.81 103.609 11.81ZM113.319 20.12C112.399 20.12 111.589 19.94 110.889 19.58C110.199 19.22 109.664 18.73 109.284 18.11C108.904 17.48 108.714 16.765 108.714 15.965C108.714 15.155 108.899 14.44 109.269 13.82C109.649 13.19 110.164 12.7 110.814 12.35C111.464 11.99 112.199 11.81 113.019 11.81C113.809 11.81 114.519 11.98 115.149 12.32C115.789 12.65 116.294 13.13 116.664 13.76C117.034 14.38 117.219 15.125 117.219 15.995C117.219 16.085 117.214 16.19 117.204 16.31C117.194 16.42 117.184 16.525 117.174 16.625H110.619V15.26H115.944L115.044 15.665C115.044 15.245 114.959 14.88 114.789 14.57C114.619 14.26 114.384 14.02 114.084 13.85C113.784 13.67 113.434 13.58 113.034 13.58C112.634 13.58 112.279 13.67 111.969 13.85C111.669 14.02 111.434 14.265 111.264 14.585C111.094 14.895 111.009 15.265 111.009 15.695V16.055C111.009 16.495 111.104 16.885 111.294 17.225C111.494 17.555 111.769 17.81 112.119 17.99C112.479 18.16 112.899 18.245 113.379 18.245C113.809 18.245 114.184 18.18 114.504 18.05C114.834 17.92 115.134 17.725 115.404 17.465L116.649 18.815C116.279 19.235 115.814 19.56 115.254 19.79C114.694 20.01 114.049 20.12 113.319 20.12ZM119.242 20V11.75C119.242 10.84 119.512 10.115 120.052 9.575C120.592 9.025 121.362 8.75 122.362 8.75C122.702 8.75 123.027 8.785 123.337 8.855C123.657 8.925 123.927 9.035 124.147 9.185L123.532 10.88C123.402 10.79 123.257 10.72 123.097 10.67C122.937 10.62 122.767 10.595 122.587 10.595C122.247 10.595 121.982 10.695 121.792 10.895C121.612 11.085 121.522 11.375 121.522 11.765V12.515L121.582 13.52V20H119.242ZM117.997 13.91V12.11H123.592V13.91H117.997Z" fill="white"/>
<path d="M133 0H5C2.23858 0 0 2.23858 0 5V27C0 29.7614 2.23857 32 5 32H133C135.761 32 138 29.7614 138 27V5C138 2.23858 135.761 0 133 0Z" fill="url(#paint0_linear_18_76)"/>
<defs>
<linearGradient id="paint0_linear_18_76" x1="0" y1="0" x2="0" y2="32" gradientUnits="userSpaceOnUse">
<stop stop-color="#BBBBBB" stop-opacity="0.1"/>
<stop offset="1" stop-opacity="0.1"/>
</linearGradient>
<clipPath id="clip0_18_76">
<rect width="24" height="24" fill="white" transform="translate(3 4)"/>
</clipPath>
</defs>
</svg>
