<svg width="144" height="32" viewBox="0 0 144 32" fill="none" xmlns="http://www.w3.org/2000/svg">
<path d="M139 0H31V32H139C141.761 32 144 29.7614 144 27V5C144 2.23858 141.761 0 139 0Z" fill="#0F1418"/>
<path d="M31 0H5C2.23858 0 0 2.23858 0 5V27C0 29.7614 2.23858 32 5 32H31V0Z" fill="#035BDA"/>
<g clip-path="url(#clip0_18_97)">
<path d="M15 4C16.2855 4 24.75 8.887 25.3905 10C26.0347 11.113 26.0347 20.887 25.3905 22C24.7462 23.113 16.2847 28 15 28C13.7145 28 5.24999 23.113 4.60574 22C3.96524 20.887 3.96524 11.113 4.60574 10C5.24999 8.887 13.7152 4 15 4ZM17.2972 10.801C17.263 10.8005 17.2291 10.8068 17.1974 10.8196C17.1656 10.8323 17.1367 10.8512 17.1124 10.8752C17.088 10.8992 17.0687 10.9278 17.0555 10.9594C17.0423 10.9909 17.0355 11.0248 17.0355 11.059V14.9342H12.9652V10.9067H13.6642C13.6979 10.9067 13.7312 10.8999 13.7623 10.8868C13.7933 10.8738 13.8215 10.8547 13.8451 10.8307C13.8688 10.8068 13.8874 10.7783 13.9 10.7471C13.9126 10.7158 13.9189 10.6824 13.9185 10.6487C13.9184 10.605 13.9072 10.5621 13.8861 10.5238C13.865 10.4855 13.8346 10.4532 13.7977 10.4297L12.2235 8.92225C12.1964 8.88813 12.162 8.86057 12.1228 8.84161C12.0835 8.82265 12.0406 8.81279 11.997 8.81275C11.9567 8.8133 11.917 8.82312 11.8811 8.84146C11.8453 8.8598 11.8141 8.88616 11.79 8.9185L10.11 10.4305C10.0618 10.4598 10.0246 10.5042 10.004 10.5568C9.98353 10.6093 9.98087 10.6672 9.99648 10.7214C10.0121 10.7756 10.0451 10.8232 10.0904 10.8569C10.1357 10.8905 10.1908 10.9083 10.2472 10.9075H10.9507L10.9582 20.9425C10.9582 21.0872 11.0677 21.2005 11.2125 21.2005H12.705C12.7389 21.2006 12.7725 21.194 12.8038 21.1811C12.8352 21.1681 12.8637 21.1491 12.8876 21.1252C12.9116 21.1012 12.9306 21.0727 12.9436 21.0413C12.9565 21.01 12.9631 20.9764 12.963 20.9425V16.9382H17.037V21.0903H16.338C16.2816 21.0895 16.2265 21.1073 16.1811 21.1409C16.1358 21.1745 16.1028 21.2221 16.0872 21.2763C16.0716 21.3306 16.0743 21.3884 16.0948 21.441C16.1153 21.4936 16.1525 21.5379 16.2007 21.5672L17.7787 23.0793C17.8215 23.1415 17.9197 23.1887 18.0052 23.1887C18.0907 23.1887 18.1612 23.1415 18.2122 23.0793L19.8922 21.5672C19.9293 21.544 19.9599 21.5117 19.981 21.4734C20.0021 21.4351 20.0132 21.392 20.013 21.3483C20.0124 21.28 19.985 21.2147 19.9368 21.1665C19.8885 21.1182 19.8232 21.0908 19.755 21.0903H19.0515L19.044 11.059C19.0449 11.025 19.039 10.9912 19.0266 10.9595C19.0143 10.9278 18.9957 10.899 18.972 10.8746C18.9483 10.8502 18.92 10.8308 18.8887 10.8175C18.8574 10.8042 18.8237 10.7973 18.7897 10.7972H17.2972V10.801Z" fill="white"/>
</g>
<path d="M47.0662 9.5H49.4962V20H47.0662V9.5ZM42.2962 20H39.8662V9.5H42.2962V20ZM47.2462 15.695H42.1162V13.64H47.2462V15.695ZM56.9454 20V18.425L56.7954 18.08V15.26C56.7954 14.76 56.6404 14.37 56.3304 14.09C56.0304 13.81 55.5654 13.67 54.9354 13.67C54.5054 13.67 54.0804 13.74 53.6604 13.88C53.2504 14.01 52.9004 14.19 52.6104 14.42L51.7704 12.785C52.2104 12.475 52.7404 12.235 53.3604 12.065C53.9804 11.895 54.6104 11.81 55.2504 11.81C56.4804 11.81 57.4354 12.1 58.1154 12.68C58.7954 13.26 59.1354 14.165 59.1354 15.395V20H56.9454ZM54.4854 20.12C53.8554 20.12 53.3154 20.015 52.8654 19.805C52.4154 19.585 52.0704 19.29 51.8304 18.92C51.5904 18.55 51.4704 18.135 51.4704 17.675C51.4704 17.195 51.5854 16.775 51.8154 16.415C52.0554 16.055 52.4304 15.775 52.9404 15.575C53.4504 15.365 54.1154 15.26 54.9354 15.26H57.0804V16.625H55.1904C54.6404 16.625 54.2604 16.715 54.0504 16.895C53.8504 17.075 53.7504 17.3 53.7504 17.57C53.7504 17.87 53.8654 18.11 54.0954 18.29C54.3354 18.46 54.6604 18.545 55.0704 18.545C55.4604 18.545 55.8104 18.455 56.1204 18.275C56.4304 18.085 56.6554 17.81 56.7954 17.45L57.1554 18.53C56.9854 19.05 56.6754 19.445 56.2254 19.715C55.7754 19.985 55.1954 20.12 54.4854 20.12ZM65.3918 20.12C64.5218 20.12 63.7468 19.945 63.0668 19.595C62.3868 19.235 61.8518 18.74 61.4618 18.11C61.0818 17.48 60.8918 16.765 60.8918 15.965C60.8918 15.155 61.0818 14.44 61.4618 13.82C61.8518 13.19 62.3868 12.7 63.0668 12.35C63.7468 11.99 64.5218 11.81 65.3918 11.81C66.2418 11.81 66.9818 11.99 67.6118 12.35C68.2418 12.7 68.7068 13.205 69.0068 13.865L67.1918 14.84C66.9818 14.46 66.7168 14.18 66.3968 14C66.0868 13.82 65.7468 13.73 65.3768 13.73C64.9768 13.73 64.6168 13.82 64.2968 14C63.9768 14.18 63.7218 14.435 63.5318 14.765C63.3518 15.095 63.2618 15.495 63.2618 15.965C63.2618 16.435 63.3518 16.835 63.5318 17.165C63.7218 17.495 63.9768 17.75 64.2968 17.93C64.6168 18.11 64.9768 18.2 65.3768 18.2C65.7468 18.2 66.0868 18.115 66.3968 17.945C66.7168 17.765 66.9818 17.48 67.1918 17.09L69.0068 18.08C68.7068 18.73 68.2418 19.235 67.6118 19.595C66.9818 19.945 66.2418 20.12 65.3918 20.12ZM72.4252 18.35L72.4852 15.5L76.2502 11.93H79.0402L75.4252 15.605L74.2102 16.595L72.4252 18.35ZM70.4902 20V8.87H72.8302V20H70.4902ZM76.5052 20L73.7752 16.61L75.2452 14.795L79.3402 20H76.5052ZM84.2406 20.12C83.3206 20.12 82.5106 19.94 81.8106 19.58C81.1206 19.22 80.5856 18.73 80.2056 18.11C79.8256 17.48 79.6356 16.765 79.6356 15.965C79.6356 15.155 79.8206 14.44 80.1906 13.82C80.5706 13.19 81.0856 12.7 81.7356 12.35C82.3856 11.99 83.1206 11.81 83.9406 11.81C84.7306 11.81 85.4406 11.98 86.0706 12.32C86.7106 12.65 87.2156 13.13 87.5856 13.76C87.9556 14.38 88.1406 15.125 88.1406 15.995C88.1406 16.085 88.1356 16.19 88.1256 16.31C88.1156 16.42 88.1056 16.525 88.0956 16.625H81.5406V15.26H86.8656L85.9656 15.665C85.9656 15.245 85.8806 14.88 85.7106 14.57C85.5406 14.26 85.3056 14.02 85.0056 13.85C84.7056 13.67 84.3556 13.58 83.9556 13.58C83.5556 13.58 83.2006 13.67 82.8906 13.85C82.5906 14.02 82.3556 14.265 82.1856 14.585C82.0156 14.895 81.9306 15.265 81.9306 15.695V16.055C81.9306 16.495 82.0256 16.885 82.2156 17.225C82.4156 17.555 82.6906 17.81 83.0406 17.99C83.4006 18.16 83.8206 18.245 84.3006 18.245C84.7306 18.245 85.1056 18.18 85.4256 18.05C85.7556 17.92 86.0556 17.725 86.3256 17.465L87.5706 18.815C87.2006 19.235 86.7356 19.56 86.1756 19.79C85.6156 20.01 84.9706 20.12 84.2406 20.12ZM89.8785 20V11.93H92.1135V14.21L91.7985 13.55C92.0385 12.98 92.4235 12.55 92.9535 12.26C93.4835 11.96 94.1285 11.81 94.8885 11.81V13.97C94.7885 13.96 94.6985 13.955 94.6185 13.955C94.5385 13.945 94.4535 13.94 94.3635 13.94C93.7235 13.94 93.2035 14.125 92.8035 14.495C92.4135 14.855 92.2185 15.42 92.2185 16.19V20H89.8785ZM96.5956 20V9.5H101.141C102.081 9.5 102.891 9.655 103.571 9.965C104.251 10.265 104.776 10.7 105.146 11.27C105.516 11.84 105.701 12.52 105.701 13.31C105.701 14.09 105.516 14.765 105.146 15.335C104.776 15.895 104.251 16.325 103.571 16.625C102.891 16.925 102.081 17.075 101.141 17.075H97.9456L99.0256 16.01V20H96.5956ZM103.271 20L100.646 16.19H103.241L105.896 20H103.271ZM99.0256 16.28L97.9456 15.14H101.006C101.756 15.14 102.316 14.98 102.686 14.66C103.056 14.33 103.241 13.88 103.241 13.31C103.241 12.73 103.056 12.28 102.686 11.96C102.316 11.64 101.756 11.48 101.006 11.48H97.9456L99.0256 10.325V16.28ZM112.518 20V18.425L112.368 18.08V15.26C112.368 14.76 112.213 14.37 111.903 14.09C111.603 13.81 111.138 13.67 110.508 13.67C110.078 13.67 109.653 13.74 109.233 13.88C108.823 14.01 108.473 14.19 108.183 14.42L107.343 12.785C107.783 12.475 108.313 12.235 108.933 12.065C109.553 11.895 110.183 11.81 110.823 11.81C112.053 11.81 113.008 12.1 113.688 12.68C114.368 13.26 114.708 14.165 114.708 15.395V20H112.518ZM110.058 20.12C109.428 20.12 108.888 20.015 108.438 19.805C107.988 19.585 107.643 19.29 107.403 18.92C107.163 18.55 107.043 18.135 107.043 17.675C107.043 17.195 107.158 16.775 107.388 16.415C107.628 16.055 108.003 15.775 108.513 15.575C109.023 15.365 109.688 15.26 110.508 15.26H112.653V16.625H110.763C110.213 16.625 109.833 16.715 109.623 16.895C109.423 17.075 109.323 17.3 109.323 17.57C109.323 17.87 109.438 18.11 109.668 18.29C109.908 18.46 110.233 18.545 110.643 18.545C111.033 18.545 111.383 18.455 111.693 18.275C112.003 18.085 112.228 17.81 112.368 17.45L112.728 18.53C112.558 19.05 112.248 19.445 111.798 19.715C111.348 19.985 110.768 20.12 110.058 20.12ZM121.91 11.81C122.55 11.81 123.12 11.94 123.62 12.2C124.13 12.45 124.53 12.84 124.82 13.37C125.11 13.89 125.255 14.56 125.255 15.38V20H122.915V15.74C122.915 15.09 122.77 14.61 122.48 14.3C122.2 13.99 121.8 13.835 121.28 13.835C120.91 13.835 120.575 13.915 120.275 14.075C119.985 14.225 119.755 14.46 119.585 14.78C119.425 15.1 119.345 15.51 119.345 16.01V20H117.005V11.93H119.24V14.165L118.82 13.49C119.11 12.95 119.525 12.535 120.065 12.245C120.605 11.955 121.22 11.81 121.91 11.81ZM129.492 18.35L129.552 15.5L133.317 11.93H136.107L132.492 15.605L131.277 16.595L129.492 18.35ZM127.557 20V8.87H129.897V20H127.557ZM133.572 20L130.842 16.61L132.312 14.795L136.407 20H133.572Z" fill="white"/>
<path d="M139 0H5C2.23858 0 0 2.23858 0 5V27C0 29.7614 2.23857 32 5 32H139C141.761 32 144 29.7614 144 27V5C144 2.23858 141.761 0 139 0Z" fill="url(#paint0_linear_18_97)"/>
<defs>
<linearGradient id="paint0_linear_18_97" x1="0" y1="0" x2="0" y2="32" gradientUnits="userSpaceOnUse">
<stop stop-color="#BBBBBB" stop-opacity="0.1"/>
<stop offset="1" stop-opacity="0.1"/>
</linearGradient>
<clipPath id="clip0_18_97">
<rect width="24" height="24" fill="white" transform="translate(3 4)"/>
</clipPath>
</defs>
</svg>
