<svg width="126" height="32" viewBox="0 0 126 32" fill="none" xmlns="http://www.w3.org/2000/svg">
<path d="M121 0H31V32H121C123.761 32 126 29.7614 126 27V5C126 2.23858 123.761 0 121 0Z" fill="#0F1418"/>
<path d="M41.6882 20V9.5H44.1182V18.02H49.3832V20H41.6882ZM54.717 20.12C53.797 20.12 52.987 19.94 52.287 19.58C51.597 19.22 51.062 18.73 50.682 18.11C50.302 17.48 50.112 16.765 50.112 15.965C50.112 15.155 50.297 14.44 50.667 13.82C51.047 13.19 51.562 12.7 52.212 12.35C52.862 11.99 53.597 11.81 54.417 11.81C55.207 11.81 55.917 11.98 56.547 12.32C57.187 12.65 57.692 13.13 58.062 13.76C58.432 14.38 58.617 15.125 58.617 15.995C58.617 16.085 58.612 16.19 58.602 16.31C58.592 16.42 58.582 16.525 58.572 16.625H52.017V15.26H57.342L56.442 15.665C56.442 15.245 56.357 14.88 56.187 14.57C56.017 14.26 55.782 14.02 55.482 13.85C55.182 13.67 54.832 13.58 54.432 13.58C54.032 13.58 53.677 13.67 53.367 13.85C53.067 14.02 52.832 14.265 52.662 14.585C52.492 14.895 52.407 15.265 52.407 15.695V16.055C52.407 16.495 52.502 16.885 52.692 17.225C52.892 17.555 53.167 17.81 53.517 17.99C53.877 18.16 54.297 18.245 54.777 18.245C55.207 18.245 55.582 18.18 55.902 18.05C56.232 17.92 56.532 17.725 56.802 17.465L58.047 18.815C57.677 19.235 57.212 19.56 56.652 19.79C56.092 20.01 55.447 20.12 54.717 20.12ZM64.3599 20.12C63.4399 20.12 62.6299 19.94 61.9299 19.58C61.2399 19.22 60.7049 18.73 60.3249 18.11C59.9449 17.48 59.7549 16.765 59.7549 15.965C59.7549 15.155 59.9399 14.44 60.3099 13.82C60.6899 13.19 61.2049 12.7 61.8549 12.35C62.5049 11.99 63.2399 11.81 64.0599 11.81C64.8499 11.81 65.5599 11.98 66.1899 12.32C66.8299 12.65 67.3349 13.13 67.7049 13.76C68.0749 14.38 68.2599 15.125 68.2599 15.995C68.2599 16.085 68.2549 16.19 68.2449 16.31C68.2349 16.42 68.2249 16.525 68.2149 16.625H61.6599V15.26H66.9849L66.0849 15.665C66.0849 15.245 65.9999 14.88 65.8299 14.57C65.6599 14.26 65.4249 14.02 65.1249 13.85C64.8249 13.67 64.4749 13.58 64.0749 13.58C63.6749 13.58 63.3199 13.67 63.0099 13.85C62.7099 14.02 62.4749 14.265 62.3049 14.585C62.1349 14.895 62.0499 15.265 62.0499 15.695V16.055C62.0499 16.495 62.1449 16.885 62.3349 17.225C62.5349 17.555 62.8099 17.81 63.1599 17.99C63.5199 18.16 63.9399 18.245 64.4199 18.245C64.8499 18.245 65.2249 18.18 65.5449 18.05C65.8749 17.92 66.1749 17.725 66.4449 17.465L67.6899 18.815C67.3199 19.235 66.8549 19.56 66.2949 19.79C65.7349 20.01 65.0899 20.12 64.3599 20.12ZM73.2978 20.12C72.3478 20.12 71.6078 19.88 71.0778 19.4C70.5478 18.91 70.2828 18.185 70.2828 17.225V10.145H72.6228V17.195C72.6228 17.535 72.7128 17.8 72.8928 17.99C73.0728 18.17 73.3178 18.26 73.6278 18.26C73.9978 18.26 74.3128 18.16 74.5728 17.96L75.2028 19.61C74.9628 19.78 74.6728 19.91 74.3328 20C74.0028 20.08 73.6578 20.12 73.2978 20.12ZM69.0378 13.91V12.11H74.6328V13.91H69.0378ZM81.8864 20.18C81.0764 20.18 80.3214 20.05 79.6214 19.79C78.9314 19.52 78.3314 19.14 77.8214 18.65C77.3114 18.16 76.9114 17.585 76.6214 16.925C76.3414 16.265 76.2014 15.54 76.2014 14.75C76.2014 13.96 76.3414 13.235 76.6214 12.575C76.9114 11.915 77.3114 11.34 77.8214 10.85C78.3414 10.36 78.9464 9.985 79.6364 9.725C80.3264 9.455 81.0814 9.32 81.9014 9.32C82.8114 9.32 83.6314 9.48 84.3614 9.8C85.1014 10.11 85.7214 10.57 86.2214 11.18L84.6614 12.62C84.3014 12.21 83.9014 11.905 83.4614 11.705C83.0214 11.495 82.5414 11.39 82.0214 11.39C81.5314 11.39 81.0814 11.47 80.6714 11.63C80.2614 11.79 79.9064 12.02 79.6064 12.32C79.3064 12.62 79.0714 12.975 78.9014 13.385C78.7414 13.795 78.6614 14.25 78.6614 14.75C78.6614 15.25 78.7414 15.705 78.9014 16.115C79.0714 16.525 79.3064 16.88 79.6064 17.18C79.9064 17.48 80.2614 17.71 80.6714 17.87C81.0814 18.03 81.5314 18.11 82.0214 18.11C82.5414 18.11 83.0214 18.01 83.4614 17.81C83.9014 17.6 84.3014 17.285 84.6614 16.865L86.2214 18.305C85.7214 18.915 85.1014 19.38 84.3614 19.7C83.6314 20.02 82.8064 20.18 81.8864 20.18ZM91.439 20.12C90.579 20.12 89.814 19.94 89.144 19.58C88.484 19.22 87.959 18.73 87.569 18.11C87.189 17.48 86.999 16.765 86.999 15.965C86.999 15.155 87.189 14.44 87.569 13.82C87.959 13.19 88.484 12.7 89.144 12.35C89.814 11.99 90.579 11.81 91.439 11.81C92.289 11.81 93.049 11.99 93.719 12.35C94.389 12.7 94.914 13.185 95.294 13.805C95.674 14.425 95.864 15.145 95.864 15.965C95.864 16.765 95.674 17.48 95.294 18.11C94.914 18.73 94.389 19.22 93.719 19.58C93.049 19.94 92.289 20.12 91.439 20.12ZM91.439 18.2C91.829 18.2 92.179 18.11 92.489 17.93C92.799 17.75 93.044 17.495 93.224 17.165C93.404 16.825 93.494 16.425 93.494 15.965C93.494 15.495 93.404 15.095 93.224 14.765C93.044 14.435 92.799 14.18 92.489 14C92.179 13.82 91.829 13.73 91.439 13.73C91.049 13.73 90.699 13.82 90.389 14C90.079 14.18 89.829 14.435 89.639 14.765C89.459 15.095 89.369 15.495 89.369 15.965C89.369 16.425 89.459 16.825 89.639 17.165C89.829 17.495 90.079 17.75 90.389 17.93C90.699 18.11 91.049 18.2 91.439 18.2ZM101.073 20.12C100.313 20.12 99.6281 19.95 99.0181 19.61C98.4081 19.26 97.9231 18.775 97.5631 18.155C97.2131 17.535 97.0381 16.805 97.0381 15.965C97.0381 15.115 97.2131 14.38 97.5631 13.76C97.9231 13.14 98.4081 12.66 99.0181 12.32C99.6281 11.98 100.313 11.81 101.073 11.81C101.753 11.81 102.348 11.96 102.858 12.26C103.368 12.56 103.763 13.015 104.043 13.625C104.323 14.235 104.463 15.015 104.463 15.965C104.463 16.905 104.328 17.685 104.058 18.305C103.788 18.915 103.398 19.37 102.888 19.67C102.388 19.97 101.783 20.12 101.073 20.12ZM101.478 18.2C101.858 18.2 102.203 18.11 102.513 17.93C102.823 17.75 103.068 17.495 103.248 17.165C103.438 16.825 103.533 16.425 103.533 15.965C103.533 15.495 103.438 15.095 103.248 14.765C103.068 14.435 102.823 14.18 102.513 14C102.203 13.82 101.858 13.73 101.478 13.73C101.088 13.73 100.738 13.82 100.428 14C100.118 14.18 99.8681 14.435 99.6781 14.765C99.4981 15.095 99.4081 15.495 99.4081 15.965C99.4081 16.425 99.4981 16.825 99.6781 17.165C99.8681 17.495 100.118 17.75 100.428 17.93C100.738 18.11 101.088 18.2 101.478 18.2ZM103.593 20V18.35L103.638 15.95L103.488 13.565V8.87H105.828V20H103.593ZM112.179 20.12C111.259 20.12 110.449 19.94 109.749 19.58C109.059 19.22 108.524 18.73 108.144 18.11C107.764 17.48 107.574 16.765 107.574 15.965C107.574 15.155 107.759 14.44 108.129 13.82C108.509 13.19 109.024 12.7 109.674 12.35C110.324 11.99 111.059 11.81 111.879 11.81C112.669 11.81 113.379 11.98 114.009 12.32C114.649 12.65 115.154 13.13 115.524 13.76C115.894 14.38 116.079 15.125 116.079 15.995C116.079 16.085 116.074 16.19 116.064 16.31C116.054 16.42 116.044 16.525 116.034 16.625H109.479V15.26H114.804L113.904 15.665C113.904 15.245 113.819 14.88 113.649 14.57C113.479 14.26 113.244 14.02 112.944 13.85C112.644 13.67 112.294 13.58 111.894 13.58C111.494 13.58 111.139 13.67 110.829 13.85C110.529 14.02 110.294 14.265 110.124 14.585C109.954 14.895 109.869 15.265 109.869 15.695V16.055C109.869 16.495 109.964 16.885 110.154 17.225C110.354 17.555 110.629 17.81 110.979 17.99C111.339 18.16 111.759 18.245 112.239 18.245C112.669 18.245 113.044 18.18 113.364 18.05C113.694 17.92 113.994 17.725 114.264 17.465L115.509 18.815C115.139 19.235 114.674 19.56 114.114 19.79C113.554 20.01 112.909 20.12 112.179 20.12Z" fill="white"/>
<path d="M121 0H5C2.23858 0 0 2.23858 0 5V27C0 29.7614 2.23858 32 5 32H121C123.761 32 126 29.7614 126 27V5C126 2.23858 123.761 0 121 0Z" fill="url(#paint0_linear_18_141)"/>
<path d="M31 0H5C2.23858 0 0 2.23858 0 5V27C0 29.7614 2.23858 32 5 32H31V0Z" fill="#EBA340"/>
<g clip-path="url(#clip0_18_141)">
<path d="M20.1017 21.9303L17.4055 24.535C16.9375 25.0038 16.2925 25.1988 15.5815 25.1988C14.8705 25.1988 14.2262 25.0038 13.7575 24.535L9.42547 20.176C8.96047 19.7073 8.72272 19.0233 8.72272 18.3123C8.72272 17.5983 8.96047 16.9533 9.42547 16.4883L13.7455 12.1053C14.2105 11.641 14.8705 11.461 15.5815 11.461C16.2925 11.461 16.9375 11.656 17.4055 12.1248L20.1017 14.7295C20.617 15.2455 21.469 15.2268 22.0037 14.6905C22.5347 14.1558 22.555 13.3045 22.039 12.7885L19.4342 10.1553C18.7595 9.48972 17.9125 9.02558 16.9885 8.81501L19.4537 6.31526C19.9697 5.80001 19.954 4.94801 19.4185 4.41326C18.883 3.87851 18.0317 3.86201 17.5165 4.37426L7.41472 14.476C6.43447 15.46 5.92297 16.8108 5.92297 18.3108C5.92297 19.8078 6.43522 21.2058 7.41472 22.1868L11.7625 26.5458C12.7427 27.526 14.0987 27.9985 15.5987 27.9985C17.095 27.9985 18.4495 27.4863 19.4305 26.5068L22.0397 23.866C22.5557 23.3538 22.5355 22.5033 22.0007 21.9678C21.466 21.4323 20.614 21.4128 20.1025 21.9288L20.1017 21.9303ZM24.8117 17.0118H14.6635C13.9645 17.0118 13.3945 17.6125 13.3945 18.355C13.3945 19.0983 13.9645 19.7028 14.6635 19.7028H24.8117C25.5115 19.7028 26.0815 19.0975 26.0815 18.355C26.0815 17.6133 25.5115 17.0118 24.8117 17.0118Z" fill="white"/>
</g>
<defs>
<linearGradient id="paint0_linear_18_141" x1="0" y1="0" x2="0" y2="32" gradientUnits="userSpaceOnUse">
<stop stop-color="#BBBBBB" stop-opacity="0.1"/>
<stop offset="1" stop-opacity="0.1"/>
</linearGradient>
<clipPath id="clip0_18_141">
<rect width="24" height="24" fill="white" transform="translate(4 4)"/>
</clipPath>
</defs>
</svg>
