<svg width="124" height="32" viewBox="0 0 124 32" fill="none" xmlns="http://www.w3.org/2000/svg">
<path d="M119 0H31V32H119C121.761 32 124 29.7614 124 27V5C124 2.23858 121.761 0 119 0Z" fill="#0F1418"/>
<path d="M31 0H5C2.23858 0 0 2.23858 0 5V27C0 29.7614 2.23858 32 5 32H31V0Z" fill="white"/>
<path d="M11.948 18.408L11.949 18.409L11.948 18.408ZM11.948 22.121V20.874C7.108 20.269 5.456 14.891 5.456 14.891C5.456 14.891 7.62 11.669 11.956 11.33V10.155C7.153 10.547 3 14.642 3 14.642C3 14.642 5.35 21.498 11.948 22.121Z" fill="#77B900"/>
<path d="M7.27499 15.0531C7.27499 15.0531 8.29099 18.8891 11.948 19.5481V18.4081C9.88999 17.7041 9.20999 15.2741 9.20999 15.2741C9.20999 15.2741 10.412 13.8321 11.94 14.0191H11.948V12.7731C12.2122 12.7435 12.4782 12.7315 12.744 12.7371C15.252 12.7371 16.744 14.7051 16.744 14.7051L14.704 16.4331C13.794 14.8931 13.485 14.2161 11.957 14.0291V18.4091C12.328 18.5331 12.717 18.5961 13.115 18.5961C16.091 18.5961 18.865 14.7141 18.865 14.7141C18.865 14.7141 16.294 11.1881 12.372 11.3131H12.368C12.2278 11.3145 12.0878 11.3205 11.948 11.3311V12.7721L11.921 12.7751L11.944 12.7741C9.03099 13.0951 7.27499 15.0531 7.27499 15.0531Z" fill="#77B900"/>
<path d="M27 8H11.948V10.155L12.372 10.128C17.822 9.942 21.382 14.634 21.382 14.634C21.382 14.634 17.302 19.637 13.052 19.637C12.6849 19.636 12.3185 19.6032 11.957 19.539V20.874C12.257 20.909 12.567 20.937 12.867 20.937C16.824 20.937 19.687 18.898 22.46 16.494C22.919 16.868 24.8 17.767 25.19 18.159C22.557 20.385 16.418 22.175 12.937 22.175C12.602 22.175 12.284 22.157 11.966 22.122V24H27V8Z" fill="#77B900"/>
<path d="M39.78 21V10.5H44.325C45.265 10.5 46.075 10.655 46.755 10.965C47.435 11.265 47.96 11.7 48.33 12.27C48.7 12.84 48.885 13.52 48.885 14.31C48.885 15.09 48.7 15.765 48.33 16.335C47.96 16.895 47.435 17.325 46.755 17.625C46.075 17.925 45.265 18.075 44.325 18.075H41.13L42.21 17.01V21H39.78ZM46.455 21L43.83 17.19H46.425L49.08 21H46.455ZM42.21 17.28L41.13 16.14H44.19C44.94 16.14 45.5 15.98 45.87 15.66C46.24 15.33 46.425 14.88 46.425 14.31C46.425 13.73 46.24 13.28 45.87 12.96C45.5 12.64 44.94 12.48 44.19 12.48H41.13L42.21 11.325V17.28ZM53.0188 21V12.48H49.6588V10.5H58.8088V12.48H55.4488V21H53.0188ZM58.6422 21L63.1572 14.775V16.545L58.8372 10.5H61.5972L64.5822 14.715L63.4272 14.73L66.3672 10.5H69.0072L64.7172 16.44V14.7L69.2622 21H66.4572L63.3672 16.545H64.4772L61.4322 21H58.6422ZM78.8632 21.18C78.0132 21.18 77.2132 21.075 76.4632 20.865C75.7132 20.655 75.0932 20.365 74.6032 19.995L75.6232 18.135C76.0532 18.445 76.5332 18.69 77.0632 18.87C77.6032 19.05 78.1882 19.14 78.8182 19.14C79.4882 19.14 80.0032 19.02 80.3632 18.78C80.7332 18.54 80.9182 18.21 80.9182 17.79C80.9182 17.39 80.7482 17.075 80.4082 16.845C80.0682 16.615 79.5432 16.5 78.8332 16.5H77.6332V14.895L80.7532 11.58L81.0532 12.45H75.0232V10.5H82.8832V12.075L79.7782 15.39L78.6382 14.685H79.3282C80.6382 14.685 81.6382 14.975 82.3282 15.555C83.0182 16.135 83.3632 16.88 83.3632 17.79C83.3632 18.38 83.2032 18.935 82.8832 19.455C82.5632 19.965 82.0732 20.38 81.4132 20.7C80.7532 21.02 79.9032 21.18 78.8632 21.18ZM89.8462 21.18C88.9562 21.18 88.1662 20.965 87.4762 20.535C86.7962 20.095 86.2562 19.47 85.8562 18.66C85.4662 17.85 85.2712 16.88 85.2712 15.75C85.2712 14.61 85.4662 13.64 85.8562 12.84C86.2562 12.03 86.7962 11.41 87.4762 10.98C88.1662 10.54 88.9562 10.32 89.8462 10.32C90.7362 10.32 91.5212 10.54 92.2012 10.98C92.8912 11.41 93.4312 12.03 93.8212 12.84C94.2212 13.64 94.4212 14.61 94.4212 15.75C94.4212 16.88 94.2212 17.85 93.8212 18.66C93.4312 19.47 92.8912 20.095 92.2012 20.535C91.5212 20.965 90.7362 21.18 89.8462 21.18ZM89.8462 19.125C90.2562 19.125 90.6212 19.01 90.9412 18.78C91.2612 18.54 91.5112 18.17 91.6912 17.67C91.8712 17.17 91.9612 16.53 91.9612 15.75C91.9612 14.97 91.8712 14.33 91.6912 13.83C91.5112 13.33 91.2612 12.965 90.9412 12.735C90.6212 12.495 90.2562 12.375 89.8462 12.375C89.4362 12.375 89.0712 12.495 88.7512 12.735C88.4412 12.965 88.1912 13.33 88.0012 13.83C87.8212 14.33 87.7312 14.97 87.7312 15.75C87.7312 16.53 87.8212 17.17 88.0012 17.67C88.1912 18.17 88.4412 18.54 88.7512 18.78C89.0712 19.01 89.4362 19.125 89.8462 19.125ZM100.214 21.18C99.6841 21.18 99.1591 21.135 98.6391 21.045C98.1191 20.955 97.6291 20.825 97.1691 20.655C96.7191 20.485 96.3241 20.285 95.9841 20.055L96.9291 18.195C97.3591 18.485 97.8591 18.715 98.4291 18.885C98.9991 19.055 99.5791 19.14 100.169 19.14C100.599 19.14 100.964 19.09 101.264 18.99C101.574 18.88 101.809 18.725 101.969 18.525C102.139 18.315 102.224 18.07 102.224 17.79C102.224 17.51 102.144 17.27 101.984 17.07C101.834 16.86 101.569 16.7 101.189 16.59C100.809 16.47 100.284 16.41 99.6141 16.41H96.7641L97.3191 10.5H103.979V12.45H98.1741L99.4341 11.34L99.0591 15.555L97.8141 14.445H100.049C101.169 14.445 102.069 14.59 102.749 14.88C103.429 15.16 103.919 15.545 104.219 16.035C104.529 16.525 104.684 17.085 104.684 17.715C104.684 18.325 104.524 18.895 104.204 19.425C103.894 19.945 103.409 20.37 102.749 20.7C102.089 21.02 101.244 21.18 100.214 21.18ZM111.212 21.18C110.322 21.18 109.532 20.965 108.842 20.535C108.162 20.095 107.622 19.47 107.222 18.66C106.832 17.85 106.637 16.88 106.637 15.75C106.637 14.61 106.832 13.64 107.222 12.84C107.622 12.03 108.162 11.41 108.842 10.98C109.532 10.54 110.322 10.32 111.212 10.32C112.102 10.32 112.887 10.54 113.567 10.98C114.257 11.41 114.797 12.03 115.187 12.84C115.587 13.64 115.787 14.61 115.787 15.75C115.787 16.88 115.587 17.85 115.187 18.66C114.797 19.47 114.257 20.095 113.567 20.535C112.887 20.965 112.102 21.18 111.212 21.18ZM111.212 19.125C111.622 19.125 111.987 19.01 112.307 18.78C112.627 18.54 112.877 18.17 113.057 17.67C113.237 17.17 113.327 16.53 113.327 15.75C113.327 14.97 113.237 14.33 113.057 13.83C112.877 13.33 112.627 12.965 112.307 12.735C111.987 12.495 111.622 12.375 111.212 12.375C110.802 12.375 110.437 12.495 110.117 12.735C109.807 12.965 109.557 13.33 109.367 13.83C109.187 14.33 109.097 14.97 109.097 15.75C109.097 16.53 109.187 17.17 109.367 17.67C109.557 18.17 109.807 18.54 110.117 18.78C110.437 19.01 110.802 19.125 111.212 19.125Z" fill="white"/>
<path d="M119 0H5C2.23858 0 0 2.23858 0 5V27C0 29.7614 2.23858 32 5 32H119C121.761 32 124 29.7614 124 27V5C124 2.23858 121.761 0 119 0Z" fill="url(#paint0_linear_223_9)"/>
<defs>
<linearGradient id="paint0_linear_223_9" x1="0" y1="0" x2="0" y2="32" gradientUnits="userSpaceOnUse">
<stop stop-color="#BBBBBB" stop-opacity="0.1"/>
<stop offset="1" stop-opacity="0.1"/>
</linearGradient>
</defs>
</svg>
