<svg width="156" height="32" viewBox="0 0 156 32" fill="none" xmlns="http://www.w3.org/2000/svg">
<path d="M151 0H31V32H151C153.761 32 156 29.7614 156 27V5C156 2.23858 153.761 0 151 0Z" fill="#0F1418"/>
<path d="M31 0H5C2.23858 0 0 2.23858 0 5V27C0 29.7614 2.23858 32 5 32H31V0Z" fill="white"/>
<path d="M17.6785 19.4485L13.427 23.7H7.29999V17.573L11.5515 13.3215V19.4485H17.6785ZM22.7 8.30005H7.38249L11.5515 12.469H18.531V19.4485L22.7 23.6175V8.30005Z" fill="black"/>
<path d="M62.8772 12V1.5H67.4222C68.3622 1.5 69.1722 1.655 69.8522 1.965C70.5322 2.265 71.0572 2.7 71.4272 3.27C71.7972 3.84 71.9822 4.52 71.9822 5.31C71.9822 6.09 71.7972 6.765 71.4272 7.335C71.0572 7.895 70.5322 8.325 69.8522 8.625C69.1722 8.925 68.3622 9.075 67.4222 9.075H64.2272L65.3072 8.01V12H62.8772ZM69.5522 12L66.9272 8.19H69.5222L72.1772 12H69.5522ZM65.3072 8.28L64.2272 7.14H67.2872C68.0372 7.14 68.5972 6.98 68.9672 6.66C69.3372 6.33 69.5222 5.88 69.5222 5.31C69.5222 4.73 69.3372 4.28 68.9672 3.96C68.5972 3.64 68.0372 3.48 67.2872 3.48H64.2272L65.3072 2.325V8.28ZM74.9425 15.03C74.5225 15.03 74.1075 14.965 73.6975 14.835C73.2875 14.705 72.9525 14.525 72.6925 14.295L73.5475 12.63C73.7275 12.79 73.9325 12.915 74.1625 13.005C74.4025 13.095 74.6375 13.14 74.8675 13.14C75.1975 13.14 75.4575 13.06 75.6475 12.9C75.8475 12.75 76.0275 12.495 76.1875 12.135L76.6075 11.145L76.7875 10.89L79.6825 3.93H81.9325L78.2875 12.495C78.0275 13.145 77.7275 13.655 77.3875 14.025C77.0575 14.395 76.6875 14.655 76.2775 14.805C75.8775 14.955 75.4325 15.03 74.9425 15.03ZM76.3225 12.315L72.7225 3.93H75.1375L77.9275 10.68L76.3225 12.315ZM82.3658 12V10.59L87.1358 4.95L87.5408 5.73H82.4708V3.93H89.4308V5.34L84.6608 10.98L84.2408 10.2H89.5658V12H82.3658ZM95.1478 12.12C94.2278 12.12 93.4178 11.94 92.7178 11.58C92.0278 11.22 91.4928 10.73 91.1128 10.11C90.7328 9.48 90.5428 8.765 90.5428 7.965C90.5428 7.155 90.7278 6.44 91.0978 5.82C91.4778 5.19 91.9928 4.7 92.6428 4.35C93.2928 3.99 94.0278 3.81 94.8478 3.81C95.6378 3.81 96.3478 3.98 96.9778 4.32C97.6178 4.65 98.1228 5.13 98.4928 5.76C98.8628 6.38 99.0478 7.125 99.0478 7.995C99.0478 8.085 99.0428 8.19 99.0328 8.31C99.0228 8.42 99.0128 8.525 99.0028 8.625H92.4478V7.26H97.7728L96.8728 7.665C96.8728 7.245 96.7878 6.88 96.6178 6.57C96.4478 6.26 96.2128 6.02 95.9128 5.85C95.6128 5.67 95.2628 5.58 94.8628 5.58C94.4628 5.58 94.1078 5.67 93.7978 5.85C93.4978 6.02 93.2628 6.265 93.0928 6.585C92.9228 6.895 92.8378 7.265 92.8378 7.695V8.055C92.8378 8.495 92.9328 8.885 93.1228 9.225C93.3228 9.555 93.5978 9.81 93.9478 9.99C94.3078 10.16 94.7278 10.245 95.2078 10.245C95.6378 10.245 96.0128 10.18 96.3328 10.05C96.6628 9.92 96.9628 9.725 97.2328 9.465L98.4778 10.815C98.1078 11.235 97.6428 11.56 97.0828 11.79C96.5228 12.01 95.8778 12.12 95.1478 12.12ZM105.691 3.81C106.331 3.81 106.901 3.94 107.401 4.2C107.911 4.45 108.311 4.84 108.601 5.37C108.891 5.89 109.036 6.56 109.036 7.38V12H106.696V7.74C106.696 7.09 106.551 6.61 106.261 6.3C105.981 5.99 105.581 5.835 105.061 5.835C104.691 5.835 104.356 5.915 104.056 6.075C103.766 6.225 103.536 6.46 103.366 6.78C103.206 7.1 103.126 7.51 103.126 8.01V12H100.786V3.93H103.021V6.165L102.601 5.49C102.891 4.95 103.306 4.535 103.846 4.245C104.386 3.955 105.001 3.81 105.691 3.81ZM119.62 12.18C119.09 12.18 118.565 12.135 118.045 12.045C117.525 11.955 117.035 11.825 116.575 11.655C116.125 11.485 115.73 11.285 115.39 11.055L116.335 9.195C116.765 9.485 117.265 9.715 117.835 9.885C118.405 10.055 118.985 10.14 119.575 10.14C120.005 10.14 120.37 10.09 120.67 9.99C120.98 9.88 121.215 9.725 121.375 9.525C121.545 9.315 121.63 9.07 121.63 8.79C121.63 8.51 121.55 8.27 121.39 8.07C121.24 7.86 120.975 7.7 120.595 7.59C120.215 7.47 119.69 7.41 119.02 7.41H116.17L116.725 1.5H123.385V3.45H117.58L118.84 2.34L118.465 6.555L117.22 5.445H119.455C120.575 5.445 121.475 5.59 122.155 5.88C122.835 6.16 123.325 6.545 123.625 7.035C123.935 7.525 124.09 8.085 124.09 8.715C124.09 9.325 123.93 9.895 123.61 10.425C123.3 10.945 122.815 11.37 122.155 11.7C121.495 12.02 120.65 12.18 119.62 12.18ZM71.012 30.18C70.482 30.18 69.957 30.135 69.437 30.045C68.917 29.955 68.427 29.825 67.967 29.655C67.517 29.485 67.122 29.285 66.782 29.055L67.727 27.195C68.157 27.485 68.657 27.715 69.227 27.885C69.797 28.055 70.377 28.14 70.967 28.14C71.397 28.14 71.762 28.09 72.062 27.99C72.372 27.88 72.607 27.725 72.767 27.525C72.937 27.315 73.022 27.07 73.022 26.79C73.022 26.51 72.942 26.27 72.782 26.07C72.632 25.86 72.367 25.7 71.987 25.59C71.607 25.47 71.082 25.41 70.412 25.41H67.562L68.117 19.5H74.777V21.45H68.972L70.232 20.34L69.857 24.555L68.612 23.445H70.847C71.967 23.445 72.867 23.59 73.547 23.88C74.227 24.16 74.717 24.545 75.017 25.035C75.327 25.525 75.482 26.085 75.482 26.715C75.482 27.325 75.322 27.895 75.002 28.425C74.692 28.945 74.207 29.37 73.547 29.7C72.887 30.02 72.042 30.18 71.012 30.18ZM82.3849 30.18C81.3849 30.18 80.5249 29.98 79.8049 29.58C79.0849 29.17 78.5299 28.58 78.1399 27.81C77.7499 27.04 77.5549 26.1 77.5549 24.99C77.5549 24.17 77.6849 23.415 77.9449 22.725C78.2049 22.035 78.5799 21.435 79.0699 20.925C79.5699 20.415 80.1699 20.02 80.8699 19.74C81.5699 19.46 82.3649 19.32 83.2549 19.32C83.8149 19.32 84.3549 19.385 84.8749 19.515C85.4049 19.635 85.8449 19.81 86.1949 20.04L85.2949 21.87C85.0249 21.67 84.7099 21.525 84.3499 21.435C83.9999 21.345 83.6349 21.3 83.2549 21.3C82.6049 21.3 82.0299 21.43 81.5299 21.69C81.0399 21.94 80.6549 22.31 80.3749 22.8C80.1049 23.28 79.9699 23.87 79.9699 24.57C79.9699 24.78 79.9749 25 79.9849 25.23C80.0049 25.46 80.0349 25.68 80.0749 25.89L79.4749 25.185C79.6349 24.825 79.8699 24.515 80.1799 24.255C80.4999 23.985 80.8799 23.78 81.3199 23.64C81.7699 23.49 82.2649 23.415 82.8049 23.415C83.5249 23.415 84.1699 23.555 84.7399 23.835C85.3199 24.105 85.7699 24.485 86.0899 24.975C86.4199 25.465 86.5849 26.035 86.5849 26.685C86.5849 27.385 86.4049 28 86.0449 28.53C85.6849 29.05 85.1899 29.455 84.5599 29.745C83.9299 30.035 83.2049 30.18 82.3849 30.18ZM82.2949 28.38C82.6549 28.38 82.9749 28.315 83.2549 28.185C83.5349 28.055 83.7549 27.875 83.9149 27.645C84.0749 27.405 84.1549 27.125 84.1549 26.805C84.1549 26.485 84.0749 26.21 83.9149 25.98C83.7549 25.74 83.5299 25.555 83.2399 25.425C82.9599 25.285 82.6349 25.215 82.2649 25.215C81.9049 25.215 81.5749 25.285 81.2749 25.425C80.9849 25.555 80.7499 25.74 80.5699 25.98C80.3999 26.21 80.3149 26.485 80.3149 26.805C80.3149 27.085 80.3949 27.345 80.5549 27.585C80.7149 27.825 80.9399 28.02 81.2299 28.17C81.5299 28.31 81.8849 28.38 82.2949 28.38ZM92.6929 30.18C91.8029 30.18 91.0129 29.965 90.3229 29.535C89.6429 29.095 89.1029 28.47 88.7029 27.66C88.3129 26.85 88.1179 25.88 88.1179 24.75C88.1179 23.61 88.3129 22.64 88.7029 21.84C89.1029 21.03 89.6429 20.41 90.3229 19.98C91.0129 19.54 91.8029 19.32 92.6929 19.32C93.5829 19.32 94.3679 19.54 95.0479 19.98C95.7379 20.41 96.2779 21.03 96.6679 21.84C97.0679 22.64 97.2679 23.61 97.2679 24.75C97.2679 25.88 97.0679 26.85 96.6679 27.66C96.2779 28.47 95.7379 29.095 95.0479 29.535C94.3679 29.965 93.5829 30.18 92.6929 30.18ZM92.6929 28.125C93.1029 28.125 93.4679 28.01 93.7879 27.78C94.1079 27.54 94.3579 27.17 94.5379 26.67C94.7179 26.17 94.8079 25.53 94.8079 24.75C94.8079 23.97 94.7179 23.33 94.5379 22.83C94.3579 22.33 94.1079 21.965 93.7879 21.735C93.4679 21.495 93.1029 21.375 92.6929 21.375C92.2829 21.375 91.9179 21.495 91.5979 21.735C91.2879 21.965 91.0379 22.33 90.8479 22.83C90.6679 23.33 90.5779 23.97 90.5779 24.75C90.5779 25.53 90.6679 26.17 90.8479 26.67C91.0379 27.17 91.2879 27.54 91.5979 27.78C91.9179 28.01 92.2829 28.125 92.6929 28.125ZM103.376 30.18C102.486 30.18 101.696 29.965 101.006 29.535C100.326 29.095 99.7858 28.47 99.3858 27.66C98.9958 26.85 98.8008 25.88 98.8008 24.75C98.8008 23.61 98.9958 22.64 99.3858 21.84C99.7858 21.03 100.326 20.41 101.006 19.98C101.696 19.54 102.486 19.32 103.376 19.32C104.266 19.32 105.051 19.54 105.731 19.98C106.421 20.41 106.961 21.03 107.351 21.84C107.751 22.64 107.951 23.61 107.951 24.75C107.951 25.88 107.751 26.85 107.351 27.66C106.961 28.47 106.421 29.095 105.731 29.535C105.051 29.965 104.266 30.18 103.376 30.18ZM103.376 28.125C103.786 28.125 104.151 28.01 104.471 27.78C104.791 27.54 105.041 27.17 105.221 26.67C105.401 26.17 105.491 25.53 105.491 24.75C105.491 23.97 105.401 23.33 105.221 22.83C105.041 22.33 104.791 21.965 104.471 21.735C104.151 21.495 103.786 21.375 103.376 21.375C102.966 21.375 102.601 21.495 102.281 21.735C101.971 21.965 101.721 22.33 101.531 22.83C101.351 23.33 101.261 23.97 101.261 24.75C101.261 25.53 101.351 26.17 101.531 26.67C101.721 27.17 101.971 27.54 102.281 27.78C102.601 28.01 102.966 28.125 103.376 28.125ZM117.254 19.5H119.684V30H117.254V19.5ZM112.484 30H110.054V19.5H112.484V30ZM117.434 25.695H112.304V23.64H117.434V25.695Z" fill="white"/>
<path d="M151 0H5C2.23858 0 0 2.23858 0 5V27C0 29.7614 2.23857 32 5 32H151C153.761 32 156 29.7614 156 27V5C156 2.23858 153.761 0 151 0Z" fill="url(#paint0_linear_225_2)"/>
<defs>
<linearGradient id="paint0_linear_225_2" x1="0" y1="0" x2="0" y2="32" gradientUnits="userSpaceOnUse">
<stop stop-color="#BBBBBB" stop-opacity="0.1"/>
<stop offset="1" stop-opacity="0.1"/>
</linearGradient>
</defs>
</svg>
