<svg width="134" height="32" viewBox="0 0 134 32" fill="none" xmlns="http://www.w3.org/2000/svg">
<path d="M129 0H31V32H129C131.761 32 134 29.7614 134 27V5C134 2.23858 131.761 0 129 0Z" fill="#0F1418"/>
<path d="M31 0H5C2.23858 0 0 2.23858 0 5V27C0 29.7614 2.23858 32 5 32H31V0Z" fill="#0067B8"/>
<path d="M4.32257 8.02991L14.0657 6.7875V15.4991H4.32257V8.02991ZM4.32257 23.9701L14.0657 25.2125V16.6089H4.32257V23.9701ZM15.1377 25.3451L28.0968 27V16.6089H15.1377V25.3451ZM15.1377 6.65491V15.4991H28.0968V5L15.1377 6.65491Z" fill="white"/>
<path d="M49.5378 12L46.1028 1.5H48.6228L51.6078 10.8H50.3478L53.4678 1.5H55.7178L58.7178 10.8H57.5028L60.5628 1.5H62.8878L59.4528 12H56.8428L54.1878 3.84H54.8778L52.1478 12H49.5378ZM64.3912 12V3.93H66.7312V12H64.3912ZM65.5612 2.805C65.1312 2.805 64.7812 2.68 64.5112 2.43C64.2412 2.18 64.1062 1.87 64.1062 1.5C64.1062 1.13 64.2412 0.819999 64.5112 0.57C64.7812 0.319999 65.1312 0.194999 65.5612 0.194999C65.9912 0.194999 66.3412 0.314999 66.6112 0.555C66.8812 0.785 67.0162 1.085 67.0162 1.455C67.0162 1.845 66.8812 2.17 66.6112 2.43C66.3512 2.68 66.0012 2.805 65.5612 2.805ZM73.9879 3.81C74.6279 3.81 75.1979 3.94 75.6979 4.2C76.2079 4.45 76.6079 4.84 76.8979 5.37C77.1879 5.89 77.3329 6.56 77.3329 7.38V12H74.9929V7.74C74.9929 7.09 74.8479 6.61 74.5579 6.3C74.2779 5.99 73.8779 5.835 73.3579 5.835C72.9879 5.835 72.6529 5.915 72.3529 6.075C72.0629 6.225 71.8329 6.46 71.6629 6.78C71.5029 7.1 71.4229 7.51 71.4229 8.01V12H69.0829V3.93H71.3179V6.165L70.8979 5.49C71.1879 4.95 71.6029 4.535 72.1429 4.245C72.6829 3.955 73.2979 3.81 73.9879 3.81ZM83.1576 12.12C82.3976 12.12 81.7126 11.95 81.1026 11.61C80.4926 11.26 80.0076 10.775 79.6476 10.155C79.2976 9.535 79.1226 8.805 79.1226 7.965C79.1226 7.115 79.2976 6.38 79.6476 5.76C80.0076 5.14 80.4926 4.66 81.1026 4.32C81.7126 3.98 82.3976 3.81 83.1576 3.81C83.8376 3.81 84.4326 3.96 84.9426 4.26C85.4526 4.56 85.8476 5.015 86.1276 5.625C86.4076 6.235 86.5476 7.015 86.5476 7.965C86.5476 8.905 86.4126 9.685 86.1426 10.305C85.8726 10.915 85.4826 11.37 84.9726 11.67C84.4726 11.97 83.8676 12.12 83.1576 12.12ZM83.5626 10.2C83.9426 10.2 84.2876 10.11 84.5976 9.93C84.9076 9.75 85.1526 9.495 85.3326 9.165C85.5226 8.825 85.6176 8.425 85.6176 7.965C85.6176 7.495 85.5226 7.095 85.3326 6.765C85.1526 6.435 84.9076 6.18 84.5976 6C84.2876 5.82 83.9426 5.73 83.5626 5.73C83.1726 5.73 82.8226 5.82 82.5126 6C82.2026 6.18 81.9526 6.435 81.7626 6.765C81.5826 7.095 81.4926 7.495 81.4926 7.965C81.4926 8.425 81.5826 8.825 81.7626 9.165C81.9526 9.495 82.2026 9.75 82.5126 9.93C82.8226 10.11 83.1726 10.2 83.5626 10.2ZM85.6776 12V10.35L85.7226 7.95L85.5726 5.565V0.869999H87.9126V12H85.6776ZM94.0984 12.12C93.2384 12.12 92.4734 11.94 91.8034 11.58C91.1434 11.22 90.6184 10.73 90.2284 10.11C89.8484 9.48 89.6584 8.765 89.6584 7.965C89.6584 7.155 89.8484 6.44 90.2284 5.82C90.6184 5.19 91.1434 4.7 91.8034 4.35C92.4734 3.99 93.2384 3.81 94.0984 3.81C94.9484 3.81 95.7084 3.99 96.3784 4.35C97.0484 4.7 97.5734 5.185 97.9534 5.805C98.3334 6.425 98.5234 7.145 98.5234 7.965C98.5234 8.765 98.3334 9.48 97.9534 10.11C97.5734 10.73 97.0484 11.22 96.3784 11.58C95.7084 11.94 94.9484 12.12 94.0984 12.12ZM94.0984 10.2C94.4884 10.2 94.8384 10.11 95.1484 9.93C95.4584 9.75 95.7034 9.495 95.8834 9.165C96.0634 8.825 96.1534 8.425 96.1534 7.965C96.1534 7.495 96.0634 7.095 95.8834 6.765C95.7034 6.435 95.4584 6.18 95.1484 6C94.8384 5.82 94.4884 5.73 94.0984 5.73C93.7084 5.73 93.3584 5.82 93.0484 6C92.7384 6.18 92.4884 6.435 92.2984 6.765C92.1184 7.095 92.0284 7.495 92.0284 7.965C92.0284 8.425 92.1184 8.825 92.2984 9.165C92.4884 9.495 92.7384 9.75 93.0484 9.93C93.3584 10.11 93.7084 10.2 94.0984 10.2ZM101.893 12L98.9828 3.93H101.188L103.603 10.875H102.553L105.073 3.93H107.053L109.498 10.875H108.448L110.938 3.93H113.008L110.083 12H107.818L105.673 6.045H106.363L104.143 12H101.893ZM116.873 12.12C116.183 12.12 115.518 12.04 114.878 11.88C114.248 11.71 113.748 11.5 113.378 11.25L114.158 9.57C114.528 9.8 114.963 9.99 115.463 10.14C115.973 10.28 116.473 10.35 116.963 10.35C117.503 10.35 117.883 10.285 118.103 10.155C118.333 10.025 118.448 9.845 118.448 9.615C118.448 9.425 118.358 9.285 118.178 9.195C118.008 9.095 117.778 9.02 117.488 8.97C117.198 8.92 116.878 8.87 116.528 8.82C116.188 8.77 115.843 8.705 115.493 8.625C115.143 8.535 114.823 8.405 114.533 8.235C114.243 8.065 114.008 7.835 113.828 7.545C113.658 7.255 113.573 6.88 113.573 6.42C113.573 5.91 113.718 5.46 114.008 5.07C114.308 4.68 114.738 4.375 115.298 4.155C115.858 3.925 116.528 3.81 117.308 3.81C117.858 3.81 118.418 3.87 118.988 3.99C119.558 4.11 120.033 4.285 120.413 4.515L119.633 6.18C119.243 5.95 118.848 5.795 118.448 5.715C118.058 5.625 117.678 5.58 117.308 5.58C116.788 5.58 116.408 5.65 116.168 5.79C115.928 5.93 115.808 6.11 115.808 6.33C115.808 6.53 115.893 6.68 116.063 6.78C116.243 6.88 116.478 6.96 116.768 7.02C117.058 7.08 117.373 7.135 117.713 7.185C118.063 7.225 118.413 7.29 118.763 7.38C119.113 7.47 119.428 7.6 119.708 7.77C119.998 7.93 120.233 8.155 120.413 8.445C120.593 8.725 120.683 9.095 120.683 9.555C120.683 10.055 120.533 10.5 120.233 10.89C119.933 11.27 119.498 11.57 118.928 11.79C118.368 12.01 117.683 12.12 116.873 12.12ZM79.7771 29.13L78.6821 28.05H81.9221V30H74.8871V28.05H78.4271L77.3321 29.13V20.4L78.3821 21.45H75.0821V19.5H79.7771V29.13ZM90.46 29.13L89.365 28.05H92.605V30H85.57V28.05H89.11L88.015 29.13V20.4L89.065 21.45H85.765V19.5H90.46V29.13Z" fill="white"/>
<path d="M129 0H5C2.23858 0 0 2.23858 0 5V27C0 29.7614 2.23858 32 5 32H129C131.761 32 134 29.7614 134 27V5C134 2.23858 131.761 0 129 0Z" fill="url(#paint0_linear_223_2)"/>
<defs>
<linearGradient id="paint0_linear_223_2" x1="0" y1="0" x2="0" y2="32" gradientUnits="userSpaceOnUse">
<stop stop-color="#BBBBBB" stop-opacity="0.1"/>
<stop offset="1" stop-opacity="0.1"/>
</linearGradient>
</defs>
</svg>
