<svg width="91" height="32" viewBox="0 0 91 32" fill="none" xmlns="http://www.w3.org/2000/svg">
<path d="M86 0H31V32H86C88.7614 32 91 29.7614 91 27V5C91 2.23858 88.7614 0 86 0Z" fill="#0F1418"/>
<path d="M31 0H5C2.23858 0 0 2.23858 0 5V27C0 29.7614 2.23858 32 5 32H31V0Z" fill="#FF9900"/>
<path d="M10.7655 16.2211C10.7385 17.0705 11.163 17.4466 11.1735 17.6855C11.1685 17.7341 11.1519 17.7808 11.1251 17.8217C11.0984 17.8626 11.0622 17.8965 11.0197 17.9206L10.5397 18.2566C10.4776 18.3001 10.4044 18.3251 10.3286 18.3286C10.3125 18.3278 10.0215 18.3972 9.56058 17.3682C9.2794 17.7192 8.92163 18.0012 8.51468 18.1926C8.10773 18.384 7.66237 18.4798 7.2127 18.4726C6.6022 18.506 4.9477 18.1261 5.03283 16.3647C4.9732 14.9292 6.31008 14.0375 7.6927 14.1128C7.95895 14.1136 8.5027 14.1267 9.45483 14.348V13.7622C9.5557 12.77 8.90358 12.0001 7.77445 12.1156C7.68445 12.116 7.04695 12.0968 6.05545 12.4947C5.77945 12.6215 5.7442 12.6005 5.65233 12.6005C5.37445 12.6005 5.48883 11.795 5.54208 11.693C5.73745 11.453 6.88683 11.0048 8.01483 11.0112C8.76904 10.9445 9.51922 11.1773 10.1032 11.6592C10.3406 11.9247 10.5217 12.2356 10.6356 12.5731C10.7495 12.9106 10.7938 13.2676 10.7658 13.6227L10.7655 16.2211V16.2211ZM7.5247 17.4357C8.74083 17.4181 9.2557 16.6868 9.37308 16.2931C9.46533 15.9162 9.44995 15.6777 9.44995 15.2656C9.08733 15.1786 8.56533 15.0837 7.96645 15.083C7.39833 15.0402 6.3607 15.2941 6.4012 16.2927C6.3547 16.9223 6.8182 17.4702 7.5247 17.4357V17.4357ZM13.9342 18.3001C13.6395 18.3271 13.5022 18.1178 13.4587 17.9112L11.5912 11.7368C11.5548 11.6326 11.5308 11.525 11.5192 11.4151C11.5123 11.3698 11.5237 11.3236 11.5508 11.2867C11.578 11.2498 11.6187 11.2251 11.664 11.2182C11.673 11.2167 11.5841 11.2182 12.4983 11.2182C12.8276 11.1852 12.9348 11.4443 12.969 11.6071L14.3085 16.8882L15.552 11.6071C15.5718 11.4863 15.6622 11.192 16.032 11.2231H16.6755C16.7568 11.2163 17.0921 11.2043 17.151 11.612L18.4042 16.9606L19.7868 11.612C19.8048 11.5302 19.8888 11.1856 20.2623 11.2231H21.0018C21.0337 11.2182 21.2325 11.1927 21.1987 11.5448C21.1826 11.6142 21.3266 11.1451 19.2206 17.9161C19.1775 18.1227 19.0398 18.332 18.7451 18.305H18.0442C17.634 18.3481 17.5751 17.9427 17.5687 17.9018L16.3252 12.7595L15.096 17.8966C15.09 17.9375 15.0311 18.3428 14.6205 18.2997H13.9342V18.3001ZM24.1897 18.5112C23.9692 18.5116 22.9177 18.5 22.0387 18.0503C21.9511 18.0133 21.8766 17.951 21.8244 17.8715C21.7723 17.792 21.7449 17.6988 21.7458 17.6037V17.2006C21.7458 16.8837 21.9783 16.9418 22.077 16.9797C22.4535 17.132 22.695 17.2475 23.1573 17.3397C24.5317 17.6221 25.1362 17.2535 25.2843 17.1717C25.7775 16.8788 25.8165 16.2087 25.4812 15.8611C25.0882 15.5315 24.9007 15.5191 23.4888 15.0736C23.3148 15.0252 21.8501 14.5632 21.8467 13.1101C21.8238 12.0511 22.7861 11.0033 24.4537 11.012C24.9288 11.0116 26.1948 11.1668 26.5376 11.5977C26.5882 11.6761 26.6133 11.7683 26.6096 11.8617V12.2408C26.6096 12.4073 26.5488 12.4906 26.427 12.4906C26.1378 12.4583 25.6248 12.0717 24.5835 12.0875C24.3251 12.074 23.0876 12.1216 23.1431 13.0238C23.127 13.7348 24.141 14.0015 24.2568 14.0322C25.6241 14.4436 26.0812 14.5118 26.6238 15.1415C27.2666 15.9758 26.9201 16.9527 26.787 17.2205C26.0715 18.6263 24.2212 18.512 24.1897 18.5112V18.5112ZM25.6972 22.4435C23.0711 24.383 19.2588 25.4153 16.0038 25.4153C11.6118 25.4443 7.36788 23.8294 4.1062 20.888C3.86133 20.6671 4.07733 20.3645 4.37508 20.5328C7.99325 22.6025 12.0898 23.69 16.2581 23.6873C19.3709 23.6706 22.4497 23.0392 25.3177 21.8292C25.7595 21.6417 26.1341 22.1217 25.6972 22.4435V22.4435ZM26.7918 21.1951C26.4558 20.7631 24.5688 20.9933 23.724 21.0942C23.4693 21.1231 23.4262 20.9022 23.6568 20.7391C25.1595 19.6827 27.6273 19.9853 27.9108 20.3405C28.194 20.6956 27.834 23.1683 26.4273 24.3496C26.2113 24.5322 26.0047 24.4358 26.1007 24.1958C26.4172 23.399 27.1278 21.6275 26.7918 21.1951Z" fill="white"/>
<path d="M41.8325 21L46.5125 10.5H48.9125L53.6075 21H51.0575L47.2175 11.73H48.1775L44.3225 21H41.8325ZM44.1725 18.75L44.8175 16.905H50.2175L50.8775 18.75H44.1725ZM56.8255 21L53.3905 10.5H55.9105L58.8955 19.8H57.6355L60.7555 10.5H63.0055L66.0055 19.8H64.7905L67.8505 10.5H70.1755L66.7405 21H64.1305L61.4755 12.84H62.1655L59.4355 21H56.8255ZM75.1621 21.18C74.3221 21.18 73.5171 21.07 72.7471 20.85C71.9771 20.62 71.3571 20.325 70.8871 19.965L71.7121 18.135C72.1621 18.455 72.6921 18.72 73.3021 18.93C73.9221 19.13 74.5471 19.23 75.1771 19.23C75.6571 19.23 76.0421 19.185 76.3321 19.095C76.6321 18.995 76.8521 18.86 76.9921 18.69C77.1321 18.52 77.2021 18.325 77.2021 18.105C77.2021 17.825 77.0921 17.605 76.8721 17.445C76.6521 17.275 76.3621 17.14 76.0021 17.04C75.6421 16.93 75.2421 16.83 74.8021 16.74C74.3721 16.64 73.9371 16.52 73.4971 16.38C73.0671 16.24 72.6721 16.06 72.3121 15.84C71.9521 15.62 71.6571 15.33 71.4271 14.97C71.2071 14.61 71.0971 14.15 71.0971 13.59C71.0971 12.99 71.2571 12.445 71.5771 11.955C71.9071 11.455 72.3971 11.06 73.0471 10.77C73.7071 10.47 74.5321 10.32 75.5221 10.32C76.1821 10.32 76.8321 10.4 77.4721 10.56C78.1121 10.71 78.6771 10.94 79.1671 11.25L78.4171 13.095C77.9271 12.815 77.4371 12.61 76.9471 12.48C76.4571 12.34 75.9771 12.27 75.5071 12.27C75.0371 12.27 74.6521 12.325 74.3521 12.435C74.0521 12.545 73.8371 12.69 73.7071 12.87C73.5771 13.04 73.5121 13.24 73.5121 13.47C73.5121 13.74 73.6221 13.96 73.8421 14.13C74.0621 14.29 74.3521 14.42 74.7121 14.52C75.0721 14.62 75.4671 14.72 75.8971 14.82C76.3371 14.92 76.7721 15.035 77.2021 15.165C77.6421 15.295 78.0421 15.47 78.4021 15.69C78.7621 15.91 79.0521 16.2 79.2721 16.56C79.5021 16.92 79.6171 17.375 79.6171 17.925C79.6171 18.515 79.4521 19.055 79.1221 19.545C78.7921 20.035 78.2971 20.43 77.6371 20.73C76.9871 21.03 76.1621 21.18 75.1621 21.18Z" fill="white"/>
<path d="M86 0H5C2.23858 0 0 2.23858 0 5V27C0 29.7614 2.23858 32 5 32H86C88.7614 32 91 29.7614 91 27V5C91 2.23858 88.7614 0 86 0Z" fill="url(#paint0_linear_15_40)"/>
<defs>
<linearGradient id="paint0_linear_15_40" x1="0" y1="0" x2="0" y2="32" gradientUnits="userSpaceOnUse">
<stop stop-color="#BBBBBB" stop-opacity="0.1"/>
<stop offset="1" stop-opacity="0.1"/>
</linearGradient>
</defs>
</svg>
