<svg width="135" height="32" viewBox="0 0 135 32" fill="none" xmlns="http://www.w3.org/2000/svg">
<path d="M130 0H31V32H130C132.761 32 135 29.7614 135 27V5C135 2.23858 132.761 0 130 0Z" fill="#0F1418"/>
<path d="M31 0H5C2.23858 0 0 2.23858 0 5V27C0 29.7614 2.23858 32 5 32H31V0Z" fill="#1DA1F2"/>
<path d="M18.0785 15.6607H15.6V13.4334H18.0785V15.6607ZM18.0785 8H15.6V10.2761H18.0785V8ZM21.0108 13.4296H18.5323V15.657H21.0108V13.4296V13.4296ZM15.15 10.7261H12.6714V12.9797H15.15V10.7261ZM18.0785 10.7261H15.6V12.9797H18.0785V10.7261ZM28.4578 14.4758C27.9179 14.1121 26.6729 13.9808 25.7168 14.1608C25.593 13.2609 25.0906 12.4772 24.1756 11.7722L23.6507 11.4235L23.3019 11.9485C22.612 12.9909 22.4245 14.7083 23.1632 15.8407C22.837 16.017 22.1958 16.2569 21.3483 16.2419H5.04817C4.72194 18.1468 5.26566 20.6216 6.69806 22.3203C8.08921 23.9664 10.1741 24.8026 12.9001 24.8026C18.8022 24.8026 23.1707 22.084 25.2143 17.1456C26.0167 17.1606 27.7491 17.1494 28.6378 15.4507C28.6941 15.357 28.8853 14.9558 28.9565 14.8095L28.4578 14.4758V14.4758ZM9.29288 13.4296H6.81805V15.657H9.29663V13.4296H9.29288ZM12.2214 13.4296H9.74285V15.657H12.2214V13.4296ZM15.15 13.4296H12.6714V15.657H15.15V13.4296ZM12.2214 10.7261H9.74285V12.9797H12.2214V10.7261Z" fill="white"/>
<path d="M39.7401 20V9.5H44.5101C45.6501 9.5 46.6551 9.72 47.5251 10.16C48.3951 10.59 49.0751 11.195 49.5651 11.975C50.0551 12.755 50.3001 13.68 50.3001 14.75C50.3001 15.81 50.0551 16.735 49.5651 17.525C49.0751 18.305 48.3951 18.915 47.5251 19.355C46.6551 19.785 45.6501 20 44.5101 20H39.7401ZM42.1701 18.005H44.3901C45.0901 18.005 45.6951 17.875 46.2051 17.615C46.7251 17.345 47.1251 16.965 47.4051 16.475C47.6951 15.985 47.8401 15.41 47.8401 14.75C47.8401 14.08 47.6951 13.505 47.4051 13.025C47.1251 12.535 46.7251 12.16 46.2051 11.9C45.6951 11.63 45.0901 11.495 44.3901 11.495H42.1701V18.005ZM55.9877 20.12C55.1277 20.12 54.3627 19.94 53.6927 19.58C53.0327 19.22 52.5077 18.73 52.1177 18.11C51.7377 17.48 51.5477 16.765 51.5477 15.965C51.5477 15.155 51.7377 14.44 52.1177 13.82C52.5077 13.19 53.0327 12.7 53.6927 12.35C54.3627 11.99 55.1277 11.81 55.9877 11.81C56.8377 11.81 57.5977 11.99 58.2677 12.35C58.9377 12.7 59.4627 13.185 59.8427 13.805C60.2227 14.425 60.4127 15.145 60.4127 15.965C60.4127 16.765 60.2227 17.48 59.8427 18.11C59.4627 18.73 58.9377 19.22 58.2677 19.58C57.5977 19.94 56.8377 20.12 55.9877 20.12ZM55.9877 18.2C56.3777 18.2 56.7277 18.11 57.0377 17.93C57.3477 17.75 57.5927 17.495 57.7727 17.165C57.9527 16.825 58.0427 16.425 58.0427 15.965C58.0427 15.495 57.9527 15.095 57.7727 14.765C57.5927 14.435 57.3477 14.18 57.0377 14C56.7277 13.82 56.3777 13.73 55.9877 13.73C55.5977 13.73 55.2477 13.82 54.9377 14C54.6277 14.18 54.3777 14.435 54.1877 14.765C54.0077 15.095 53.9177 15.495 53.9177 15.965C53.9177 16.425 54.0077 16.825 54.1877 17.165C54.3777 17.495 54.6277 17.75 54.9377 17.93C55.2477 18.11 55.5977 18.2 55.9877 18.2ZM66.0568 20.12C65.1868 20.12 64.4118 19.945 63.7318 19.595C63.0518 19.235 62.5168 18.74 62.1268 18.11C61.7468 17.48 61.5568 16.765 61.5568 15.965C61.5568 15.155 61.7468 14.44 62.1268 13.82C62.5168 13.19 63.0518 12.7 63.7318 12.35C64.4118 11.99 65.1868 11.81 66.0568 11.81C66.9068 11.81 67.6468 11.99 68.2768 12.35C68.9068 12.7 69.3718 13.205 69.6718 13.865L67.8568 14.84C67.6468 14.46 67.3818 14.18 67.0618 14C66.7518 13.82 66.4118 13.73 66.0418 13.73C65.6418 13.73 65.2818 13.82 64.9618 14C64.6418 14.18 64.3868 14.435 64.1968 14.765C64.0168 15.095 63.9268 15.495 63.9268 15.965C63.9268 16.435 64.0168 16.835 64.1968 17.165C64.3868 17.495 64.6418 17.75 64.9618 17.93C65.2818 18.11 65.6418 18.2 66.0418 18.2C66.4118 18.2 66.7518 18.115 67.0618 17.945C67.3818 17.765 67.6468 17.48 67.8568 17.09L69.6718 18.08C69.3718 18.73 68.9068 19.235 68.2768 19.595C67.6468 19.945 66.9068 20.12 66.0568 20.12ZM73.0902 18.35L73.1502 15.5L76.9152 11.93H79.7052L76.0902 15.605L74.8752 16.595L73.0902 18.35ZM71.1552 20V8.87H73.4952V20H71.1552ZM77.1702 20L74.4402 16.61L75.9102 14.795L80.0052 20H77.1702ZM84.9056 20.12C83.9856 20.12 83.1756 19.94 82.4756 19.58C81.7856 19.22 81.2506 18.73 80.8706 18.11C80.4906 17.48 80.3006 16.765 80.3006 15.965C80.3006 15.155 80.4856 14.44 80.8556 13.82C81.2356 13.19 81.7506 12.7 82.4006 12.35C83.0506 11.99 83.7856 11.81 84.6056 11.81C85.3956 11.81 86.1056 11.98 86.7356 12.32C87.3756 12.65 87.8806 13.13 88.2506 13.76C88.6206 14.38 88.8056 15.125 88.8056 15.995C88.8056 16.085 88.8006 16.19 88.7906 16.31C88.7806 16.42 88.7706 16.525 88.7606 16.625H82.2056V15.26H87.5306L86.6306 15.665C86.6306 15.245 86.5456 14.88 86.3756 14.57C86.2056 14.26 85.9706 14.02 85.6706 13.85C85.3706 13.67 85.0206 13.58 84.6206 13.58C84.2206 13.58 83.8656 13.67 83.5556 13.85C83.2556 14.02 83.0206 14.265 82.8506 14.585C82.6806 14.895 82.5956 15.265 82.5956 15.695V16.055C82.5956 16.495 82.6906 16.885 82.8806 17.225C83.0806 17.555 83.3556 17.81 83.7056 17.99C84.0656 18.16 84.4856 18.245 84.9656 18.245C85.3956 18.245 85.7706 18.18 86.0906 18.05C86.4206 17.92 86.7206 17.725 86.9906 17.465L88.2356 18.815C87.8656 19.235 87.4006 19.56 86.8406 19.79C86.2806 20.01 85.6356 20.12 84.9056 20.12ZM90.5435 20V11.93H92.7785V14.21L92.4635 13.55C92.7035 12.98 93.0885 12.55 93.6185 12.26C94.1485 11.96 94.7935 11.81 95.5535 11.81V13.97C95.4535 13.96 95.3635 13.955 95.2835 13.955C95.2035 13.945 95.1185 13.94 95.0285 13.94C94.3885 13.94 93.8685 14.125 93.4685 14.495C93.0785 14.855 92.8835 15.42 92.8835 16.19V20H90.5435Z" fill="white"/>
<path d="M102.104 11.81C102.744 11.81 103.314 11.94 103.814 12.2C104.324 12.45 104.724 12.84 105.014 13.37C105.304 13.89 105.449 14.56 105.449 15.38V20H103.109V15.74C103.109 15.09 102.964 14.61 102.674 14.3C102.394 13.99 101.994 13.835 101.474 13.835C101.104 13.835 100.769 13.915 100.469 14.075C100.179 14.225 99.9495 14.46 99.7795 14.78C99.6195 15.1 99.5395 15.51 99.5395 16.01V20H97.1995V8.87H99.5395V14.165L99.0145 13.49C99.3045 12.95 99.7195 12.535 100.259 12.245C100.799 11.955 101.414 11.81 102.104 11.81ZM111.156 20.12C110.486 20.12 109.886 19.99 109.356 19.73C108.836 19.47 108.431 19.075 108.141 18.545C107.851 18.005 107.706 17.32 107.706 16.49V11.93H110.046V16.145C110.046 16.815 110.186 17.31 110.466 17.63C110.756 17.94 111.161 18.095 111.681 18.095C112.041 18.095 112.361 18.02 112.641 17.87C112.921 17.71 113.141 17.47 113.301 17.15C113.461 16.82 113.541 16.41 113.541 15.92V11.93H115.881V20H113.661V17.78L114.066 18.425C113.796 18.985 113.396 19.41 112.866 19.7C112.346 19.98 111.776 20.12 111.156 20.12ZM122.998 20.12C122.288 20.12 121.678 19.97 121.168 19.67C120.658 19.37 120.268 18.915 119.998 18.305C119.728 17.685 119.593 16.905 119.593 15.965C119.593 15.015 119.733 14.235 120.013 13.625C120.303 13.015 120.703 12.56 121.213 12.26C121.723 11.96 122.318 11.81 122.998 11.81C123.758 11.81 124.438 11.98 125.038 12.32C125.648 12.66 126.128 13.14 126.478 13.76C126.838 14.38 127.018 15.115 127.018 15.965C127.018 16.805 126.838 17.535 126.478 18.155C126.128 18.775 125.648 19.26 125.038 19.61C124.438 19.95 123.758 20.12 122.998 20.12ZM118.228 20V8.87H120.568V13.565L120.418 15.95L120.463 18.35V20H118.228ZM122.593 18.2C122.983 18.2 123.328 18.11 123.628 17.93C123.938 17.75 124.183 17.495 124.363 17.165C124.553 16.825 124.648 16.425 124.648 15.965C124.648 15.495 124.553 15.095 124.363 14.765C124.183 14.435 123.938 14.18 123.628 14C123.328 13.82 122.983 13.73 122.593 13.73C122.203 13.73 121.853 13.82 121.543 14C121.233 14.18 120.988 14.435 120.808 14.765C120.628 15.095 120.538 15.495 120.538 15.965C120.538 16.425 120.628 16.825 120.808 17.165C120.988 17.495 121.233 17.75 121.543 17.93C121.853 18.11 122.203 18.2 122.593 18.2Z" fill="#C1C1C1"/>
<path d="M130 0H5C2.23858 0 0 2.23858 0 5V27C0 29.7614 2.23857 32 5 32H130C132.761 32 135 29.7614 135 27V5C135 2.23858 132.761 0 130 0Z" fill="url(#paint0_linear_15_48)"/>
<defs>
<linearGradient id="paint0_linear_15_48" x1="0" y1="0" x2="0" y2="32" gradientUnits="userSpaceOnUse">
<stop stop-color="#BBBBBB" stop-opacity="0.1"/>
<stop offset="1" stop-opacity="0.1"/>
</linearGradient>
</defs>
</svg>
