<svg width="107" height="32" viewBox="0 0 107 32" fill="none" xmlns="http://www.w3.org/2000/svg">
<path d="M102 0H31V32H102C104.761 32 107 29.7614 107 27V5C107 2.23858 104.761 0 102 0Z" fill="#0F1418"/>
<path d="M31 0H5C2.23858 0 0 2.23858 0 5V27C0 29.7614 2.23858 32 5 32H31V0Z" fill="#29B2E7"/>
<path d="M17.0785 15.6607H14.6V13.4334H17.0785V15.6607ZM17.0785 8H14.6V10.2761H17.0785V8ZM20.0108 13.4296H17.5323V15.657H20.0108V13.4296ZM14.15 10.7261H11.6714V12.9797H14.15V10.7261ZM17.0785 10.7261H14.6V12.9797H17.0785V10.7261ZM27.4578 14.4758C26.9179 14.1121 25.6729 13.9808 24.7168 14.1608C24.593 13.2609 24.0906 12.4772 23.1756 11.7722L22.6507 11.4235L22.3019 11.9485C21.612 12.9909 21.4245 14.7083 22.1632 15.8407C21.837 16.017 21.1958 16.2569 20.3483 16.2419H4.04817C3.72194 18.1468 4.26566 20.6216 5.69806 22.3203C7.08921 23.9664 9.1741 24.8026 11.9001 24.8026C17.8022 24.8026 22.1707 22.084 24.2143 17.1456C25.0167 17.1606 26.7491 17.1494 27.6378 15.4507C27.6941 15.357 27.8853 14.9558 27.9565 14.8095L27.4578 14.4758ZM8.29288 13.4296H5.81805V15.657H8.29663V13.4296H8.29288ZM11.2214 13.4296H8.74285V15.657H11.2214V13.4296ZM14.15 13.4296H11.6714V15.657H14.15V13.4296ZM11.2214 10.7261H8.74285V12.9797H11.2214V10.7261Z" fill="white"/>
<path d="M41.5308 20V9.5H46.3008C47.4408 9.5 48.4458 9.72 49.3158 10.16C50.1858 10.59 50.8658 11.195 51.3558 11.975C51.8458 12.755 52.0908 13.68 52.0908 14.75C52.0908 15.81 51.8458 16.735 51.3558 17.525C50.8658 18.305 50.1858 18.915 49.3158 19.355C48.4458 19.785 47.4408 20 46.3008 20H41.5308ZM43.9608 18.005H46.1808C46.8808 18.005 47.4858 17.875 47.9958 17.615C48.5158 17.345 48.9158 16.965 49.1958 16.475C49.4858 15.985 49.6308 15.41 49.6308 14.75C49.6308 14.08 49.4858 13.505 49.1958 13.025C48.9158 12.535 48.5158 12.16 47.9958 11.9C47.4858 11.63 46.8808 11.495 46.1808 11.495H43.9608V18.005ZM57.7784 20.12C56.9184 20.12 56.1534 19.94 55.4834 19.58C54.8234 19.22 54.2984 18.73 53.9084 18.11C53.5284 17.48 53.3384 16.765 53.3384 15.965C53.3384 15.155 53.5284 14.44 53.9084 13.82C54.2984 13.19 54.8234 12.7 55.4834 12.35C56.1534 11.99 56.9184 11.81 57.7784 11.81C58.6284 11.81 59.3884 11.99 60.0584 12.35C60.7284 12.7 61.2534 13.185 61.6334 13.805C62.0134 14.425 62.2034 15.145 62.2034 15.965C62.2034 16.765 62.0134 17.48 61.6334 18.11C61.2534 18.73 60.7284 19.22 60.0584 19.58C59.3884 19.94 58.6284 20.12 57.7784 20.12ZM57.7784 18.2C58.1684 18.2 58.5184 18.11 58.8284 17.93C59.1384 17.75 59.3834 17.495 59.5634 17.165C59.7434 16.825 59.8334 16.425 59.8334 15.965C59.8334 15.495 59.7434 15.095 59.5634 14.765C59.3834 14.435 59.1384 14.18 58.8284 14C58.5184 13.82 58.1684 13.73 57.7784 13.73C57.3884 13.73 57.0384 13.82 56.7284 14C56.4184 14.18 56.1684 14.435 55.9784 14.765C55.7984 15.095 55.7084 15.495 55.7084 15.965C55.7084 16.425 55.7984 16.825 55.9784 17.165C56.1684 17.495 56.4184 17.75 56.7284 17.93C57.0384 18.11 57.3884 18.2 57.7784 18.2ZM67.8475 20.12C66.9775 20.12 66.2025 19.945 65.5225 19.595C64.8425 19.235 64.3075 18.74 63.9175 18.11C63.5375 17.48 63.3475 16.765 63.3475 15.965C63.3475 15.155 63.5375 14.44 63.9175 13.82C64.3075 13.19 64.8425 12.7 65.5225 12.35C66.2025 11.99 66.9775 11.81 67.8475 11.81C68.6975 11.81 69.4375 11.99 70.0675 12.35C70.6975 12.7 71.1625 13.205 71.4625 13.865L69.6475 14.84C69.4375 14.46 69.1725 14.18 68.8525 14C68.5425 13.82 68.2025 13.73 67.8325 13.73C67.4325 13.73 67.0725 13.82 66.7525 14C66.4325 14.18 66.1775 14.435 65.9875 14.765C65.8075 15.095 65.7175 15.495 65.7175 15.965C65.7175 16.435 65.8075 16.835 65.9875 17.165C66.1775 17.495 66.4325 17.75 66.7525 17.93C67.0725 18.11 67.4325 18.2 67.8325 18.2C68.2025 18.2 68.5425 18.115 68.8525 17.945C69.1725 17.765 69.4375 17.48 69.6475 17.09L71.4625 18.08C71.1625 18.73 70.6975 19.235 70.0675 19.595C69.4375 19.945 68.6975 20.12 67.8475 20.12ZM74.8809 18.35L74.9409 15.5L78.7059 11.93H81.4959L77.8809 15.605L76.6659 16.595L74.8809 18.35ZM72.9459 20V8.87H75.2859V20H72.9459ZM78.9609 20L76.2309 16.61L77.7009 14.795L81.7959 20H78.9609ZM86.6963 20.12C85.7763 20.12 84.9663 19.94 84.2663 19.58C83.5763 19.22 83.0413 18.73 82.6613 18.11C82.2813 17.48 82.0913 16.765 82.0913 15.965C82.0913 15.155 82.2763 14.44 82.6463 13.82C83.0263 13.19 83.5413 12.7 84.1913 12.35C84.8413 11.99 85.5763 11.81 86.3963 11.81C87.1863 11.81 87.8963 11.98 88.5263 12.32C89.1663 12.65 89.6713 13.13 90.0413 13.76C90.4113 14.38 90.5963 15.125 90.5963 15.995C90.5963 16.085 90.5913 16.19 90.5813 16.31C90.5713 16.42 90.5613 16.525 90.5513 16.625H83.9963V15.26H89.3213L88.4213 15.665C88.4213 15.245 88.3363 14.88 88.1663 14.57C87.9963 14.26 87.7613 14.02 87.4613 13.85C87.1613 13.67 86.8113 13.58 86.4113 13.58C86.0113 13.58 85.6563 13.67 85.3463 13.85C85.0463 14.02 84.8113 14.265 84.6413 14.585C84.4713 14.895 84.3863 15.265 84.3863 15.695V16.055C84.3863 16.495 84.4813 16.885 84.6713 17.225C84.8713 17.555 85.1463 17.81 85.4963 17.99C85.8563 18.16 86.2763 18.245 86.7563 18.245C87.1863 18.245 87.5613 18.18 87.8813 18.05C88.2113 17.92 88.5113 17.725 88.7813 17.465L90.0263 18.815C89.6563 19.235 89.1913 19.56 88.6313 19.79C88.0713 20.01 87.4263 20.12 86.6963 20.12ZM92.3342 20V11.93H94.5692V14.21L94.2542 13.55C94.4942 12.98 94.8792 12.55 95.4092 12.26C95.9392 11.96 96.5842 11.81 97.3442 11.81V13.97C97.2442 13.96 97.1542 13.955 97.0742 13.955C96.9942 13.945 96.9092 13.94 96.8192 13.94C96.1792 13.94 95.6592 14.125 95.2592 14.495C94.8692 14.855 94.6742 15.42 94.6742 16.19V20H92.3342Z" fill="white"/>
<path d="M102 0H5C2.23858 0 0 2.23858 0 5V27C0 29.7614 2.23858 32 5 32H102C104.761 32 107 29.7614 107 27V5C107 2.23858 104.761 0 102 0Z" fill="url(#paint0_linear_15_11)"/>
<defs>
<linearGradient id="paint0_linear_15_11" x1="0" y1="0" x2="0" y2="32" gradientUnits="userSpaceOnUse">
<stop stop-color="#BBBBBB" stop-opacity="0.1"/>
<stop offset="1" stop-opacity="0.1"/>
</linearGradient>
</defs>
</svg>
