<svg width="107" height="32" viewBox="0 0 107 32" fill="none" xmlns="http://www.w3.org/2000/svg">
<path d="M102 0H31V32H102C104.761 32 107 29.7614 107 27V5C107 2.23858 104.761 0 102 0Z" fill="#0F1418"/>
<path d="M5 0.5H30.5V31.5H5C2.51472 31.5 0.5 29.4853 0.5 27V5C0.5 2.51472 2.51472 0.5 5 0.5Z" fill="white" stroke="#1C2125"/>
<path d="M43.8767 21V10.5H45.8867L50.3567 17.91H49.2917L53.6867 10.5H55.6817L55.7117 21H53.4317L53.4167 13.995H53.8367L50.3267 19.89H49.2317L45.6467 13.995H46.1567V21H43.8767ZM63.1679 21V19.425L63.0179 19.08V16.26C63.0179 15.76 62.8629 15.37 62.5529 15.09C62.2529 14.81 61.7879 14.67 61.1579 14.67C60.7279 14.67 60.3029 14.74 59.8829 14.88C59.4729 15.01 59.1229 15.19 58.8329 15.42L57.9929 13.785C58.4329 13.475 58.9629 13.235 59.5829 13.065C60.2029 12.895 60.8329 12.81 61.4729 12.81C62.7029 12.81 63.6579 13.1 64.3379 13.68C65.0179 14.26 65.3579 15.165 65.3579 16.395V21H63.1679ZM60.7079 21.12C60.0779 21.12 59.5379 21.015 59.0879 20.805C58.6379 20.585 58.2929 20.29 58.0529 19.92C57.8129 19.55 57.6929 19.135 57.6929 18.675C57.6929 18.195 57.8079 17.775 58.0379 17.415C58.2779 17.055 58.6529 16.775 59.1629 16.575C59.6729 16.365 60.3379 16.26 61.1579 16.26H63.3029V17.625H61.4129C60.8629 17.625 60.4829 17.715 60.2729 17.895C60.0729 18.075 59.9729 18.3 59.9729 18.57C59.9729 18.87 60.0879 19.11 60.3179 19.29C60.5579 19.46 60.8829 19.545 61.2929 19.545C61.6829 19.545 62.0329 19.455 62.3429 19.275C62.6529 19.085 62.8779 18.81 63.0179 18.45L63.3779 19.53C63.2079 20.05 62.8979 20.445 62.4479 20.715C61.9979 20.985 61.4179 21.12 60.7079 21.12ZM69.6992 21L66.3092 12.93H68.7242L71.5442 19.875H70.3442L73.2692 12.93H75.5192L72.1142 21H69.6992ZM80.4393 21.12C79.5193 21.12 78.7093 20.94 78.0093 20.58C77.3193 20.22 76.7843 19.73 76.4043 19.11C76.0243 18.48 75.8343 17.765 75.8343 16.965C75.8343 16.155 76.0193 15.44 76.3893 14.82C76.7693 14.19 77.2843 13.7 77.9343 13.35C78.5843 12.99 79.3193 12.81 80.1393 12.81C80.9293 12.81 81.6393 12.98 82.2693 13.32C82.9093 13.65 83.4143 14.13 83.7843 14.76C84.1543 15.38 84.3393 16.125 84.3393 16.995C84.3393 17.085 84.3343 17.19 84.3243 17.31C84.3143 17.42 84.3043 17.525 84.2943 17.625H77.7393V16.26H83.0643L82.1643 16.665C82.1643 16.245 82.0793 15.88 81.9093 15.57C81.7393 15.26 81.5043 15.02 81.2043 14.85C80.9043 14.67 80.5543 14.58 80.1543 14.58C79.7543 14.58 79.3993 14.67 79.0893 14.85C78.7893 15.02 78.5543 15.265 78.3843 15.585C78.2143 15.895 78.1293 16.265 78.1293 16.695V17.055C78.1293 17.495 78.2243 17.885 78.4143 18.225C78.6143 18.555 78.8893 18.81 79.2393 18.99C79.5993 19.16 80.0193 19.245 80.4993 19.245C80.9293 19.245 81.3043 19.18 81.6243 19.05C81.9543 18.92 82.2543 18.725 82.5243 18.465L83.7693 19.815C83.3993 20.235 82.9343 20.56 82.3743 20.79C81.8143 21.01 81.1693 21.12 80.4393 21.12ZM90.9822 12.81C91.6222 12.81 92.1922 12.94 92.6922 13.2C93.2022 13.45 93.6022 13.84 93.8922 14.37C94.1822 14.89 94.3272 15.56 94.3272 16.38V21H91.9872V16.74C91.9872 16.09 91.8422 15.61 91.5522 15.3C91.2722 14.99 90.8722 14.835 90.3522 14.835C89.9822 14.835 89.6472 14.915 89.3472 15.075C89.0572 15.225 88.8272 15.46 88.6572 15.78C88.4972 16.1 88.4172 16.51 88.4172 17.01V21H86.0772V12.93H88.3122V15.165L87.8922 14.49C88.1822 13.95 88.5972 13.535 89.1372 13.245C89.6772 12.955 90.2922 12.81 90.9822 12.81Z" fill="white"/>
<path d="M102 0H5C2.23858 0 0 2.23858 0 5V27C0 29.7614 2.23858 32 5 32H102C104.761 32 107 29.7614 107 27V5C107 2.23858 104.761 0 102 0Z" fill="url(#paint0_linear_15_62)"/>
<defs>
<linearGradient id="paint0_linear_15_62" x1="0" y1="0" x2="0" y2="32" gradientUnits="userSpaceOnUse">
<stop stop-color="#BBBBBB" stop-opacity="0.1"/>
<stop offset="1" stop-opacity="0.1"/>
</linearGradient>
</defs>
</svg>
