<svg width="88" height="32" viewBox="0 0 88 32" fill="none" xmlns="http://www.w3.org/2000/svg">
<path d="M83 0H31V32H83C85.7614 32 88 29.7614 88 27V5C88 2.23858 85.7614 0 83 0Z" fill="#0F1418"/>
<path d="M5 0.5H30.5V31.5H5C2.51472 31.5 0.5 29.4853 0.5 27V5C0.5 2.51472 2.51472 0.5 5 0.5Z" fill="white" stroke="#191E22"/>
<g clip-path="url(#clip0_18_179)">
<path d="M10.6125 10.5346L9.06131 8.9834L9.06787 20.1959L9.08644 20.72C9.09412 20.9665 9.13987 21.2448 9.21619 21.5331L21.5072 25.8672L24.5796 24.506L24.5807 24.5022L10.6125 10.5346Z" fill="#00D2B8"/>
<path d="M9.21628 21.5318L9.21703 21.5325C9.21628 21.5275 9.21365 21.5219 9.21365 21.5166C9.21365 21.5219 9.2144 21.5267 9.21628 21.5318ZM24.5797 24.5046L21.5073 25.8658L9.21703 21.5325C9.45178 22.4333 9.97153 23.4458 10.5308 23.9995L14.5418 27.9876L23.4603 27.9992L24.5808 24.5008L24.5797 24.5046Z" fill="#55DDCA"/>
<path d="M4.28445 16.199C3.88733 16.6229 4.08458 17.4974 4.72395 18.1416L7.48189 20.9225L9.21626 21.5331C9.13995 21.2448 9.0942 20.9665 9.08651 20.72L9.06795 20.1959L9.06139 8.9834L4.28445 16.199Z" fill="#0081C6"/>
<path d="M21.6081 9.12672C21.3197 9.05303 21.0431 9.00747 20.7924 8.99959L20.2386 8.98047L9.06131 8.98197L24.5822 24.5015H24.5835L25.9466 21.4262L21.6081 9.12672Z" fill="#0079B3"/>
<path d="M21.5941 9.12402C21.6001 9.12534 21.6047 9.12702 21.6087 9.12759L21.6081 9.12702C21.6047 9.12534 21.6001 9.12534 21.5941 9.12402ZM24.0736 10.4438C23.5103 9.8759 22.5111 9.35971 21.6087 9.12759L25.9467 21.4265L24.5836 24.5018H24.5822L27.9134 23.438L27.9205 14.3052L24.0736 10.4438Z" fill="#00A4E4"/>
<path d="M21.0004 7.40285L18.2203 4.64323C17.5774 4.00629 16.7025 3.8081 16.2797 4.2041L9.06131 8.98198L20.2386 8.98048L20.7924 8.9996C21.0431 9.00748 21.3197 9.05304 21.608 9.12673L21.0004 7.40285Z" fill="#00D2B8"/>
</g>
<path d="M43.0507 21V10.5H47.8207C48.9607 10.5 49.9657 10.72 50.8357 11.16C51.7057 11.59 52.3857 12.195 52.8757 12.975C53.3657 13.755 53.6107 14.68 53.6107 15.75C53.6107 16.81 53.3657 17.735 52.8757 18.525C52.3857 19.305 51.7057 19.915 50.8357 20.355C49.9657 20.785 48.9607 21 47.8207 21H43.0507ZM45.4807 19.005H47.7007C48.4007 19.005 49.0057 18.875 49.5157 18.615C50.0357 18.345 50.4357 17.965 50.7157 17.475C51.0057 16.985 51.1507 16.41 51.1507 15.75C51.1507 15.08 51.0057 14.505 50.7157 14.025C50.4357 13.535 50.0357 13.16 49.5157 12.9C49.0057 12.63 48.4007 12.495 47.7007 12.495H45.4807V19.005ZM60.4083 21V19.425L60.2583 19.08V16.26C60.2583 15.76 60.1033 15.37 59.7933 15.09C59.4933 14.81 59.0283 14.67 58.3983 14.67C57.9683 14.67 57.5433 14.74 57.1233 14.88C56.7133 15.01 56.3633 15.19 56.0733 15.42L55.2333 13.785C55.6733 13.475 56.2033 13.235 56.8233 13.065C57.4433 12.895 58.0733 12.81 58.7133 12.81C59.9433 12.81 60.8983 13.1 61.5783 13.68C62.2583 14.26 62.5983 15.165 62.5983 16.395V21H60.4083ZM57.9483 21.12C57.3183 21.12 56.7783 21.015 56.3283 20.805C55.8783 20.585 55.5333 20.29 55.2933 19.92C55.0533 19.55 54.9333 19.135 54.9333 18.675C54.9333 18.195 55.0483 17.775 55.2783 17.415C55.5183 17.055 55.8933 16.775 56.4033 16.575C56.9133 16.365 57.5783 16.26 58.3983 16.26H60.5433V17.625H58.6533C58.1033 17.625 57.7233 17.715 57.5133 17.895C57.3133 18.075 57.2133 18.3 57.2133 18.57C57.2133 18.87 57.3283 19.11 57.5583 19.29C57.7983 19.46 58.1233 19.545 58.5333 19.545C58.9233 19.545 59.2733 19.455 59.5833 19.275C59.8933 19.085 60.1183 18.81 60.2583 18.45L60.6183 19.53C60.4483 20.05 60.1383 20.445 59.6883 20.715C59.2383 20.985 58.6583 21.12 57.9483 21.12ZM64.8961 21V12.93H67.1311V15.21L66.8161 14.55C67.0561 13.98 67.4411 13.55 67.9711 13.26C68.5011 12.96 69.1461 12.81 69.9061 12.81V14.97C69.8061 14.96 69.7161 14.955 69.6361 14.955C69.5561 14.945 69.4711 14.94 69.3811 14.94C68.7411 14.94 68.2211 15.125 67.8211 15.495C67.4311 15.855 67.2361 16.42 67.2361 17.19V21H64.8961ZM75.0558 21.12C74.1058 21.12 73.3658 20.88 72.8358 20.4C72.3058 19.91 72.0408 19.185 72.0408 18.225V11.145H74.3808V18.195C74.3808 18.535 74.4708 18.8 74.6508 18.99C74.8308 19.17 75.0758 19.26 75.3858 19.26C75.7558 19.26 76.0708 19.16 76.3308 18.96L76.9608 20.61C76.7208 20.78 76.4308 20.91 76.0908 21C75.7608 21.08 75.4158 21.12 75.0558 21.12ZM70.7958 14.91V13.11H76.3908V14.91H70.7958Z" fill="white"/>
<path d="M83 0H5C2.23858 0 0 2.23858 0 5V27C0 29.7614 2.23858 32 5 32H83C85.7614 32 88 29.7614 88 27V5C88 2.23858 85.7614 0 83 0Z" fill="url(#paint0_linear_18_179)"/>
<defs>
<linearGradient id="paint0_linear_18_179" x1="0" y1="0" x2="0" y2="32" gradientUnits="userSpaceOnUse">
<stop stop-color="#BBBBBB" stop-opacity="0.1"/>
<stop offset="1" stop-opacity="0.1"/>
</linearGradient>
<clipPath id="clip0_18_179">
<rect width="24" height="24" fill="white" transform="translate(4 4)"/>
</clipPath>
</defs>
</svg>
