<svg width="89" height="32" viewBox="0 0 89 32" fill="none" xmlns="http://www.w3.org/2000/svg">
<g clip-path="url(#clip0_2_4223)">
<path d="M84 0H31V32H84C86.7614 32 89 29.7614 89 27V5C89 2.23858 86.7614 0 84 0Z" fill="#0F1418"/>
<path d="M5 0.5H30.5V31.5H5C2.51472 31.5 0.5 29.4853 0.5 27V5C0.5 2.51472 2.51472 0.5 5 0.5Z" fill="white" stroke="#151A1E"/>
<path d="M39.2156 18.6L39.0806 15.795L44.1056 10.5H46.8056L42.2756 15.375L40.9256 16.815L39.2156 18.6ZM37.0406 21V10.5H39.4556V21H37.0406ZM44.2256 21L40.4906 16.425L42.0806 14.7L47.0606 21H44.2256ZM51.6622 21.12C50.8022 21.12 50.0372 20.94 49.3672 20.58C48.7072 20.22 48.1822 19.73 47.7922 19.11C47.4122 18.48 47.2222 17.765 47.2222 16.965C47.2222 16.155 47.4122 15.44 47.7922 14.82C48.1822 14.19 48.7072 13.7 49.3672 13.35C50.0372 12.99 50.8022 12.81 51.6622 12.81C52.5122 12.81 53.2722 12.99 53.9422 13.35C54.6122 13.7 55.1372 14.185 55.5172 14.805C55.8972 15.425 56.0872 16.145 56.0872 16.965C56.0872 17.765 55.8972 18.48 55.5172 19.11C55.1372 19.73 54.6122 20.22 53.9422 20.58C53.2722 20.94 52.5122 21.12 51.6622 21.12ZM51.6622 19.2C52.0522 19.2 52.4022 19.11 52.7122 18.93C53.0222 18.75 53.2672 18.495 53.4472 18.165C53.6272 17.825 53.7172 17.425 53.7172 16.965C53.7172 16.495 53.6272 16.095 53.4472 15.765C53.2672 15.435 53.0222 15.18 52.7122 15C52.4022 14.82 52.0522 14.73 51.6622 14.73C51.2722 14.73 50.9222 14.82 50.6122 15C50.3022 15.18 50.0522 15.435 49.8622 15.765C49.6822 16.095 49.5922 16.495 49.5922 16.965C49.5922 17.425 49.6822 17.825 49.8622 18.165C50.0522 18.495 50.3022 18.75 50.6122 18.93C50.9222 19.11 51.2722 19.2 51.6622 19.2ZM61.1313 21.12C60.1813 21.12 59.4413 20.88 58.9113 20.4C58.3813 19.91 58.1163 19.185 58.1163 18.225V11.145H60.4563V18.195C60.4563 18.535 60.5463 18.8 60.7263 18.99C60.9063 19.17 61.1513 19.26 61.4613 19.26C61.8313 19.26 62.1463 19.16 62.4063 18.96L63.0363 20.61C62.7963 20.78 62.5063 20.91 62.1663 21C61.8363 21.08 61.4913 21.12 61.1313 21.12ZM56.8713 14.91V13.11H62.4663V14.91H56.8713ZM64.5299 21V9.87H66.8699V21H64.5299ZM69.2216 21V12.93H71.5616V21H69.2216ZM70.3916 11.805C69.9616 11.805 69.6116 11.68 69.3416 11.43C69.0716 11.18 68.9366 10.87 68.9366 10.5C68.9366 10.13 69.0716 9.82 69.3416 9.57C69.6116 9.32 69.9616 9.195 70.3916 9.195C70.8216 9.195 71.1716 9.315 71.4416 9.555C71.7116 9.785 71.8466 10.085 71.8466 10.455C71.8466 10.845 71.7116 11.17 71.4416 11.43C71.1816 11.68 70.8316 11.805 70.3916 11.805ZM78.8183 12.81C79.4583 12.81 80.0283 12.94 80.5283 13.2C81.0383 13.45 81.4383 13.84 81.7283 14.37C82.0183 14.89 82.1633 15.56 82.1633 16.38V21H79.8233V16.74C79.8233 16.09 79.6783 15.61 79.3883 15.3C79.1083 14.99 78.7083 14.835 78.1883 14.835C77.8183 14.835 77.4833 14.915 77.1833 15.075C76.8933 15.225 76.6633 15.46 76.4933 15.78C76.3333 16.1 76.2533 16.51 76.2533 17.01V21H73.9133V12.93H76.1483V15.165L75.7283 14.49C76.0183 13.95 76.4333 13.535 76.9733 13.245C77.5133 12.955 78.1283 12.81 78.8183 12.81Z" fill="white"/>
<path d="M84 0H5C2.23858 0 0 2.23858 0 5V27C0 29.7614 2.23857 32 5 32H84C86.7614 32 89 29.7614 89 27V5C89 2.23858 86.7614 0 84 0Z" fill="url(#paint0_linear_2_4223)"/>
<path d="M24.1667 26.8334H6.83334L15.5289 16.4656L24.1667 26.8334Z" fill="url(#paint1_linear_2_4223)"/>
<path d="M6.83334 17.3611V6.16663H15.5289L6.83334 17.3611Z" fill="url(#paint2_linear_2_4223)"/>
<path d="M6.83334 26.8333L15.5289 16.4655L24.1667 6.16663H15.5289L6.83334 17.0855V26.8333Z" fill="url(#paint3_linear_2_4223)"/>
</g>
<defs>
<linearGradient id="paint0_linear_2_4223" x1="0" y1="0" x2="0" y2="32" gradientUnits="userSpaceOnUse">
<stop stop-color="#BBBBBB" stop-opacity="0.1"/>
<stop offset="1" stop-opacity="0.1"/>
</linearGradient>
<linearGradient id="paint1_linear_2_4223" x1="11.4438" y1="31.6605" x2="21.0588" y2="23.5963" gradientUnits="userSpaceOnUse">
<stop offset="0.0968" stop-color="#0095D5"/>
<stop offset="0.3007" stop-color="#238AD9"/>
<stop offset="0.6211" stop-color="#557BDE"/>
<stop offset="0.8643" stop-color="#7472E2"/>
<stop offset="1" stop-color="#806EE3"/>
</linearGradient>
<linearGradient id="paint2_linear_2_4223" x1="8.04933" y1="10.3203" x2="13.6337" y2="5.63666" gradientUnits="userSpaceOnUse">
<stop offset="0.1183" stop-color="#0095D5"/>
<stop offset="0.4178" stop-color="#3C83DC"/>
<stop offset="0.6962" stop-color="#6D74E1"/>
<stop offset="0.8333" stop-color="#806EE3"/>
</linearGradient>
<linearGradient id="paint3_linear_2_4223" x1="3.91507" y1="25.1675" x2="22.8528" y2="9.28423" gradientUnits="userSpaceOnUse">
<stop offset="0.1075" stop-color="#C757BC"/>
<stop offset="0.2138" stop-color="#D0609A"/>
<stop offset="0.4254" stop-color="#E1725C"/>
<stop offset="0.6048" stop-color="#EE7E2F"/>
<stop offset="0.743" stop-color="#F58613"/>
<stop offset="0.8232" stop-color="#F88909"/>
</linearGradient>
<clipPath id="clip0_2_4223">
<rect width="89" height="32" fill="white"/>
</clipPath>
</defs>
</svg>
