<svg width="112" height="32" viewBox="0 0 112 32" fill="none" xmlns="http://www.w3.org/2000/svg">
<path d="M107 0H31V32H107C109.761 32 112 29.7614 112 27V5C112 2.23858 109.761 0 107 0Z" fill="#0F1418"/>
<path d="M31 0H5C2.23858 0 0 2.23858 0 5V27C0 29.7614 2.23858 32 5 32H31V0Z" fill="#1274A5"/>
<path d="M10.3632 14.1321L6.66627 8.45113C8.96962 5.58646 12.4247 4.00895 15.9571 3.99443C18.004 3.97992 20.0944 4.50253 21.9961 5.60097C24.0963 6.8204 25.6931 8.5721 26.7093 10.5851L16.7749 10.0625C13.9634 9.89798 11.2875 11.4803 10.3632 14.1321ZM11.9553 15.9951C11.9553 18.2307 13.765 20.0405 16.0007 20.0405C18.2363 20.0405 20.046 18.2307 20.046 15.9951C20.046 13.7595 18.2363 11.9497 16.0007 11.9497C13.765 11.9497 11.9553 13.7546 11.9553 15.9951ZM27.1932 11.6787L20.4332 12.0271C22.2671 14.1708 22.2962 17.2629 20.7525 19.634L15.328 27.9764C17.5782 28.0974 19.896 27.6038 21.9961 26.3844C27.1932 23.3842 29.2981 17.0935 27.1932 11.6787ZM10.4697 18.2984L5.95495 9.41892C4.72101 11.3061 4 13.5708 4 15.9951C4 21.9954 8.39379 26.965 14.1376 27.8457L17.2201 21.8067C14.4328 22.3293 11.7424 20.8002 10.4697 18.2984Z" fill="white"/>
<path d="M45.9211 21.18C45.1111 21.18 44.3561 21.05 43.6561 20.79C42.9661 20.52 42.3661 20.14 41.8561 19.65C41.3461 19.16 40.9461 18.585 40.6561 17.925C40.3761 17.265 40.2361 16.54 40.2361 15.75C40.2361 14.96 40.3761 14.235 40.6561 13.575C40.9461 12.915 41.3461 12.34 41.8561 11.85C42.3761 11.36 42.9811 10.985 43.6711 10.725C44.3611 10.455 45.1161 10.32 45.9361 10.32C46.8461 10.32 47.6661 10.48 48.3961 10.8C49.1361 11.11 49.7561 11.57 50.2561 12.18L48.6961 13.62C48.3361 13.21 47.9361 12.905 47.4961 12.705C47.0561 12.495 46.5761 12.39 46.0561 12.39C45.5661 12.39 45.1161 12.47 44.7061 12.63C44.2961 12.79 43.9411 13.02 43.6411 13.32C43.3411 13.62 43.1061 13.975 42.9361 14.385C42.7761 14.795 42.6961 15.25 42.6961 15.75C42.6961 16.25 42.7761 16.705 42.9361 17.115C43.1061 17.525 43.3411 17.88 43.6411 18.18C43.9411 18.48 44.2961 18.71 44.7061 18.87C45.1161 19.03 45.5661 19.11 46.0561 19.11C46.5761 19.11 47.0561 19.01 47.4961 18.81C47.9361 18.6 48.3361 18.285 48.6961 17.865L50.2561 19.305C49.7561 19.915 49.1361 20.38 48.3961 20.7C47.6661 21.02 46.8411 21.18 45.9211 21.18ZM56.8171 12.81C57.4571 12.81 58.0271 12.94 58.5271 13.2C59.0371 13.45 59.4371 13.84 59.7271 14.37C60.0171 14.89 60.1621 15.56 60.1621 16.38V21H57.8221V16.74C57.8221 16.09 57.6771 15.61 57.3871 15.3C57.1071 14.99 56.7071 14.835 56.1871 14.835C55.8171 14.835 55.4821 14.915 55.1821 15.075C54.8921 15.225 54.6621 15.46 54.4921 15.78C54.3321 16.1 54.2521 16.51 54.2521 17.01V21H51.9121V9.87H54.2521V15.165L53.7271 14.49C54.0171 13.95 54.4321 13.535 54.9721 13.245C55.5121 12.955 56.1271 12.81 56.8171 12.81ZM62.4631 21V12.93H64.6981V15.21L64.3831 14.55C64.6231 13.98 65.0081 13.55 65.5381 13.26C66.0681 12.96 66.7131 12.81 67.4731 12.81V14.97C67.3731 14.96 67.2831 14.955 67.2031 14.955C67.1231 14.945 67.0381 14.94 66.9481 14.94C66.3081 14.94 65.7881 15.125 65.3881 15.495C64.9981 15.855 64.8031 16.42 64.8031 17.19V21H62.4631ZM72.8259 21.12C71.9659 21.12 71.2009 20.94 70.5309 20.58C69.8709 20.22 69.3459 19.73 68.9559 19.11C68.5759 18.48 68.3859 17.765 68.3859 16.965C68.3859 16.155 68.5759 15.44 68.9559 14.82C69.3459 14.19 69.8709 13.7 70.5309 13.35C71.2009 12.99 71.9659 12.81 72.8259 12.81C73.6759 12.81 74.4359 12.99 75.1059 13.35C75.7759 13.7 76.3009 14.185 76.6809 14.805C77.0609 15.425 77.2509 16.145 77.2509 16.965C77.2509 17.765 77.0609 18.48 76.6809 19.11C76.3009 19.73 75.7759 20.22 75.1059 20.58C74.4359 20.94 73.6759 21.12 72.8259 21.12ZM72.8259 19.2C73.2159 19.2 73.5659 19.11 73.8759 18.93C74.1859 18.75 74.4309 18.495 74.6109 18.165C74.7909 17.825 74.8809 17.425 74.8809 16.965C74.8809 16.495 74.7909 16.095 74.6109 15.765C74.4309 15.435 74.1859 15.18 73.8759 15C73.5659 14.82 73.2159 14.73 72.8259 14.73C72.4359 14.73 72.0859 14.82 71.7759 15C71.4659 15.18 71.2159 15.435 71.0259 15.765C70.8459 16.095 70.7559 16.495 70.7559 16.965C70.7559 17.425 70.8459 17.825 71.0259 18.165C71.2159 18.495 71.4659 18.75 71.7759 18.93C72.0859 19.11 72.4359 19.2 72.8259 19.2ZM89.33 12.81C89.97 12.81 90.535 12.94 91.025 13.2C91.525 13.45 91.915 13.84 92.195 14.37C92.485 14.89 92.63 15.56 92.63 16.38V21H90.29V16.74C90.29 16.09 90.155 15.61 89.885 15.3C89.615 14.99 89.235 14.835 88.745 14.835C88.405 14.835 88.1 14.915 87.83 15.075C87.56 15.225 87.35 15.455 87.2 15.765C87.05 16.075 86.975 16.47 86.975 16.95V21H84.635V16.74C84.635 16.09 84.5 15.61 84.23 15.3C83.97 14.99 83.595 14.835 83.105 14.835C82.765 14.835 82.46 14.915 82.19 15.075C81.92 15.225 81.71 15.455 81.56 15.765C81.41 16.075 81.335 16.47 81.335 16.95V21H78.995V12.93H81.23V15.135L80.81 14.49C81.09 13.94 81.485 13.525 81.995 13.245C82.515 12.955 83.105 12.81 83.765 12.81C84.505 12.81 85.15 13 85.7 13.38C86.26 13.75 86.63 14.32 86.81 15.09L85.985 14.865C86.255 14.235 86.685 13.735 87.275 13.365C87.875 12.995 88.56 12.81 89.33 12.81ZM98.971 21.12C98.051 21.12 97.241 20.94 96.541 20.58C95.851 20.22 95.316 19.73 94.936 19.11C94.556 18.48 94.366 17.765 94.366 16.965C94.366 16.155 94.551 15.44 94.921 14.82C95.301 14.19 95.816 13.7 96.466 13.35C97.116 12.99 97.851 12.81 98.671 12.81C99.461 12.81 100.171 12.98 100.801 13.32C101.441 13.65 101.946 14.13 102.316 14.76C102.686 15.38 102.871 16.125 102.871 16.995C102.871 17.085 102.866 17.19 102.856 17.31C102.846 17.42 102.836 17.525 102.826 17.625H96.271V16.26H101.596L100.696 16.665C100.696 16.245 100.611 15.88 100.441 15.57C100.271 15.26 100.036 15.02 99.736 14.85C99.436 14.67 99.086 14.58 98.686 14.58C98.286 14.58 97.931 14.67 97.621 14.85C97.321 15.02 97.086 15.265 96.916 15.585C96.746 15.895 96.661 16.265 96.661 16.695V17.055C96.661 17.495 96.756 17.885 96.946 18.225C97.146 18.555 97.421 18.81 97.771 18.99C98.131 19.16 98.551 19.245 99.031 19.245C99.461 19.245 99.836 19.18 100.156 19.05C100.486 18.92 100.786 18.725 101.056 18.465L102.301 19.815C101.931 20.235 101.466 20.56 100.906 20.79C100.346 21.01 99.701 21.12 98.971 21.12Z" fill="white"/>
<path d="M107 0H5C2.23858 0 0 2.23858 0 5V27C0 29.7614 2.23858 32 5 32H107C109.761 32 112 29.7614 112 27V5C112 2.23858 109.761 0 107 0Z" fill="url(#paint0_linear_14_906)"/>
<defs>
<linearGradient id="paint0_linear_14_906" x1="0" y1="0" x2="0" y2="32" gradientUnits="userSpaceOnUse">
<stop stop-color="#BBBBBB" stop-opacity="0.1"/>
<stop offset="1" stop-opacity="0.1"/>
</linearGradient>
</defs>
</svg>
