<svg width="91" height="32" viewBox="0 0 91 32" fill="none" xmlns="http://www.w3.org/2000/svg">
<path d="M86 0H31V32H86C88.7614 32 91 29.7614 91 27V5C91 2.23858 88.7614 0 86 0Z" fill="#0F1418"/>
<path d="M31 0H5C2.23858 0 0 2.23858 0 5V27C0 29.7614 2.23858 32 5 32H31V0Z" fill="#1274A5"/>
<path d="M26.0255 10.1198C24.0393 6.23443 19.7519 4 15.09 4C9.3389 4 4.52263 8.04887 3.35945 13.4671C4.61747 11.2176 7.53122 9.63785 10.5911 9.63785C14.4266 9.63785 16.4501 12.0053 16.5062 12.0658C17.5707 13.2174 18.1029 14.5039 18.1029 16.0866C18.1029 16.5898 17.846 17.3359 17.3718 17.9528C17.2958 18.0496 17.0626 18.187 17.0626 18.4851C17.0626 18.7299 17.2218 18.9651 17.5049 19.1625C18.8529 20.0997 21.3936 19.9758 21.4004 19.9758C22.3986 19.9731 23.3779 19.7028 24.2362 19.193C25.1025 18.6871 25.8214 17.9636 26.3217 17.0941C26.8221 16.2247 27.0864 15.2395 27.0885 14.2364C27.1127 12.135 26.3386 10.7381 26.0255 10.1198ZM13.0026 26.6283C12.1053 26.0698 11.3362 25.3278 10.7459 24.451C9.15213 22.1566 9.08923 19.8254 9.77339 17.8706C10.2599 16.3356 11.2261 14.9971 12.5299 14.052C15.3846 11.865 17.1188 13.7787 17.3229 14.0036C17.2557 13.8347 17.1766 13.6708 17.0863 13.513C16.6393 12.7422 15.9251 11.7513 14.3497 10.9239C12.7181 10.068 10.9342 10.0244 10.593 10.0244C8.72005 10.0244 6.82383 10.6535 5.39018 11.7513C4.43409 12.4819 3.32558 13.7119 3.12381 15.3705C3.07156 15.9661 2.99075 18.4091 4.23667 21.093C5.28755 23.3351 7.00632 25.1972 9.15725 26.424C11.3082 27.6507 13.7859 28.1819 16.2507 27.9449C14.4063 27.6246 13.0646 26.6559 13.0026 26.6283ZM25.1338 21.8706C25.0768 21.8345 25.0111 21.8144 24.9437 21.8124C24.8763 21.8105 24.8095 21.8267 24.7506 21.8595C24.4307 22.0267 24.1009 22.1741 23.763 22.3007C22.6868 22.7033 21.5468 22.9085 20.3978 22.9065C15.9623 22.9065 12.0988 19.8554 12.0988 15.9391C12.1041 15.4892 12.212 15.0466 12.4143 14.6447C11.6422 15.3257 11.0059 16.1466 10.5388 17.064C9.81694 18.4851 8.94214 21.3282 11.1838 24.4021C11.4988 24.8332 12.2967 25.8537 13.8934 26.7086C15.0338 27.3207 16.2643 27.6575 17.3626 27.6575C19.0629 27.6575 22.9477 26.0395 25.2494 22.3898C25.276 22.3481 25.2942 22.3016 25.3028 22.253C25.3114 22.2043 25.3103 22.1544 25.2996 22.1061C25.2888 22.0579 25.2686 22.0122 25.2402 21.9718C25.2117 21.9314 25.1756 21.897 25.1338 21.8706Z" fill="white"/>
<path d="M44.0245 14.73H49.0795V16.62H44.0245V14.73ZM44.2045 19.05H49.9195V21H41.7895V10.5H49.7245V12.45H44.2045V19.05ZM55.289 21.12C54.529 21.12 53.844 20.95 53.234 20.61C52.624 20.26 52.139 19.775 51.779 19.155C51.429 18.535 51.254 17.805 51.254 16.965C51.254 16.115 51.429 15.38 51.779 14.76C52.139 14.14 52.624 13.66 53.234 13.32C53.844 12.98 54.529 12.81 55.289 12.81C55.969 12.81 56.564 12.96 57.074 13.26C57.584 13.56 57.979 14.015 58.259 14.625C58.539 15.235 58.679 16.015 58.679 16.965C58.679 17.905 58.544 18.685 58.274 19.305C58.004 19.915 57.614 20.37 57.104 20.67C56.604 20.97 55.999 21.12 55.289 21.12ZM55.694 19.2C56.074 19.2 56.419 19.11 56.729 18.93C57.039 18.75 57.284 18.495 57.464 18.165C57.654 17.825 57.749 17.425 57.749 16.965C57.749 16.495 57.654 16.095 57.464 15.765C57.284 15.435 57.039 15.18 56.729 15C56.419 14.82 56.074 14.73 55.694 14.73C55.304 14.73 54.954 14.82 54.644 15C54.334 15.18 54.084 15.435 53.894 15.765C53.714 16.095 53.624 16.495 53.624 16.965C53.624 17.425 53.714 17.825 53.894 18.165C54.084 18.495 54.334 18.75 54.644 18.93C54.954 19.11 55.304 19.2 55.694 19.2ZM57.809 21V19.35L57.854 16.95L57.704 14.565V9.87H60.044V21H57.809ZM66.1847 24.03C65.4247 24.03 64.6897 23.935 63.9797 23.745C63.2797 23.565 62.6947 23.29 62.2247 22.92L63.1547 21.24C63.4947 21.52 63.9247 21.74 64.4447 21.9C64.9747 22.07 65.4947 22.155 66.0047 22.155C66.8347 22.155 67.4347 21.97 67.8047 21.6C68.1847 21.23 68.3747 20.68 68.3747 19.95V18.735L68.5247 16.71L68.4947 14.67V12.93H70.7147V19.65C70.7147 21.15 70.3247 22.255 69.5447 22.965C68.7647 23.675 67.6447 24.03 66.1847 24.03ZM65.8247 20.61C65.0747 20.61 64.3947 20.45 63.7847 20.13C63.1847 19.8 62.6997 19.345 62.3297 18.765C61.9697 18.175 61.7897 17.49 61.7897 16.71C61.7897 15.92 61.9697 15.235 62.3297 14.655C62.6997 14.065 63.1847 13.61 63.7847 13.29C64.3947 12.97 65.0747 12.81 65.8247 12.81C66.5047 12.81 67.1047 12.95 67.6247 13.23C68.1447 13.5 68.5497 13.925 68.8397 14.505C69.1297 15.075 69.2747 15.81 69.2747 16.71C69.2747 17.6 69.1297 18.335 68.8397 18.915C68.5497 19.485 68.1447 19.91 67.6247 20.19C67.1047 20.47 66.5047 20.61 65.8247 20.61ZM66.2897 18.69C66.6997 18.69 67.0647 18.61 67.3847 18.45C67.7047 18.28 67.9547 18.045 68.1347 17.745C68.3147 17.445 68.4047 17.1 68.4047 16.71C68.4047 16.31 68.3147 15.965 68.1347 15.675C67.9547 15.375 67.7047 15.145 67.3847 14.985C67.0647 14.815 66.6997 14.73 66.2897 14.73C65.8797 14.73 65.5147 14.815 65.1947 14.985C64.8747 15.145 64.6197 15.375 64.4297 15.675C64.2497 15.965 64.1597 16.31 64.1597 16.71C64.1597 17.1 64.2497 17.445 64.4297 17.745C64.6197 18.045 64.8747 18.28 65.1947 18.45C65.5147 18.61 65.8797 18.69 66.2897 18.69ZM77.0777 21.12C76.1577 21.12 75.3477 20.94 74.6477 20.58C73.9577 20.22 73.4227 19.73 73.0427 19.11C72.6627 18.48 72.4727 17.765 72.4727 16.965C72.4727 16.155 72.6577 15.44 73.0277 14.82C73.4077 14.19 73.9227 13.7 74.5727 13.35C75.2227 12.99 75.9577 12.81 76.7777 12.81C77.5677 12.81 78.2777 12.98 78.9077 13.32C79.5477 13.65 80.0527 14.13 80.4227 14.76C80.7927 15.38 80.9777 16.125 80.9777 16.995C80.9777 17.085 80.9727 17.19 80.9627 17.31C80.9527 17.42 80.9427 17.525 80.9327 17.625H74.3777V16.26H79.7027L78.8027 16.665C78.8027 16.245 78.7177 15.88 78.5477 15.57C78.3777 15.26 78.1427 15.02 77.8427 14.85C77.5427 14.67 77.1927 14.58 76.7927 14.58C76.3927 14.58 76.0377 14.67 75.7277 14.85C75.4277 15.02 75.1927 15.265 75.0227 15.585C74.8527 15.895 74.7677 16.265 74.7677 16.695V17.055C74.7677 17.495 74.8627 17.885 75.0527 18.225C75.2527 18.555 75.5277 18.81 75.8777 18.99C76.2377 19.16 76.6577 19.245 77.1377 19.245C77.5677 19.245 77.9427 19.18 78.2627 19.05C78.5927 18.92 78.8927 18.725 79.1627 18.465L80.4077 19.815C80.0377 20.235 79.5727 20.56 79.0127 20.79C78.4527 21.01 77.8077 21.12 77.0777 21.12Z" fill="white"/>
<path d="M86 0H5C2.23858 0 0 2.23858 0 5V27C0 29.7614 2.23858 32 5 32H86C88.7614 32 91 29.7614 91 27V5C91 2.23858 88.7614 0 86 0Z" fill="url(#paint0_linear_14_913)"/>
<defs>
<linearGradient id="paint0_linear_14_913" x1="0" y1="0" x2="0" y2="32" gradientUnits="userSpaceOnUse">
<stop stop-color="#BBBBBB" stop-opacity="0.1"/>
<stop offset="1" stop-opacity="0.1"/>
</linearGradient>
</defs>
</svg>
