<svg width="106" height="32" viewBox="0 0 106 32" fill="none" xmlns="http://www.w3.org/2000/svg">
<path d="M101 0H31V32H101C103.761 32 106 29.7614 106 27V5C106 2.23858 103.761 0 101 0Z" fill="#0F1418"/>
<path d="M31 0H5C2.23858 0 0 2.23858 0 5V27C0 29.7614 2.23858 32 5 32H31V0Z" fill="#1274A5"/>
<path d="M27.0359 14.8117C27.03 14.7362 27.0242 14.6607 27.0242 14.5852V14.5794L27.0068 14.3529V14.3471C26.9455 13.6745 26.827 13.0083 26.6526 12.3558C26.6526 12.35 26.6526 12.35 26.6468 12.3441L26.5945 12.1506C26.5887 12.139 26.5887 12.1273 26.5829 12.1215C26.5655 12.0635 26.5481 11.9996 26.5306 11.9415C26.5248 11.9299 26.5248 11.9125 26.519 11.9009C26.5016 11.8428 26.4842 11.7847 26.4668 11.7325C26.4609 11.715 26.4551 11.7034 26.4493 11.6841C26.4319 11.626 26.4145 11.5737 26.3913 11.5157L26.3738 11.4634C26.3564 11.4111 26.3332 11.3531 26.3158 11.3008C26.311 11.2843 26.3052 11.2681 26.2983 11.2524C26.2751 11.2001 26.2577 11.1421 26.2345 11.0898C26.2287 11.0782 26.2229 11.0608 26.217 11.0492C26.1938 10.9911 26.1687 10.9388 26.1474 10.8807C26.1474 10.8749 26.1416 10.8691 26.1416 10.8633C26.0661 10.6775 25.9848 10.4917 25.8996 10.3116L25.8822 10.2768C25.8589 10.2284 25.8415 10.1897 25.8183 10.149C25.8067 10.1258 25.7951 10.0968 25.7834 10.0736C25.766 10.0329 25.7428 9.99806 25.7254 9.95741C25.708 9.92837 25.6963 9.89934 25.677 9.8703C25.6576 9.84127 25.6363 9.80062 25.6189 9.75997C25.6015 9.73093 25.5841 9.69609 25.5666 9.66705C25.5492 9.63802 25.526 9.59737 25.5086 9.56252C25.4913 9.52904 25.4719 9.49671 25.4505 9.46574C25.4331 9.43089 25.4099 9.40186 25.3924 9.36895C25.375 9.33604 25.3518 9.30507 25.3344 9.27217C25.3169 9.23926 25.2937 9.20829 25.2763 9.17925C25.2589 9.15022 25.2356 9.10957 25.2124 9.07472C25.1951 9.04438 25.1757 9.01528 25.1543 8.98762L25.0847 8.88454C25.0673 8.8542 25.0479 8.82509 25.0266 8.79743C25.0034 8.76259 24.9743 8.72194 24.9511 8.6871C24.9337 8.66387 24.9162 8.63483 24.8988 8.6116L24.8117 8.48965C24.7943 8.46642 24.7827 8.449 24.7633 8.42577C24.7149 8.3619 24.6762 8.30382 24.6298 8.24575C24.2817 7.78946 23.9015 7.35863 23.492 6.95657C23.2152 6.6679 22.9195 6.39792 22.6069 6.14841C22.4134 5.98 22.2121 5.82321 22.003 5.67222C21.6287 5.39348 21.2303 5.14861 20.8125 4.94052C20.6964 4.87664 20.5802 4.81857 20.4641 4.7605C19.6096 4.34223 18.7094 4.02458 17.7817 3.81393C17.6888 3.79651 17.5959 3.77328 17.5087 3.75586H17.5029C17.4545 3.75006 17.4158 3.73844 17.3694 3.73263C16.7626 3.61859 16.1476 3.55385 15.5304 3.53906H15.016C14.2763 3.54782 13.5391 3.62886 12.8151 3.78103C11.1896 4.12365 9.75524 4.80889 8.80287 5.66835C8.75061 5.71674 8.70996 5.74965 8.68673 5.77288L8.6635 5.79611H8.66979L8.66398 5.80191L8.66979 5.79611C8.67133 5.79611 8.67281 5.79549 8.6739 5.7944C8.67499 5.79332 8.6756 5.79184 8.6756 5.7903L8.66979 5.79611C8.67292 5.79295 8.677 5.79091 8.68141 5.7903C9.38988 5.36638 10.3713 5.01601 11.0739 4.84373L11.3585 4.77405C11.3759 4.76824 11.3991 4.76824 11.4166 4.76243C11.4979 4.74501 11.5792 4.72759 11.6663 4.71017C11.6779 4.71017 11.6953 4.70436 11.7069 4.70436C14.8128 4.13913 18.1229 5.06828 20.4293 7.2687C20.9267 7.74134 21.3637 8.27385 21.7301 8.85405C23.1993 11.235 23.0599 14.231 21.9159 15.9964C20.2492 18.5612 16.5273 19.4453 14.2214 17.1984C13.4476 16.4478 13.0028 15.4211 12.9845 14.3433C12.976 13.8273 13.079 13.3156 13.2865 12.8431C13.3678 12.6572 13.9194 11.6008 14.1692 11.6531C13.5362 11.5195 12.352 11.7809 11.5216 13.0173C10.7783 14.1265 10.8189 15.8338 11.2796 17.0474C10.9869 16.4487 10.789 15.8081 10.6931 15.1485C10.1008 11.1537 12.789 7.7444 15.257 6.89704C13.9272 5.73561 10.5886 5.8174 8.10892 7.64036C6.66294 8.705 5.62975 10.2129 5.08388 12.0131C5.16518 11.0027 5.54845 9.49284 6.33242 7.95394C5.50199 8.38367 4.44509 9.74448 3.92245 10.9969C3.16752 12.8082 2.9062 14.9743 3.14429 17.0358C3.16171 17.1926 3.17914 17.3436 3.19656 17.5004C4.16054 23.1677 9.10049 27.4877 15.0422 27.4877C21.6763 27.4877 27.0591 22.105 27.0591 15.466C27.0533 15.2472 27.0475 15.0266 27.0359 14.8117Z" fill="white"/>
<path d="M44.4067 15.225H49.4467V17.175H44.4067V15.225ZM44.5867 21H42.1567V10.5H50.0917V12.45H44.5867V21ZM51.7517 21V12.93H54.0917V21H51.7517ZM52.9217 11.805C52.4917 11.805 52.1417 11.68 51.8717 11.43C51.6017 11.18 51.4667 10.87 51.4667 10.5C51.4667 10.13 51.6017 9.82 51.8717 9.57C52.1417 9.32 52.4917 9.195 52.9217 9.195C53.3517 9.195 53.7017 9.315 53.9717 9.555C54.2417 9.785 54.3767 10.085 54.3767 10.455C54.3767 10.845 54.2417 11.17 53.9717 11.43C53.7117 11.68 53.3617 11.805 52.9217 11.805ZM56.4435 21V12.93H58.6785V15.21L58.3635 14.55C58.6035 13.98 58.9885 13.55 59.5185 13.26C60.0485 12.96 60.6935 12.81 61.4535 12.81V14.97C61.3535 14.96 61.2635 14.955 61.1835 14.955C61.1035 14.945 61.0185 14.94 60.9285 14.94C60.2885 14.94 59.7685 15.125 59.3685 15.495C58.9785 15.855 58.7835 16.42 58.7835 17.19V21H56.4435ZM66.9712 21.12C66.0512 21.12 65.2412 20.94 64.5412 20.58C63.8512 20.22 63.3162 19.73 62.9362 19.11C62.5562 18.48 62.3662 17.765 62.3662 16.965C62.3662 16.155 62.5512 15.44 62.9212 14.82C63.3012 14.19 63.8162 13.7 64.4662 13.35C65.1162 12.99 65.8512 12.81 66.6712 12.81C67.4612 12.81 68.1712 12.98 68.8012 13.32C69.4412 13.65 69.9462 14.13 70.3162 14.76C70.6862 15.38 70.8712 16.125 70.8712 16.995C70.8712 17.085 70.8662 17.19 70.8562 17.31C70.8462 17.42 70.8362 17.525 70.8262 17.625H64.2712V16.26H69.5962L68.6962 16.665C68.6962 16.245 68.6112 15.88 68.4412 15.57C68.2712 15.26 68.0362 15.02 67.7362 14.85C67.4362 14.67 67.0862 14.58 66.6862 14.58C66.2862 14.58 65.9312 14.67 65.6212 14.85C65.3212 15.02 65.0862 15.265 64.9162 15.585C64.7462 15.895 64.6612 16.265 64.6612 16.695V17.055C64.6612 17.495 64.7562 17.885 64.9462 18.225C65.1462 18.555 65.4212 18.81 65.7712 18.99C66.1312 19.16 66.5512 19.245 67.0312 19.245C67.4612 19.245 67.8362 19.18 68.1562 19.05C68.4862 18.92 68.7862 18.725 69.0562 18.465L70.3012 19.815C69.9312 20.235 69.4662 20.56 68.9062 20.79C68.3462 21.01 67.7012 21.12 66.9712 21.12ZM72.8941 21V12.75C72.8941 11.84 73.1641 11.115 73.7041 10.575C74.2441 10.025 75.0141 9.75 76.0141 9.75C76.3541 9.75 76.6791 9.785 76.9891 9.855C77.3091 9.925 77.5791 10.035 77.7991 10.185L77.1841 11.88C77.0541 11.79 76.9091 11.72 76.7491 11.67C76.5891 11.62 76.4191 11.595 76.2391 11.595C75.8991 11.595 75.6341 11.695 75.4441 11.895C75.2641 12.085 75.1741 12.375 75.1741 12.765V13.515L75.2341 14.52V21H72.8941ZM71.6491 14.91V13.11H77.2441V14.91H71.6491ZM82.3274 21.12C81.4674 21.12 80.7024 20.94 80.0324 20.58C79.3724 20.22 78.8474 19.73 78.4574 19.11C78.0774 18.48 77.8874 17.765 77.8874 16.965C77.8874 16.155 78.0774 15.44 78.4574 14.82C78.8474 14.19 79.3724 13.7 80.0324 13.35C80.7024 12.99 81.4674 12.81 82.3274 12.81C83.1774 12.81 83.9374 12.99 84.6074 13.35C85.2774 13.7 85.8024 14.185 86.1824 14.805C86.5624 15.425 86.7524 16.145 86.7524 16.965C86.7524 17.765 86.5624 18.48 86.1824 19.11C85.8024 19.73 85.2774 20.22 84.6074 20.58C83.9374 20.94 83.1774 21.12 82.3274 21.12ZM82.3274 19.2C82.7174 19.2 83.0674 19.11 83.3774 18.93C83.6874 18.75 83.9324 18.495 84.1124 18.165C84.2924 17.825 84.3824 17.425 84.3824 16.965C84.3824 16.495 84.2924 16.095 84.1124 15.765C83.9324 15.435 83.6874 15.18 83.3774 15C83.0674 14.82 82.7174 14.73 82.3274 14.73C81.9374 14.73 81.5874 14.82 81.2774 15C80.9674 15.18 80.7174 15.435 80.5274 15.765C80.3474 16.095 80.2574 16.495 80.2574 16.965C80.2574 17.425 80.3474 17.825 80.5274 18.165C80.7174 18.495 80.9674 18.75 81.2774 18.93C81.5874 19.11 81.9374 19.2 82.3274 19.2ZM87.2274 21L90.8424 16.26L90.7974 17.55L87.3324 12.93H89.9574L92.1474 15.945L91.1574 15.975L93.4224 12.93H95.9124L92.4324 17.505V16.245L96.0324 21H93.3774L91.0824 17.79L92.0574 17.925L89.7774 21H87.2274Z" fill="white"/>
<path d="M101 0H5C2.23858 0 0 2.23858 0 5V27C0 29.7614 2.23858 32 5 32H101C103.761 32 106 29.7614 106 27V5C106 2.23858 103.761 0 101 0Z" fill="url(#paint0_linear_14_920)"/>
<defs>
<linearGradient id="paint0_linear_14_920" x1="0" y1="0" x2="0" y2="32" gradientUnits="userSpaceOnUse">
<stop stop-color="#BBBBBB" stop-opacity="0.1"/>
<stop offset="1" stop-opacity="0.1"/>
</linearGradient>
</defs>
</svg>
