<svg width="106" height="32" viewBox="0 0 106 32" fill="none" xmlns="http://www.w3.org/2000/svg">
<path d="M101 0H31V32H101C103.761 32 106 29.7614 106 27V5C106 2.23858 103.761 0 101 0Z" fill="#0F1418"/>
<path d="M31 0H5C2.23858 0 0 2.23858 0 5V27C0 29.7614 2.23858 32 5 32H31V0Z" fill="#613079"/>
<path d="M20.75 4H10.25C9.00781 4 8 5.00781 8 6.25V25.75C8 26.9922 9.00781 28 10.25 28H20.75C21.9922 28 23 26.9922 23 25.75V6.25C23 5.00781 21.9922 4 20.75 4ZM15.5 26.5C14.6703 26.5 14 25.8297 14 25C14 24.1703 14.6703 23.5 15.5 23.5C16.3297 23.5 17 24.1703 17 25C17 25.8297 16.3297 26.5 15.5 26.5Z" fill="white"/>
<path d="M42.796 21V10.5H44.806L49.276 17.91H48.211L52.606 10.5H54.601L54.631 21H52.351L52.336 13.995H52.756L49.246 19.89H48.151L44.566 13.995H45.076V21H42.796ZM60.9771 21.12C60.1171 21.12 59.3521 20.94 58.6821 20.58C58.0221 20.22 57.4971 19.73 57.1071 19.11C56.7271 18.48 56.5371 17.765 56.5371 16.965C56.5371 16.155 56.7271 15.44 57.1071 14.82C57.4971 14.19 58.0221 13.7 58.6821 13.35C59.3521 12.99 60.1171 12.81 60.9771 12.81C61.8271 12.81 62.5871 12.99 63.2571 13.35C63.9271 13.7 64.4521 14.185 64.8321 14.805C65.2121 15.425 65.4021 16.145 65.4021 16.965C65.4021 17.765 65.2121 18.48 64.8321 19.11C64.4521 19.73 63.9271 20.22 63.2571 20.58C62.5871 20.94 61.8271 21.12 60.9771 21.12ZM60.9771 19.2C61.3671 19.2 61.7171 19.11 62.0271 18.93C62.3371 18.75 62.5821 18.495 62.7621 18.165C62.9421 17.825 63.0321 17.425 63.0321 16.965C63.0321 16.495 62.9421 16.095 62.7621 15.765C62.5821 15.435 62.3371 15.18 62.0271 15C61.7171 14.82 61.3671 14.73 60.9771 14.73C60.5871 14.73 60.2371 14.82 59.9271 15C59.6171 15.18 59.3671 15.435 59.1771 15.765C58.9971 16.095 58.9071 16.495 58.9071 16.965C58.9071 17.425 58.9971 17.825 59.1771 18.165C59.3671 18.495 59.6171 18.75 59.9271 18.93C60.2371 19.11 60.5871 19.2 60.9771 19.2ZM71.9163 21.12C71.2062 21.12 70.5962 20.97 70.0862 20.67C69.5762 20.37 69.1862 19.915 68.9163 19.305C68.6462 18.685 68.5112 17.905 68.5112 16.965C68.5112 16.015 68.6512 15.235 68.9313 14.625C69.2213 14.015 69.6213 13.56 70.1313 13.26C70.6413 12.96 71.2363 12.81 71.9163 12.81C72.6763 12.81 73.3563 12.98 73.9563 13.32C74.5663 13.66 75.0463 14.14 75.3963 14.76C75.7563 15.38 75.9363 16.115 75.9363 16.965C75.9363 17.805 75.7563 18.535 75.3963 19.155C75.0463 19.775 74.5663 20.26 73.9563 20.61C73.3563 20.95 72.6763 21.12 71.9163 21.12ZM67.1462 21V9.87H69.4863V14.565L69.3362 16.95L69.3813 19.35V21H67.1462ZM71.5112 19.2C71.9012 19.2 72.2463 19.11 72.5463 18.93C72.8563 18.75 73.1013 18.495 73.2813 18.165C73.4713 17.825 73.5662 17.425 73.5662 16.965C73.5662 16.495 73.4713 16.095 73.2813 15.765C73.1013 15.435 72.8563 15.18 72.5463 15C72.2463 14.82 71.9012 14.73 71.5112 14.73C71.1212 14.73 70.7712 14.82 70.4613 15C70.1513 15.18 69.9063 15.435 69.7263 15.765C69.5463 16.095 69.4563 16.495 69.4563 16.965C69.4563 17.425 69.5463 17.825 69.7263 18.165C69.9063 18.495 70.1513 18.75 70.4613 18.93C70.7712 19.11 71.1212 19.2 71.5112 19.2ZM77.6827 21V12.93H80.0227V21H77.6827ZM78.8527 11.805C78.4227 11.805 78.0727 11.68 77.8027 11.43C77.5327 11.18 77.3977 10.87 77.3977 10.5C77.3977 10.13 77.5327 9.82 77.8027 9.57C78.0727 9.32 78.4227 9.195 78.8527 9.195C79.2827 9.195 79.6327 9.315 79.9027 9.555C80.1727 9.785 80.3077 10.085 80.3077 10.455C80.3077 10.845 80.1727 11.17 79.9027 11.43C79.6427 11.68 79.2927 11.805 78.8527 11.805ZM82.3744 21V9.87H84.7144V21H82.3744ZM91.0711 21.12C90.1511 21.12 89.3411 20.94 88.6411 20.58C87.9511 20.22 87.4161 19.73 87.0361 19.11C86.6561 18.48 86.4661 17.765 86.4661 16.965C86.4661 16.155 86.6511 15.44 87.0211 14.82C87.4011 14.19 87.9161 13.7 88.5661 13.35C89.2161 12.99 89.9511 12.81 90.7711 12.81C91.5611 12.81 92.2711 12.98 92.9011 13.32C93.5411 13.65 94.0461 14.13 94.4161 14.76C94.7861 15.38 94.9711 16.125 94.9711 16.995C94.9711 17.085 94.9661 17.19 94.9561 17.31C94.9461 17.42 94.9361 17.525 94.9261 17.625H88.3711V16.26H93.6961L92.7961 16.665C92.7961 16.245 92.7111 15.88 92.5411 15.57C92.3711 15.26 92.1361 15.02 91.8361 14.85C91.5361 14.67 91.1861 14.58 90.7861 14.58C90.3861 14.58 90.0311 14.67 89.7211 14.85C89.4211 15.02 89.1861 15.265 89.0161 15.585C88.8461 15.895 88.7611 16.265 88.7611 16.695V17.055C88.7611 17.495 88.8561 17.885 89.0461 18.225C89.2461 18.555 89.5211 18.81 89.8711 18.99C90.2311 19.16 90.6511 19.245 91.1311 19.245C91.5611 19.245 91.9361 19.18 92.2561 19.05C92.5861 18.92 92.8861 18.725 93.1561 18.465L94.4011 19.815C94.0311 20.235 93.5661 20.56 93.0061 20.79C92.4461 21.01 91.8011 21.12 91.0711 21.12Z" fill="white"/>
<path d="M101 0H5C2.23858 0 0 2.23858 0 5V27C0 29.7614 2.23858 32 5 32H101C103.761 32 106 29.7614 106 27V5C106 2.23858 103.761 0 101 0Z" fill="url(#paint0_linear_14_885)"/>
<defs>
<linearGradient id="paint0_linear_14_885" x1="0" y1="0" x2="0" y2="32" gradientUnits="userSpaceOnUse">
<stop stop-color="#BBBBBB" stop-opacity="0.1"/>
<stop offset="1" stop-opacity="0.1"/>
</linearGradient>
</defs>
</svg>
