<svg width="114" height="32" viewBox="0 0 114 32" fill="none" xmlns="http://www.w3.org/2000/svg">
<path d="M109 0H31V32H109C111.761 32 114 29.7614 114 27V5C114 2.23858 111.761 0 109 0Z" fill="#0F1418"/>
<path d="M31 0H5C2.23858 0 0 2.23858 0 5V27C0 29.7614 2.23858 32 5 32H31V0Z" fill="#613079"/>
<path d="M25.1192 7.94804L16.1184 4.19768C15.8442 4.08394 15.5503 4.02539 15.2534 4.02539C14.9566 4.02539 14.6627 4.08394 14.3885 4.19768L5.38764 7.94804C4.54849 8.29495 4 9.11534 4 10.0248C4 19.3304 9.36771 25.7623 14.3838 27.8531C14.937 28.0828 15.5605 28.0828 16.1137 27.8531C20.1313 26.1795 26.5022 20.3993 26.5022 10.0248C26.5022 9.11534 25.9537 8.29495 25.1192 7.94804ZM15.2558 24.9466L15.2511 7.08546L23.4972 10.5217C23.3425 17.6193 19.6484 22.762 15.2558 24.9466Z" fill="white"/>
<path d="M44.3384 21.18C43.4984 21.18 42.6934 21.07 41.9234 20.85C41.1534 20.62 40.5334 20.325 40.0634 19.965L40.8884 18.135C41.3384 18.455 41.8684 18.72 42.4784 18.93C43.0984 19.13 43.7234 19.23 44.3534 19.23C44.8334 19.23 45.2184 19.185 45.5084 19.095C45.8084 18.995 46.0284 18.86 46.1684 18.69C46.3084 18.52 46.3784 18.325 46.3784 18.105C46.3784 17.825 46.2684 17.605 46.0484 17.445C45.8284 17.275 45.5384 17.14 45.1784 17.04C44.8184 16.93 44.4184 16.83 43.9784 16.74C43.5484 16.64 43.1134 16.52 42.6734 16.38C42.2434 16.24 41.8484 16.06 41.4884 15.84C41.1284 15.62 40.8334 15.33 40.6034 14.97C40.3834 14.61 40.2734 14.15 40.2734 13.59C40.2734 12.99 40.4334 12.445 40.7534 11.955C41.0834 11.455 41.5734 11.06 42.2234 10.77C42.8834 10.47 43.7084 10.32 44.6984 10.32C45.3584 10.32 46.0084 10.4 46.6484 10.56C47.2884 10.71 47.8534 10.94 48.3434 11.25L47.5934 13.095C47.1034 12.815 46.6134 12.61 46.1234 12.48C45.6334 12.34 45.1534 12.27 44.6834 12.27C44.2134 12.27 43.8284 12.325 43.5284 12.435C43.2284 12.545 43.0134 12.69 42.8834 12.87C42.7534 13.04 42.6884 13.24 42.6884 13.47C42.6884 13.74 42.7984 13.96 43.0184 14.13C43.2384 14.29 43.5284 14.42 43.8884 14.52C44.2484 14.62 44.6434 14.72 45.0734 14.82C45.5134 14.92 45.9484 15.035 46.3784 15.165C46.8184 15.295 47.2184 15.47 47.5784 15.69C47.9384 15.91 48.2284 16.2 48.4484 16.56C48.6784 16.92 48.7934 17.375 48.7934 17.925C48.7934 18.515 48.6284 19.055 48.2984 19.545C47.9684 20.035 47.4734 20.43 46.8134 20.73C46.1634 21.03 45.3384 21.18 44.3384 21.18ZM54.4739 21.12C53.5539 21.12 52.7439 20.94 52.0439 20.58C51.3539 20.22 50.8189 19.73 50.4389 19.11C50.0589 18.48 49.8689 17.765 49.8689 16.965C49.8689 16.155 50.0539 15.44 50.4239 14.82C50.8039 14.19 51.3189 13.7 51.9689 13.35C52.6189 12.99 53.3539 12.81 54.1739 12.81C54.9639 12.81 55.6739 12.98 56.3039 13.32C56.9439 13.65 57.4489 14.13 57.8189 14.76C58.1889 15.38 58.3739 16.125 58.3739 16.995C58.3739 17.085 58.3689 17.19 58.3589 17.31C58.3489 17.42 58.3389 17.525 58.3289 17.625H51.7739V16.26H57.0989L56.1989 16.665C56.1989 16.245 56.1139 15.88 55.9439 15.57C55.7739 15.26 55.5389 15.02 55.2389 14.85C54.9389 14.67 54.5889 14.58 54.1889 14.58C53.7889 14.58 53.4339 14.67 53.1239 14.85C52.8239 15.02 52.5889 15.265 52.4189 15.585C52.2489 15.895 52.1639 16.265 52.1639 16.695V17.055C52.1639 17.495 52.2589 17.885 52.4489 18.225C52.6489 18.555 52.9239 18.81 53.2739 18.99C53.6339 19.16 54.0539 19.245 54.5339 19.245C54.9639 19.245 55.3389 19.18 55.6589 19.05C55.9889 18.92 56.2889 18.725 56.5589 18.465L57.8039 19.815C57.4339 20.235 56.9689 20.56 56.4089 20.79C55.8489 21.01 55.2039 21.12 54.4739 21.12ZM64.0118 21.12C63.1418 21.12 62.3668 20.945 61.6868 20.595C61.0068 20.235 60.4718 19.74 60.0818 19.11C59.7018 18.48 59.5118 17.765 59.5118 16.965C59.5118 16.155 59.7018 15.44 60.0818 14.82C60.4718 14.19 61.0068 13.7 61.6868 13.35C62.3668 12.99 63.1418 12.81 64.0118 12.81C64.8618 12.81 65.6018 12.99 66.2318 13.35C66.8618 13.7 67.3268 14.205 67.6268 14.865L65.8118 15.84C65.6018 15.46 65.3368 15.18 65.0168 15C64.7068 14.82 64.3668 14.73 63.9968 14.73C63.5968 14.73 63.2368 14.82 62.9168 15C62.5968 15.18 62.3418 15.435 62.1518 15.765C61.9718 16.095 61.8818 16.495 61.8818 16.965C61.8818 17.435 61.9718 17.835 62.1518 18.165C62.3418 18.495 62.5968 18.75 62.9168 18.93C63.2368 19.11 63.5968 19.2 63.9968 19.2C64.3668 19.2 64.7068 19.115 65.0168 18.945C65.3368 18.765 65.6018 18.48 65.8118 18.09L67.6268 19.08C67.3268 19.73 66.8618 20.235 66.2318 20.595C65.6018 20.945 64.8618 21.12 64.0118 21.12ZM72.5591 21.12C71.8891 21.12 71.2891 20.99 70.7591 20.73C70.2391 20.47 69.8341 20.075 69.5441 19.545C69.2541 19.005 69.1091 18.32 69.1091 17.49V12.93H71.4491V17.145C71.4491 17.815 71.5891 18.31 71.8691 18.63C72.1591 18.94 72.5641 19.095 73.0841 19.095C73.4441 19.095 73.7641 19.02 74.0441 18.87C74.3241 18.71 74.5441 18.47 74.7041 18.15C74.8641 17.82 74.9441 17.41 74.9441 16.92V12.93H77.2841V21H75.0641V18.78L75.4691 19.425C75.1991 19.985 74.7991 20.41 74.2691 20.7C73.7491 20.98 73.1791 21.12 72.5591 21.12ZM79.6319 21V12.93H81.8669V15.21L81.5519 14.55C81.7919 13.98 82.1769 13.55 82.7069 13.26C83.2369 12.96 83.8819 12.81 84.6419 12.81V14.97C84.5419 14.96 84.4519 14.955 84.3719 14.955C84.2919 14.945 84.2069 14.94 84.1169 14.94C83.4769 14.94 82.9569 15.125 82.5569 15.495C82.1669 15.855 81.9719 16.42 81.9719 17.19V21H79.6319ZM86.2279 21V12.93H88.5679V21H86.2279ZM87.3979 11.805C86.9679 11.805 86.6179 11.68 86.3479 11.43C86.0779 11.18 85.9429 10.87 85.9429 10.5C85.9429 10.13 86.0779 9.82 86.3479 9.57C86.6179 9.32 86.9679 9.195 87.3979 9.195C87.8279 9.195 88.1779 9.315 88.4479 9.555C88.7179 9.785 88.8529 10.085 88.8529 10.455C88.8529 10.845 88.7179 11.17 88.4479 11.43C88.1879 11.68 87.8379 11.805 87.3979 11.805ZM94.2196 21.12C93.2696 21.12 92.5296 20.88 91.9996 20.4C91.4696 19.91 91.2046 19.185 91.2046 18.225V11.145H93.5446V18.195C93.5446 18.535 93.6346 18.8 93.8146 18.99C93.9946 19.17 94.2396 19.26 94.5496 19.26C94.9196 19.26 95.2346 19.16 95.4946 18.96L96.1246 20.61C95.8846 20.78 95.5946 20.91 95.2546 21C94.9246 21.08 94.5796 21.12 94.2196 21.12ZM89.9596 14.91V13.11H95.5546V14.91H89.9596ZM98.4917 24.03C98.0717 24.03 97.6567 23.965 97.2467 23.835C96.8367 23.705 96.5017 23.525 96.2417 23.295L97.0967 21.63C97.2767 21.79 97.4817 21.915 97.7117 22.005C97.9517 22.095 98.1867 22.14 98.4167 22.14C98.7467 22.14 99.0067 22.06 99.1967 21.9C99.3967 21.75 99.5767 21.495 99.7367 21.135L100.157 20.145L100.337 19.89L103.232 12.93H105.482L101.837 21.495C101.577 22.145 101.277 22.655 100.937 23.025C100.607 23.395 100.237 23.655 99.8267 23.805C99.4267 23.955 98.9817 24.03 98.4917 24.03ZM99.8717 21.315L96.2717 12.93H98.6867L101.477 19.68L99.8717 21.315Z" fill="white"/>
<path d="M109 0H5C2.23858 0 0 2.23858 0 5V27C0 29.7614 2.23858 32 5 32H109C111.761 32 114 29.7614 114 27V5C114 2.23858 111.761 0 109 0Z" fill="url(#paint0_linear_14_864)"/>
<defs>
<linearGradient id="paint0_linear_14_864" x1="0" y1="0" x2="0" y2="32" gradientUnits="userSpaceOnUse">
<stop stop-color="#BBBBBB" stop-opacity="0.1"/>
<stop offset="1" stop-opacity="0.1"/>
</linearGradient>
</defs>
</svg>
