<svg width="88" height="32" viewBox="0 0 88 32" fill="none" xmlns="http://www.w3.org/2000/svg">
<path d="M83 0H31V32H83C85.7614 32 88 29.7614 88 27V5C88 2.23858 85.7614 0 83 0Z" fill="#0F1418"/>
<path d="M31 0H5C2.23858 0 0 2.23858 0 5V27C0 29.7614 2.23858 32 5 32H31V0Z" fill="#613079"/>
<path d="M16 4C9.37097 4 4 9.37097 4 16C4 22.629 9.37097 28 16 28C22.629 28 28 22.629 28 16C28 9.37097 22.629 4 16 4ZM14.4516 6.45806V7.00484C14.4516 7.58064 13.8468 7.95323 13.329 7.69677L12.1677 7.11613C12.8887 6.80645 13.6532 6.58871 14.4516 6.45806ZM16 24.3516V25.6774C10.6629 25.6774 6.32258 21.3371 6.32258 16C6.32258 14.5919 6.63226 13.2565 7.17419 12.0468C7.65323 12.7581 8.39355 13.8565 8.84839 14.5194C9.1 14.8871 9.39032 15.2258 9.72419 15.521L9.7629 15.5548C10.2226 15.971 10.7403 16.329 11.2919 16.6097C11.9694 16.9484 12.9565 17.4903 13.6532 17.8726C14.1468 18.1435 14.4516 18.6613 14.4516 19.2274V20.7758C14.4516 21.1871 14.6161 21.579 14.9065 21.8694C15.6323 22.6 16.0823 23.7419 16 24.3516ZM18.0661 25.45L18.9081 23.1806C19.0048 22.9145 19.0677 22.6387 19.1403 22.3629C19.1935 22.1694 19.2952 21.9903 19.4403 21.8452L19.9871 21.2984C20.4129 20.8774 20.65 20.3016 20.65 19.7016C20.65 19.3097 20.4952 18.9323 20.2194 18.6565L19.5565 17.9935C19.2661 17.7032 18.8742 17.5387 18.4629 17.5387H15.2258C14.771 17.3113 14.1855 15.9903 13.6774 15.9903C13.1694 15.9903 12.6661 15.8694 12.2113 15.6419L11.6742 15.3758C11.4806 15.279 11.3548 15.0758 11.3548 14.8581C11.3548 14.6113 11.5145 14.3887 11.7516 14.3113L13.2613 13.8081C13.5226 13.721 13.8081 13.779 14.0113 13.9581L14.4613 14.35C14.5339 14.4129 14.621 14.4468 14.7129 14.4468H14.9839C15.2742 14.4468 15.4581 14.1419 15.3323 13.8855L14.5774 12.3758C14.5 12.2258 14.5339 12.0419 14.6548 11.9258L15.1339 11.4613C15.2065 11.3887 15.3032 11.35 15.4048 11.35H15.8403C15.9419 11.35 16.0435 11.3113 16.1161 11.2387L16.5032 10.8516C16.6532 10.7016 16.6532 10.4548 16.5032 10.3048L16.2758 10.0774C16.1258 9.92742 16.1258 9.68064 16.2758 9.53065L16.7742 9.03226L17.0016 8.80484C17.3016 8.50484 17.3016 8.01129 17.0016 7.71129L15.6323 6.34194C15.7532 6.3371 15.8742 6.32258 16 6.32258C19.7839 6.32258 23.0548 8.50968 24.6468 11.679L24.0177 11.9935C23.8387 12.0855 23.6839 12.221 23.5726 12.3855L22.6242 13.8081C22.3629 14.2 22.3629 14.7081 22.6242 15.0952L23.4952 16.4016C23.6548 16.6435 23.9016 16.8129 24.1774 16.8855L25.5903 17.2387C25.0677 21.3032 22.0145 24.5887 18.0661 25.45Z" fill="white"/>
<path d="M44.8623 21L41.4273 10.5H43.9473L46.9323 19.8H45.6723L48.7923 10.5H51.0423L54.0423 19.8H52.8273L55.8873 10.5H58.2123L54.7773 21H52.1673L49.5123 12.84H50.2023L47.4723 21H44.8623ZM62.9883 21.12C62.0683 21.12 61.2583 20.94 60.5583 20.58C59.8683 20.22 59.3333 19.73 58.9533 19.11C58.5733 18.48 58.3833 17.765 58.3833 16.965C58.3833 16.155 58.5683 15.44 58.9383 14.82C59.3183 14.19 59.8333 13.7 60.4833 13.35C61.1333 12.99 61.8683 12.81 62.6883 12.81C63.4783 12.81 64.1883 12.98 64.8183 13.32C65.4583 13.65 65.9633 14.13 66.3333 14.76C66.7033 15.38 66.8883 16.125 66.8883 16.995C66.8883 17.085 66.8833 17.19 66.8733 17.31C66.8633 17.42 66.8533 17.525 66.8433 17.625H60.2883V16.26H65.6133L64.7133 16.665C64.7133 16.245 64.6283 15.88 64.4583 15.57C64.2883 15.26 64.0533 15.02 63.7533 14.85C63.4533 14.67 63.1033 14.58 62.7033 14.58C62.3033 14.58 61.9483 14.67 61.6383 14.85C61.3383 15.02 61.1033 15.265 60.9333 15.585C60.7633 15.895 60.6783 16.265 60.6783 16.695V17.055C60.6783 17.495 60.7733 17.885 60.9633 18.225C61.1633 18.555 61.4383 18.81 61.7883 18.99C62.1483 19.16 62.5683 19.245 63.0483 19.245C63.4783 19.245 63.8533 19.18 64.1733 19.05C64.5033 18.92 64.8033 18.725 65.0733 18.465L66.3183 19.815C65.9483 20.235 65.4833 20.56 64.9233 20.79C64.3633 21.01 63.7183 21.12 62.9883 21.12ZM73.3962 21.12C72.6862 21.12 72.0762 20.97 71.5662 20.67C71.0562 20.37 70.6662 19.915 70.3962 19.305C70.1262 18.685 69.9912 17.905 69.9912 16.965C69.9912 16.015 70.1312 15.235 70.4112 14.625C70.7012 14.015 71.1012 13.56 71.6112 13.26C72.1212 12.96 72.7162 12.81 73.3962 12.81C74.1562 12.81 74.8362 12.98 75.4362 13.32C76.0462 13.66 76.5262 14.14 76.8762 14.76C77.2362 15.38 77.4162 16.115 77.4162 16.965C77.4162 17.805 77.2362 18.535 76.8762 19.155C76.5262 19.775 76.0462 20.26 75.4362 20.61C74.8362 20.95 74.1562 21.12 73.3962 21.12ZM68.6262 21V9.87H70.9662V14.565L70.8162 16.95L70.8612 19.35V21H68.6262ZM72.9912 19.2C73.3812 19.2 73.7262 19.11 74.0262 18.93C74.3362 18.75 74.5812 18.495 74.7612 18.165C74.9512 17.825 75.0462 17.425 75.0462 16.965C75.0462 16.495 74.9512 16.095 74.7612 15.765C74.5812 15.435 74.3362 15.18 74.0262 15C73.7262 14.82 73.3812 14.73 72.9912 14.73C72.6012 14.73 72.2512 14.82 71.9412 15C71.6312 15.18 71.3862 15.435 71.2062 15.765C71.0262 16.095 70.9362 16.495 70.9362 16.965C70.9362 17.425 71.0262 17.825 71.2062 18.165C71.3862 18.495 71.6312 18.75 71.9412 18.93C72.2512 19.11 72.6012 19.2 72.9912 19.2Z" fill="white"/>
<path d="M83 0H5C2.23858 0 0 2.23858 0 5V27C0 29.7614 2.23858 32 5 32H83C85.7614 32 88 29.7614 88 27V5C88 2.23858 85.7614 0 83 0Z" fill="url(#paint0_linear_14_878)"/>
<defs>
<linearGradient id="paint0_linear_14_878" x1="0" y1="0" x2="0" y2="32" gradientUnits="userSpaceOnUse">
<stop stop-color="#BBBBBB" stop-opacity="0.1"/>
<stop offset="1" stop-opacity="0.1"/>
</linearGradient>
</defs>
</svg>
