<svg width="138" height="32" viewBox="0 0 138 32" fill="none" xmlns="http://www.w3.org/2000/svg">
<path d="M133 0H31V32H133C135.761 32 138 29.7614 138 27V5C138 2.23858 135.761 0 133 0Z" fill="#0F1418"/>
<path d="M5 0.5H30.5V31.5H5C2.51472 31.5 0.5 29.4853 0.5 27V5C0.5 2.51472 2.51472 0.5 5 0.5Z" fill="white" stroke="#151A1E"/>
<path d="M26.0415 18.8949C25.95 18.4804 25.574 17.9969 24.8155 17.9969C24.6605 17.9969 24.491 18.0164 24.298 18.0564C23.944 18.1294 23.6425 18.1649 23.377 18.1769C25.4435 14.6569 26.785 9.76745 25.4565 8.06995C23.706 5.83345 21.3495 5.49945 20.101 5.49945L19.9835 5.49995C19.519 5.50745 19.037 5.56445 18.552 5.66945L16.7605 6.05645C16.5165 6.02595 16.268 6.00445 16.009 5.99995H15.994H15.986L15.91 5.99945C15.1135 5.99945 14.387 6.16845 13.7395 6.48595L13.114 6.23945C12.254 5.90045 10.96 5.49695 9.68 5.49695C9.608 5.49695 9.5365 5.49845 9.4645 5.50095C8.2035 5.54645 7.1205 6.02495 6.332 6.88445C5.348 7.95745 4.9 9.52695 5.0015 11.5499C5.0065 11.6544 6.2305 21.9999 9.7 21.9999H9.7125L9.7445 21.9994C10.195 21.9884 10.6245 21.8074 11.026 21.4609C11.3325 21.6909 11.729 21.8269 12.0985 21.8809C12.3425 21.9384 12.7815 22.0199 13.3075 22.0199C13.9495 22.0199 14.5285 21.8884 15.0275 21.6509C15.027 22.0909 15.0245 22.6479 15.0195 23.3599L15.019 23.3974L15.0215 23.4349C15.07 24.1444 15.1925 24.7839 15.377 25.2854C15.9025 26.7149 16.81 27.5024 17.9325 27.5024C17.979 27.5024 18.0265 27.5009 18.0745 27.4979C18.9975 27.4409 19.933 26.9224 20.5765 26.1119C21.273 25.2344 21.434 24.3084 21.496 23.5989L21.5 23.5554V23.5114V21.4719L21.5515 21.4769L21.7695 21.4959L21.7905 21.4979L21.8115 21.4989C21.8735 21.5019 21.9375 21.5029 22.002 21.5029C22.7555 21.5029 23.683 21.3074 24.31 21.0159C24.9095 20.7379 26.2795 19.9739 26.0415 18.8949Z" fill="white"/>
<path d="M20.4999 21C20.4999 20.8975 20.5059 20.812 20.5089 20.7175C20.5039 20.592 20.4999 20.5 20.4999 20.5C20.4999 20.5 20.5059 20.4955 20.5159 20.489C20.5904 19.1525 20.9589 18.6375 21.3534 18.344C21.2984 18.2675 21.2349 18.185 21.1754 18.1065C21.0089 17.888 20.8014 17.617 20.5794 17.2695L20.5384 17.1905C20.5049 17.1085 20.4239 16.967 20.3209 16.781C19.7294 15.711 18.4984 13.485 19.3409 12.079C19.7099 11.463 20.4019 11.108 21.4014 11.0205C20.9929 9.85904 19.4624 7.05754 15.9924 7.00004C15.9914 7.00004 15.9904 7.00004 15.9894 7.00004C12.9689 6.95104 11.9764 9.69604 11.6534 11.336C12.0984 11.1475 12.6064 11.033 13.0714 11.033C13.0784 11.033 13.0859 11.033 13.0929 11.033C14.2379 11.0415 15.0254 11.6525 15.2544 12.71C15.4219 13.486 15.5024 14.165 15.5004 14.7865C15.4954 16.146 15.2214 16.861 14.9794 17.492L14.9024 17.696C14.8404 17.863 14.7749 18.0185 14.7129 18.1645C14.6499 18.3135 14.5944 18.446 14.5539 18.5655C14.7959 18.6205 14.9859 18.698 15.1164 18.7555L15.1919 18.7885C15.2154 18.7985 15.2389 18.81 15.2604 18.823C15.6844 19.081 15.9484 19.4775 16.0049 19.9395C16.0354 20.1885 16.0304 21.886 16.0199 23.367C16.0634 24.0095 16.1724 24.549 16.3164 24.94C16.5209 25.497 17.0319 26.5605 18.0134 26.4995C18.6984 26.457 19.3569 26.04 19.7939 25.49C20.2629 24.8995 20.4359 24.2465 20.5009 23.511V21H20.4999Z" fill="#0277BD"/>
<path d="M11.557 18.4586C10.7505 17.6171 10.3575 16.4851 10.505 15.4306C10.6475 14.4131 10.567 13.4171 10.5235 12.8816C10.509 12.7031 10.4995 12.5701 10.5 12.4966C10.5 12.4926 10.501 12.4891 10.5015 12.4851C10.5015 12.4831 10.5005 12.4816 10.5005 12.4796C10.561 10.9691 11.1435 8.58605 12.747 7.16955C11.966 6.86205 10.694 6.45655 9.49996 6.50005C7.62896 6.56805 5.81796 7.86205 5.99996 11.5001C6.06846 12.8651 7.61096 21.0516 9.71996 21.0001C10.0215 20.9926 10.3345 20.7991 10.656 20.4121C11.1645 19.8006 11.6585 19.2461 12.01 18.8601C11.8525 18.7406 11.7005 18.6086 11.557 18.4586ZM22.5115 11.3656C22.519 11.4426 22.5125 11.5086 22.5005 11.5696C22.516 12.0296 22.4665 12.4761 22.416 12.9081C22.379 13.2261 22.341 13.5546 22.3305 13.8841C22.32 14.2066 22.3655 14.5251 22.4135 14.8621C22.526 15.6511 22.643 16.5416 22.031 17.5806C22.1435 17.7286 22.2425 17.8661 22.3215 17.9991C24.6265 14.2616 25.5555 9.81855 24.669 8.68605C23.3275 6.97205 21.4705 6.47605 19.9995 6.50005C19.539 6.50755 19.1205 6.56955 18.763 6.64705C21.301 7.87705 22.4315 10.5131 22.5115 11.3656ZM24.5 19.0356C23.1675 19.3106 22.5265 19.1641 22.2155 18.9726C22.1655 19.0086 22.1155 19.0391 22.069 19.0676C21.883 19.1801 21.5885 19.3591 21.5165 20.4586C21.558 20.4666 21.5945 20.4711 21.6395 20.4806L21.857 20.5001C22.517 20.5301 23.3815 20.3451 23.8885 20.1096C24.981 19.6026 25.5765 18.8136 24.5 19.0356ZM15.0115 20.0596C14.993 19.9106 14.9125 19.7901 14.7655 19.6936L14.7115 19.6701C14.531 19.5906 14.3265 19.5001 14 19.5001H13.998C13.9345 19.5051 13.8715 19.5096 13.808 19.5096C13.782 19.5096 13.7565 19.5061 13.7305 19.5051C13.4935 19.6876 13.1565 19.8286 12.3225 20.0001C10.8325 20.3796 11.712 20.8276 12.2835 20.8971C12.8365 21.0356 14.151 21.2041 15.024 20.4926C15.0215 20.2686 15.0175 20.1146 15.0115 20.0596Z" fill="#0277BD"/>
<path d="M14.3406 13.2505C14.1946 13.4015 13.9641 13.5335 13.7096 13.4925C13.2956 13.4255 12.9781 12.926 13.0011 12.7385C13.0231 12.5515 13.3766 12.454 13.7901 12.521C13.9336 12.5445 14.0641 12.585 14.1741 12.635C14.0141 12.291 13.7246 12.0925 13.2831 12.044C12.5006 11.957 11.6701 12.366 11.5031 12.5925C11.5066 12.6475 11.5131 12.718 11.5196 12.801C11.5661 13.3745 11.6521 14.443 11.4946 15.5695C11.3906 16.312 11.6911 17.154 12.2781 17.767C12.6566 18.162 13.0986 18.412 13.5346 18.486C13.5901 18.247 13.6891 18.014 13.7911 17.7735C13.8476 17.641 13.9076 17.5 13.9641 17.3475L14.0451 17.134C14.2666 16.5565 14.4951 15.959 14.4996 14.7825C14.5016 14.33 14.4461 13.8135 14.3406 13.2505ZM21.4236 15.0035C21.3716 14.639 21.3181 14.2615 21.3311 13.852C21.3426 13.481 21.3836 13.131 21.4231 12.7925C21.4541 12.526 21.4781 12.27 21.4921 12.0175C20.8476 12.071 20.4196 12.257 20.2166 12.5715C20.3006 12.543 20.3956 12.5205 20.5006 12.507C20.9466 12.449 21.2721 12.5775 21.3096 12.8255C21.3371 13.007 21.1831 13.178 21.1156 13.2435C20.9771 13.378 20.8026 13.4645 20.6251 13.4875C20.5931 13.4915 20.5606 13.4935 20.5291 13.4935C20.3526 13.4935 20.1841 13.433 20.0546 13.3435C20.1106 14.33 20.8381 15.6495 21.1961 16.297C21.2726 16.4355 21.3316 16.546 21.3806 16.641C21.5771 16.0815 21.5046 15.5715 21.4236 15.0035Z" fill="#0277BD"/>
<path d="M37.6972 20V9.5H42.2422C43.1822 9.5 43.9922 9.655 44.6722 9.965C45.3522 10.265 45.8772 10.7 46.2472 11.27C46.6172 11.84 46.8022 12.52 46.8022 13.31C46.8022 14.09 46.6172 14.765 46.2472 15.335C45.8772 15.905 45.3522 16.345 44.6722 16.655C43.9922 16.955 43.1822 17.105 42.2422 17.105H39.0472L40.1272 16.01V20H37.6972ZM40.1272 16.28L39.0472 15.125H42.1072C42.8572 15.125 43.4172 14.965 43.7872 14.645C44.1572 14.325 44.3422 13.88 44.3422 13.31C44.3422 12.73 44.1572 12.28 43.7872 11.96C43.4172 11.64 42.8572 11.48 42.1072 11.48H39.0472L40.1272 10.325V16.28ZM52.3774 20.12C51.5174 20.12 50.7524 19.94 50.0824 19.58C49.4224 19.22 48.8974 18.73 48.5074 18.11C48.1274 17.48 47.9374 16.765 47.9374 15.965C47.9374 15.155 48.1274 14.44 48.5074 13.82C48.8974 13.19 49.4224 12.7 50.0824 12.35C50.7524 11.99 51.5174 11.81 52.3774 11.81C53.2274 11.81 53.9874 11.99 54.6574 12.35C55.3274 12.7 55.8524 13.185 56.2324 13.805C56.6124 14.425 56.8024 15.145 56.8024 15.965C56.8024 16.765 56.6124 17.48 56.2324 18.11C55.8524 18.73 55.3274 19.22 54.6574 19.58C53.9874 19.94 53.2274 20.12 52.3774 20.12ZM52.3774 18.2C52.7674 18.2 53.1174 18.11 53.4274 17.93C53.7374 17.75 53.9824 17.495 54.1624 17.165C54.3424 16.825 54.4324 16.425 54.4324 15.965C54.4324 15.495 54.3424 15.095 54.1624 14.765C53.9824 14.435 53.7374 14.18 53.4274 14C53.1174 13.82 52.7674 13.73 52.3774 13.73C51.9874 13.73 51.6374 13.82 51.3274 14C51.0174 14.18 50.7674 14.435 50.5774 14.765C50.3974 15.095 50.3074 15.495 50.3074 15.965C50.3074 16.425 50.3974 16.825 50.5774 17.165C50.7674 17.495 51.0174 17.75 51.3274 17.93C51.6374 18.11 51.9874 18.2 52.3774 18.2ZM61.2615 20.12C60.5715 20.12 59.9065 20.04 59.2665 19.88C58.6365 19.71 58.1365 19.5 57.7665 19.25L58.5465 17.57C58.9165 17.8 59.3515 17.99 59.8515 18.14C60.3615 18.28 60.8615 18.35 61.3515 18.35C61.8915 18.35 62.2715 18.285 62.4915 18.155C62.7215 18.025 62.8365 17.845 62.8365 17.615C62.8365 17.425 62.7465 17.285 62.5665 17.195C62.3965 17.095 62.1665 17.02 61.8765 16.97C61.5865 16.92 61.2665 16.87 60.9165 16.82C60.5765 16.77 60.2315 16.705 59.8815 16.625C59.5315 16.535 59.2115 16.405 58.9215 16.235C58.6315 16.065 58.3965 15.835 58.2165 15.545C58.0465 15.255 57.9615 14.88 57.9615 14.42C57.9615 13.91 58.1065 13.46 58.3965 13.07C58.6965 12.68 59.1265 12.375 59.6865 12.155C60.2465 11.925 60.9165 11.81 61.6965 11.81C62.2465 11.81 62.8065 11.87 63.3765 11.99C63.9465 12.11 64.4215 12.285 64.8015 12.515L64.0215 14.18C63.6315 13.95 63.2365 13.795 62.8365 13.715C62.4465 13.625 62.0665 13.58 61.6965 13.58C61.1765 13.58 60.7965 13.65 60.5565 13.79C60.3165 13.93 60.1965 14.11 60.1965 14.33C60.1965 14.53 60.2815 14.68 60.4515 14.78C60.6315 14.88 60.8665 14.96 61.1565 15.02C61.4465 15.08 61.7615 15.135 62.1015 15.185C62.4515 15.225 62.8015 15.29 63.1515 15.38C63.5015 15.47 63.8165 15.6 64.0965 15.77C64.3865 15.93 64.6215 16.155 64.8015 16.445C64.9815 16.725 65.0715 17.095 65.0715 17.555C65.0715 18.055 64.9215 18.5 64.6215 18.89C64.3215 19.27 63.8865 19.57 63.3165 19.79C62.7565 20.01 62.0715 20.12 61.2615 20.12ZM69.9953 20.12C69.0453 20.12 68.3053 19.88 67.7753 19.4C67.2453 18.91 66.9803 18.185 66.9803 17.225V10.145H69.3203V17.195C69.3203 17.535 69.4103 17.8 69.5903 17.99C69.7703 18.17 70.0153 18.26 70.3253 18.26C70.6953 18.26 71.0103 18.16 71.2703 17.96L71.9003 19.61C71.6603 19.78 71.3703 19.91 71.0303 20C70.7003 20.08 70.3553 20.12 69.9953 20.12ZM65.7353 13.91V12.11H71.3303V13.91H65.7353ZM76.9398 23.03C76.1798 23.03 75.4448 22.935 74.7348 22.745C74.0348 22.565 73.4498 22.29 72.9798 21.92L73.9098 20.24C74.2498 20.52 74.6798 20.74 75.1998 20.9C75.7298 21.07 76.2498 21.155 76.7598 21.155C77.5898 21.155 78.1898 20.97 78.5598 20.6C78.9398 20.23 79.1298 19.68 79.1298 18.95V17.735L79.2798 15.71L79.2498 13.67V11.93H81.4698V18.65C81.4698 20.15 81.0798 21.255 80.2998 21.965C79.5198 22.675 78.3998 23.03 76.9398 23.03ZM76.5798 19.61C75.8298 19.61 75.1498 19.45 74.5398 19.13C73.9398 18.8 73.4548 18.345 73.0848 17.765C72.7248 17.175 72.5448 16.49 72.5448 15.71C72.5448 14.92 72.7248 14.235 73.0848 13.655C73.4548 13.065 73.9398 12.61 74.5398 12.29C75.1498 11.97 75.8298 11.81 76.5798 11.81C77.2598 11.81 77.8598 11.95 78.3798 12.23C78.8998 12.5 79.3048 12.925 79.5948 13.505C79.8848 14.075 80.0298 14.81 80.0298 15.71C80.0298 16.6 79.8848 17.335 79.5948 17.915C79.3048 18.485 78.8998 18.91 78.3798 19.19C77.8598 19.47 77.2598 19.61 76.5798 19.61ZM77.0448 17.69C77.4548 17.69 77.8198 17.61 78.1398 17.45C78.4598 17.28 78.7098 17.045 78.8898 16.745C79.0698 16.445 79.1598 16.1 79.1598 15.71C79.1598 15.31 79.0698 14.965 78.8898 14.675C78.7098 14.375 78.4598 14.145 78.1398 13.985C77.8198 13.815 77.4548 13.73 77.0448 13.73C76.6348 13.73 76.2698 13.815 75.9498 13.985C75.6298 14.145 75.3748 14.375 75.1848 14.675C75.0048 14.965 74.9148 15.31 74.9148 15.71C74.9148 16.1 75.0048 16.445 75.1848 16.745C75.3748 17.045 75.6298 17.28 75.9498 17.45C76.2698 17.61 76.6348 17.69 77.0448 17.69ZM83.8277 20V11.93H86.0627V14.21L85.7477 13.55C85.9877 12.98 86.3727 12.55 86.9027 12.26C87.4327 11.96 88.0777 11.81 88.8377 11.81V13.97C88.7377 13.96 88.6477 13.955 88.5677 13.955C88.4877 13.945 88.4027 13.94 88.3127 13.94C87.6727 13.94 87.1527 14.125 86.7527 14.495C86.3627 14.855 86.1677 15.42 86.1677 16.19V20H83.8277ZM94.3555 20.12C93.4355 20.12 92.6255 19.94 91.9255 19.58C91.2355 19.22 90.7005 18.73 90.3205 18.11C89.9405 17.48 89.7505 16.765 89.7505 15.965C89.7505 15.155 89.9355 14.44 90.3055 13.82C90.6855 13.19 91.2005 12.7 91.8505 12.35C92.5005 11.99 93.2355 11.81 94.0555 11.81C94.8455 11.81 95.5555 11.98 96.1855 12.32C96.8255 12.65 97.3305 13.13 97.7005 13.76C98.0705 14.38 98.2555 15.125 98.2555 15.995C98.2555 16.085 98.2505 16.19 98.2405 16.31C98.2305 16.42 98.2205 16.525 98.2105 16.625H91.6555V15.26H96.9805L96.0805 15.665C96.0805 15.245 95.9955 14.88 95.8255 14.57C95.6555 14.26 95.4205 14.02 95.1205 13.85C94.8205 13.67 94.4705 13.58 94.0705 13.58C93.6705 13.58 93.3155 13.67 93.0055 13.85C92.7055 14.02 92.4705 14.265 92.3005 14.585C92.1305 14.895 92.0455 15.265 92.0455 15.695V16.055C92.0455 16.495 92.1405 16.885 92.3305 17.225C92.5305 17.555 92.8055 17.81 93.1555 17.99C93.5155 18.16 93.9355 18.245 94.4155 18.245C94.8455 18.245 95.2205 18.18 95.5405 18.05C95.8705 17.92 96.1705 17.725 96.4405 17.465L97.6855 18.815C97.3155 19.235 96.8505 19.56 96.2905 19.79C95.7305 20.01 95.0855 20.12 94.3555 20.12ZM103.608 20.18C102.768 20.18 101.963 20.07 101.193 19.85C100.423 19.62 99.8034 19.325 99.3334 18.965L100.158 17.135C100.608 17.455 101.138 17.72 101.748 17.93C102.368 18.13 102.993 18.23 103.623 18.23C104.103 18.23 104.488 18.185 104.778 18.095C105.078 17.995 105.298 17.86 105.438 17.69C105.578 17.52 105.648 17.325 105.648 17.105C105.648 16.825 105.538 16.605 105.318 16.445C105.098 16.275 104.808 16.14 104.448 16.04C104.088 15.93 103.688 15.83 103.248 15.74C102.818 15.64 102.383 15.52 101.943 15.38C101.513 15.24 101.118 15.06 100.758 14.84C100.398 14.62 100.103 14.33 99.8734 13.97C99.6534 13.61 99.5434 13.15 99.5434 12.59C99.5434 11.99 99.7034 11.445 100.023 10.955C100.353 10.455 100.843 10.06 101.493 9.77C102.153 9.47 102.978 9.32 103.968 9.32C104.628 9.32 105.278 9.4 105.918 9.56C106.558 9.71 107.123 9.94 107.613 10.25L106.863 12.095C106.373 11.815 105.883 11.61 105.393 11.48C104.903 11.34 104.423 11.27 103.953 11.27C103.483 11.27 103.098 11.325 102.798 11.435C102.498 11.545 102.283 11.69 102.153 11.87C102.023 12.04 101.958 12.24 101.958 12.47C101.958 12.74 102.068 12.96 102.288 13.13C102.508 13.29 102.798 13.42 103.158 13.52C103.518 13.62 103.913 13.72 104.343 13.82C104.783 13.92 105.218 14.035 105.648 14.165C106.088 14.295 106.488 14.47 106.848 14.69C107.208 14.91 107.498 15.2 107.718 15.56C107.948 15.92 108.063 16.375 108.063 16.925C108.063 17.515 107.898 18.055 107.568 18.545C107.238 19.035 106.743 19.43 106.083 19.73C105.433 20.03 104.608 20.18 103.608 20.18ZM114.989 20.18C114.169 20.18 113.404 20.045 112.694 19.775C111.994 19.505 111.384 19.125 110.864 18.635C110.354 18.145 109.954 17.57 109.664 16.91C109.384 16.25 109.244 15.53 109.244 14.75C109.244 13.97 109.384 13.25 109.664 12.59C109.954 11.93 110.359 11.355 110.879 10.865C111.399 10.375 112.009 9.995 112.709 9.725C113.409 9.455 114.169 9.32 114.989 9.32C115.819 9.32 116.579 9.455 117.269 9.725C117.969 9.995 118.574 10.375 119.084 10.865C119.604 11.345 120.009 11.915 120.299 12.575C120.589 13.235 120.734 13.96 120.734 14.75C120.734 15.53 120.589 16.255 120.299 16.925C120.009 17.585 119.604 18.16 119.084 18.65C118.574 19.13 117.969 19.505 117.269 19.775C116.579 20.045 115.819 20.18 114.989 20.18ZM118.424 22.415C118.014 22.415 117.624 22.37 117.254 22.28C116.894 22.19 116.534 22.045 116.174 21.845C115.824 21.645 115.454 21.375 115.064 21.035C114.684 20.695 114.269 20.275 113.819 19.775L116.369 19.13C116.639 19.5 116.889 19.795 117.119 20.015C117.349 20.235 117.569 20.39 117.779 20.48C117.999 20.57 118.229 20.615 118.469 20.615C119.109 20.615 119.679 20.355 120.179 19.835L121.259 21.125C120.549 21.985 119.604 22.415 118.424 22.415ZM114.989 18.11C115.459 18.11 115.889 18.03 116.279 17.87C116.679 17.71 117.029 17.48 117.329 17.18C117.629 16.88 117.859 16.525 118.019 16.115C118.189 15.695 118.274 15.24 118.274 14.75C118.274 14.25 118.189 13.795 118.019 13.385C117.859 12.975 117.629 12.62 117.329 12.32C117.029 12.02 116.679 11.79 116.279 11.63C115.889 11.47 115.459 11.39 114.989 11.39C114.519 11.39 114.084 11.47 113.684 11.63C113.284 11.79 112.934 12.02 112.634 12.32C112.344 12.62 112.114 12.975 111.944 13.385C111.784 13.795 111.704 14.25 111.704 14.75C111.704 15.24 111.784 15.695 111.944 16.115C112.114 16.525 112.344 16.88 112.634 17.18C112.934 17.48 113.284 17.71 113.684 17.87C114.084 18.03 114.519 18.11 114.989 18.11ZM122.74 20V9.5H125.17V18.02H130.435V20H122.74Z" fill="white"/>
<path d="M133 0H5C2.23858 0 0 2.23858 0 5V27C0 29.7614 2.23857 32 5 32H133C135.761 32 138 29.7614 138 27V5C138 2.23858 135.761 0 133 0Z" fill="url(#paint0_linear_21_48)"/>
<defs>
<linearGradient id="paint0_linear_21_48" x1="0" y1="0" x2="0" y2="32" gradientUnits="userSpaceOnUse">
<stop stop-color="#BBBBBB" stop-opacity="0.1"/>
<stop offset="1" stop-opacity="0.1"/>
</linearGradient>
</defs>
</svg>
