<svg width="166" height="32" viewBox="0 0 166 32" fill="none" xmlns="http://www.w3.org/2000/svg">
<path d="M161 0H31V32H161C163.761 32 166 29.7614 166 27V5C166 2.23858 163.761 0 161 0Z" fill="#0F1418"/>
<path d="M31 0H5C2.23858 0 0 2.23858 0 5V27C0 29.7614 2.23858 32 5 32H31V0Z" fill="#4CD489"/>
<g clip-path="url(#clip0_18_844)">
<path d="M14 6H16V8H16.5C16.8978 8 17.2794 8.15804 17.5607 8.43934C17.842 8.72064 18 9.10218 18 9.5V13L17.56 13.44L19.2 16.28C20.31 15.19 21 13.68 21 12H23C23 14.42 21.93 16.59 20.23 18.06L23.37 23.5L23.5 25.72L21.63 24.5L18.56 19.17C17.5 19.7 16.28 20 15 20C13.72 20 12.5 19.7 11.44 19.17L8.37 24.5L6.5 25.72L6.63 23.5L12.44 13.44L12 13V9.5C12 9.10218 12.158 8.72064 12.4393 8.43934C12.7206 8.15804 13.1022 8 13.5 8H14V6ZM12.44 17.43C13.22 17.8 14.09 18 15 18C15.91 18 16.78 17.8 17.56 17.43L16.1 14.9H16.09C15.47 15.5 14.53 15.5 13.91 14.9H13.9L12.44 17.43ZM15 10C14.7348 10 14.4804 10.1054 14.2929 10.2929C14.1054 10.4804 14 10.7348 14 11C14 11.2652 14.1054 11.5196 14.2929 11.7071C14.4804 11.8946 14.7348 12 15 12C15.2652 12 15.5196 11.8946 15.7071 11.7071C15.8946 11.5196 16 11.2652 16 11C16 10.7348 15.8946 10.4804 15.7071 10.2929C15.5196 10.1054 15.2652 10 15 10Z" fill="white"/>
</g>
<path d="M37.8322 20L42.5122 9.5H44.9122L49.6072 20H47.0572L43.2172 10.73H44.1772L40.3222 20H37.8322ZM40.1722 17.75L40.8172 15.905H46.2172L46.8772 17.75H40.1722ZM55.6166 11.81C56.2566 11.81 56.8266 11.94 57.3266 12.2C57.8366 12.45 58.2366 12.84 58.5266 13.37C58.8166 13.89 58.9616 14.56 58.9616 15.38V20H56.6216V15.74C56.6216 15.09 56.4766 14.61 56.1866 14.3C55.9066 13.99 55.5066 13.835 54.9866 13.835C54.6166 13.835 54.2816 13.915 53.9816 14.075C53.6916 14.225 53.4616 14.46 53.2916 14.78C53.1316 15.1 53.0516 15.51 53.0516 16.01V20H50.7116V11.93H52.9466V14.165L52.5266 13.49C52.8166 12.95 53.2316 12.535 53.7716 12.245C54.3116 11.955 54.9266 11.81 55.6166 11.81ZM64.7863 20.12C64.0263 20.12 63.3413 19.95 62.7313 19.61C62.1213 19.26 61.6363 18.775 61.2763 18.155C60.9263 17.535 60.7513 16.805 60.7513 15.965C60.7513 15.115 60.9263 14.38 61.2763 13.76C61.6363 13.14 62.1213 12.66 62.7313 12.32C63.3413 11.98 64.0263 11.81 64.7863 11.81C65.4663 11.81 66.0613 11.96 66.5713 12.26C67.0813 12.56 67.4763 13.015 67.7563 13.625C68.0363 14.235 68.1763 15.015 68.1763 15.965C68.1763 16.905 68.0413 17.685 67.7713 18.305C67.5013 18.915 67.1113 19.37 66.6013 19.67C66.1013 19.97 65.4963 20.12 64.7863 20.12ZM65.1913 18.2C65.5713 18.2 65.9163 18.11 66.2263 17.93C66.5363 17.75 66.7813 17.495 66.9613 17.165C67.1513 16.825 67.2463 16.425 67.2463 15.965C67.2463 15.495 67.1513 15.095 66.9613 14.765C66.7813 14.435 66.5363 14.18 66.2263 14C65.9163 13.82 65.5713 13.73 65.1913 13.73C64.8013 13.73 64.4513 13.82 64.1413 14C63.8313 14.18 63.5813 14.435 63.3913 14.765C63.2113 15.095 63.1213 15.495 63.1213 15.965C63.1213 16.425 63.2113 16.825 63.3913 17.165C63.5813 17.495 63.8313 17.75 64.1413 17.93C64.4513 18.11 64.8013 18.2 65.1913 18.2ZM67.3063 20V18.35L67.3513 15.95L67.2013 13.565V8.87H69.5413V20H67.3063ZM71.887 20V11.93H74.122V14.21L73.807 13.55C74.047 12.98 74.432 12.55 74.962 12.26C75.492 11.96 76.137 11.81 76.897 11.81V13.97C76.797 13.96 76.707 13.955 76.627 13.955C76.547 13.945 76.462 13.94 76.372 13.94C75.732 13.94 75.212 14.125 74.812 14.495C74.422 14.855 74.227 15.42 74.227 16.19V20H71.887ZM82.2498 20.12C81.3898 20.12 80.6248 19.94 79.9548 19.58C79.2948 19.22 78.7698 18.73 78.3798 18.11C77.9998 17.48 77.8098 16.765 77.8098 15.965C77.8098 15.155 77.9998 14.44 78.3798 13.82C78.7698 13.19 79.2948 12.7 79.9548 12.35C80.6248 11.99 81.3898 11.81 82.2498 11.81C83.0998 11.81 83.8598 11.99 84.5298 12.35C85.1998 12.7 85.7248 13.185 86.1048 13.805C86.4848 14.425 86.6748 15.145 86.6748 15.965C86.6748 16.765 86.4848 17.48 86.1048 18.11C85.7248 18.73 85.1998 19.22 84.5298 19.58C83.8598 19.94 83.0998 20.12 82.2498 20.12ZM82.2498 18.2C82.6398 18.2 82.9898 18.11 83.2998 17.93C83.6098 17.75 83.8548 17.495 84.0348 17.165C84.2148 16.825 84.3048 16.425 84.3048 15.965C84.3048 15.495 84.2148 15.095 84.0348 14.765C83.8548 14.435 83.6098 14.18 83.2998 14C82.9898 13.82 82.6398 13.73 82.2498 13.73C81.8598 13.73 81.5098 13.82 81.1998 14C80.8898 14.18 80.6398 14.435 80.4498 14.765C80.2698 15.095 80.1798 15.495 80.1798 15.965C80.1798 16.425 80.2698 16.825 80.4498 17.165C80.6398 17.495 80.8898 17.75 81.1998 17.93C81.5098 18.11 81.8598 18.2 82.2498 18.2ZM88.4189 20V11.93H90.7589V20H88.4189ZM89.5889 10.805C89.1589 10.805 88.8089 10.68 88.5389 10.43C88.2689 10.18 88.1339 9.87 88.1339 9.5C88.1339 9.13 88.2689 8.82 88.5389 8.57C88.8089 8.32 89.1589 8.195 89.5889 8.195C90.0189 8.195 90.3689 8.315 90.6389 8.555C90.9089 8.785 91.0439 9.085 91.0439 9.455C91.0439 9.845 90.9089 10.17 90.6389 10.43C90.3789 10.68 90.0289 10.805 89.5889 10.805ZM96.5756 20.12C95.8156 20.12 95.1306 19.95 94.5206 19.61C93.9106 19.26 93.4256 18.775 93.0656 18.155C92.7156 17.535 92.5406 16.805 92.5406 15.965C92.5406 15.115 92.7156 14.38 93.0656 13.76C93.4256 13.14 93.9106 12.66 94.5206 12.32C95.1306 11.98 95.8156 11.81 96.5756 11.81C97.2556 11.81 97.8506 11.96 98.3606 12.26C98.8706 12.56 99.2656 13.015 99.5456 13.625C99.8256 14.235 99.9656 15.015 99.9656 15.965C99.9656 16.905 99.8306 17.685 99.5606 18.305C99.2906 18.915 98.9006 19.37 98.3906 19.67C97.8906 19.97 97.2856 20.12 96.5756 20.12ZM96.9806 18.2C97.3606 18.2 97.7056 18.11 98.0156 17.93C98.3256 17.75 98.5706 17.495 98.7506 17.165C98.9406 16.825 99.0356 16.425 99.0356 15.965C99.0356 15.495 98.9406 15.095 98.7506 14.765C98.5706 14.435 98.3256 14.18 98.0156 14C97.7056 13.82 97.3606 13.73 96.9806 13.73C96.5906 13.73 96.2406 13.82 95.9306 14C95.6206 14.18 95.3706 14.435 95.1806 14.765C95.0006 15.095 94.9106 15.495 94.9106 15.965C94.9106 16.425 95.0006 16.825 95.1806 17.165C95.3706 17.495 95.6206 17.75 95.9306 17.93C96.2406 18.11 96.5906 18.2 96.9806 18.2ZM99.0956 20V18.35L99.1406 15.95L98.9906 13.565V8.87H101.331V20H99.0956ZM111.719 20.18C110.879 20.18 110.074 20.07 109.304 19.85C108.534 19.62 107.914 19.325 107.444 18.965L108.269 17.135C108.719 17.455 109.249 17.72 109.859 17.93C110.479 18.13 111.104 18.23 111.734 18.23C112.214 18.23 112.599 18.185 112.889 18.095C113.189 17.995 113.409 17.86 113.549 17.69C113.689 17.52 113.759 17.325 113.759 17.105C113.759 16.825 113.649 16.605 113.429 16.445C113.209 16.275 112.919 16.14 112.559 16.04C112.199 15.93 111.799 15.83 111.359 15.74C110.929 15.64 110.494 15.52 110.054 15.38C109.624 15.24 109.229 15.06 108.869 14.84C108.509 14.62 108.214 14.33 107.984 13.97C107.764 13.61 107.654 13.15 107.654 12.59C107.654 11.99 107.814 11.445 108.134 10.955C108.464 10.455 108.954 10.06 109.604 9.77C110.264 9.47 111.089 9.32 112.079 9.32C112.739 9.32 113.389 9.4 114.029 9.56C114.669 9.71 115.234 9.94 115.724 10.25L114.974 12.095C114.484 11.815 113.994 11.61 113.504 11.48C113.014 11.34 112.534 11.27 112.064 11.27C111.594 11.27 111.209 11.325 110.909 11.435C110.609 11.545 110.394 11.69 110.264 11.87C110.134 12.04 110.069 12.24 110.069 12.47C110.069 12.74 110.179 12.96 110.399 13.13C110.619 13.29 110.909 13.42 111.269 13.52C111.629 13.62 112.024 13.72 112.454 13.82C112.894 13.92 113.329 14.035 113.759 14.165C114.199 14.295 114.599 14.47 114.959 14.69C115.319 14.91 115.609 15.2 115.829 15.56C116.059 15.92 116.174 16.375 116.174 16.925C116.174 17.515 116.009 18.055 115.679 18.545C115.349 19.035 114.854 19.43 114.194 19.73C113.544 20.03 112.719 20.18 111.719 20.18ZM121.15 20.12C120.2 20.12 119.46 19.88 118.93 19.4C118.4 18.91 118.135 18.185 118.135 17.225V10.145H120.475V17.195C120.475 17.535 120.565 17.8 120.745 17.99C120.925 18.17 121.17 18.26 121.48 18.26C121.85 18.26 122.165 18.16 122.425 17.96L123.055 19.61C122.815 19.78 122.525 19.91 122.185 20C121.855 20.08 121.51 20.12 121.15 20.12ZM116.89 13.91V12.11H122.485V13.91H116.89ZM127.953 20.12C127.283 20.12 126.683 19.99 126.153 19.73C125.633 19.47 125.228 19.075 124.938 18.545C124.648 18.005 124.503 17.32 124.503 16.49V11.93H126.843V16.145C126.843 16.815 126.983 17.31 127.263 17.63C127.553 17.94 127.958 18.095 128.478 18.095C128.838 18.095 129.158 18.02 129.438 17.87C129.718 17.71 129.938 17.47 130.098 17.15C130.258 16.82 130.338 16.41 130.338 15.92V11.93H132.678V20H130.458V17.78L130.863 18.425C130.593 18.985 130.193 19.41 129.663 19.7C129.143 19.98 128.573 20.12 127.953 20.12ZM138.491 20.12C137.731 20.12 137.046 19.95 136.436 19.61C135.826 19.26 135.341 18.775 134.981 18.155C134.631 17.535 134.456 16.805 134.456 15.965C134.456 15.115 134.631 14.38 134.981 13.76C135.341 13.14 135.826 12.66 136.436 12.32C137.046 11.98 137.731 11.81 138.491 11.81C139.171 11.81 139.766 11.96 140.276 12.26C140.786 12.56 141.181 13.015 141.461 13.625C141.741 14.235 141.881 15.015 141.881 15.965C141.881 16.905 141.746 17.685 141.476 18.305C141.206 18.915 140.816 19.37 140.306 19.67C139.806 19.97 139.201 20.12 138.491 20.12ZM138.896 18.2C139.276 18.2 139.621 18.11 139.931 17.93C140.241 17.75 140.486 17.495 140.666 17.165C140.856 16.825 140.951 16.425 140.951 15.965C140.951 15.495 140.856 15.095 140.666 14.765C140.486 14.435 140.241 14.18 139.931 14C139.621 13.82 139.276 13.73 138.896 13.73C138.506 13.73 138.156 13.82 137.846 14C137.536 14.18 137.286 14.435 137.096 14.765C136.916 15.095 136.826 15.495 136.826 15.965C136.826 16.425 136.916 16.825 137.096 17.165C137.286 17.495 137.536 17.75 137.846 17.93C138.156 18.11 138.506 18.2 138.896 18.2ZM141.011 20V18.35L141.056 15.95L140.906 13.565V8.87H143.246V20H141.011ZM145.592 20V11.93H147.932V20H145.592ZM146.762 10.805C146.332 10.805 145.982 10.68 145.712 10.43C145.442 10.18 145.307 9.87 145.307 9.5C145.307 9.13 145.442 8.82 145.712 8.57C145.982 8.32 146.332 8.195 146.762 8.195C147.192 8.195 147.542 8.315 147.812 8.555C148.082 8.785 148.217 9.085 148.217 9.455C148.217 9.845 148.082 10.17 147.812 10.43C147.552 10.68 147.202 10.805 146.762 10.805ZM154.124 20.12C153.264 20.12 152.499 19.94 151.829 19.58C151.169 19.22 150.644 18.73 150.254 18.11C149.874 17.48 149.684 16.765 149.684 15.965C149.684 15.155 149.874 14.44 150.254 13.82C150.644 13.19 151.169 12.7 151.829 12.35C152.499 11.99 153.264 11.81 154.124 11.81C154.974 11.81 155.734 11.99 156.404 12.35C157.074 12.7 157.599 13.185 157.979 13.805C158.359 14.425 158.549 15.145 158.549 15.965C158.549 16.765 158.359 17.48 157.979 18.11C157.599 18.73 157.074 19.22 156.404 19.58C155.734 19.94 154.974 20.12 154.124 20.12ZM154.124 18.2C154.514 18.2 154.864 18.11 155.174 17.93C155.484 17.75 155.729 17.495 155.909 17.165C156.089 16.825 156.179 16.425 156.179 15.965C156.179 15.495 156.089 15.095 155.909 14.765C155.729 14.435 155.484 14.18 155.174 14C154.864 13.82 154.514 13.73 154.124 13.73C153.734 13.73 153.384 13.82 153.074 14C152.764 14.18 152.514 14.435 152.324 14.765C152.144 15.095 152.054 15.495 152.054 15.965C152.054 16.425 152.144 16.825 152.324 17.165C152.514 17.495 152.764 17.75 153.074 17.93C153.384 18.11 153.734 18.2 154.124 18.2Z" fill="white"/>
<path d="M161 0H5C2.23858 0 0 2.23858 0 5V27C0 29.7614 2.23858 32 5 32H161C163.761 32 166 29.7614 166 27V5C166 2.23858 163.761 0 161 0Z" fill="url(#paint0_linear_18_844)"/>
<defs>
<linearGradient id="paint0_linear_18_844" x1="0" y1="0" x2="0" y2="32" gradientUnits="userSpaceOnUse">
<stop stop-color="#BBBBBB" stop-opacity="0.1"/>
<stop offset="1" stop-opacity="0.1"/>
</linearGradient>
<clipPath id="clip0_18_844">
<rect width="24" height="24" fill="white" transform="translate(3 4)"/>
</clipPath>
</defs>
</svg>
