<svg width="105" height="32" viewBox="0 0 105 32" fill="none" xmlns="http://www.w3.org/2000/svg">
<path d="M100 0H31V32H100C102.761 32 105 29.7614 105 27V5C105 2.23858 102.761 0 100 0Z" fill="#0F1418"/>
<path d="M5 0.5H30.5V31.5H5C2.51472 31.5 0.5 29.4853 0.5 27V5C0.5 2.51472 2.51472 0.5 5 0.5Z" fill="white" stroke="#1C2125"/>
<path d="M9.76887 19.0243H6.08887C6.57612 20.6957 7.4803 22.1937 8.80403 23.5177C10.9144 25.6282 13.4519 26.6821 16.4194 26.6821C17.0126 26.6821 17.5873 26.6379 18.1456 26.5537C20.3807 26.2164 22.3377 25.2058 24.0144 23.5177C25.3467 22.1942 26.2572 20.6957 26.7482 19.0243H25.2548H23.0711H9.76887Z" fill="#2C2255"/>
<path d="M7.7396 14.026H5.81719C5.74686 14.4484 5.69894 14.8796 5.67719 15.3218H7.96202H9.10817H25.6521H27.1622C27.1403 14.8796 27.0923 14.4484 27.0214 14.026" fill="#2C2255"/>
<path d="M5.67719 16.5251C5.69894 16.9676 5.74664 17.3988 5.81719 17.821H7.81587H9.33081H25.5172H27.0218C27.0926 17.3988 27.1409 16.9676 27.1629 16.5251" fill="#2C2255"/>
<path d="M26.7486 12.8225C26.2581 11.1464 25.3473 9.64138 24.0143 8.30819C22.342 6.63588 20.3906 5.63258 18.1627 5.295C17.5992 5.20951 17.0187 5.16467 16.4194 5.16467C13.4519 5.16467 10.9141 6.2128 8.80402 8.30819C7.47984 9.64138 6.57523 11.1464 6.0882 12.8225" fill="#2C2255"/>
<path d="M5.0383 15.9238C5.0383 10.2482 9.30094 5.53238 14.8462 4.70293C14.7086 4.69788 14.5704 4.69238 14.4315 4.69238C8.20863 4.69238 3.16357 9.72095 3.16357 15.9238C3.16357 22.1269 8.20841 27.1552 14.4315 27.1552C14.5708 27.1552 14.7091 27.15 14.8471 27.1449C9.30094 26.3155 5.0383 21.5996 5.0383 15.9238Z" fill="#F7941E"/>
<path d="M23.7313 15.3216C23.6952 14.8774 23.6205 14.4442 23.5089 14.0258H9.33085C9.2192 14.444 9.14426 14.8772 9.10822 15.3216H23.7313Z" fill="url(#paint0_linear_18_801)"/>
<path d="M23.7313 16.5251H9.1084C9.14444 16.9693 9.21895 17.4025 9.33082 17.821H23.5091C23.6207 17.4025 23.6952 16.9693 23.7313 16.5251Z" fill="url(#paint1_linear_18_801)"/>
<path d="M16.4198 23.2619C19.3642 23.2619 21.9022 21.5271 23.071 19.0243H9.76862C10.9374 21.5271 13.4754 23.2619 16.4198 23.2619Z" fill="url(#paint2_linear_18_801)"/>
<path d="M8.02463 16.5252H9.09803H23.7587H25.6846H27.1477C27.1578 16.3337 27.1635 16.141 27.1635 15.9469C27.1635 15.737 27.1558 15.5289 27.144 15.3217H25.6844H23.7585H9.09781H7.94858H5.67715C5.66529 15.5287 5.65759 15.737 5.65759 15.9469C5.65759 16.141 5.66331 16.3337 5.67342 16.5252H8.02463Z" fill="white"/>
<path d="M9.72571 12.8225H6.08791C5.96835 13.2144 5.8912 13.6164 5.81714 14.026H7.69076H9.28615H23.5013H25.5145H26.9534C26.8791 13.6166 26.7835 13.2146 26.6642 12.8225" fill="white"/>
<path d="M25.5715 17.8208H23.5583H9.34333H7.82421H5.81696C5.88904 18.2303 5.97102 18.632 6.0886 19.0243H9.78245H23.1192H25.3086H26.7345C26.8519 18.6322 26.9466 18.2305 27.0189 17.8208H25.5715Z" fill="white"/>
<path d="M43.1153 13.73H48.1703V15.62H43.1153V13.73ZM43.2953 18.05H49.0103V20H40.8803V9.5H48.8153V11.45H43.2953V18.05ZM54.8148 20.12C53.9448 20.12 53.1698 19.945 52.4898 19.595C51.8098 19.235 51.2748 18.74 50.8848 18.11C50.5048 17.48 50.3148 16.765 50.3148 15.965C50.3148 15.155 50.5048 14.44 50.8848 13.82C51.2748 13.19 51.8098 12.7 52.4898 12.35C53.1698 11.99 53.9448 11.81 54.8148 11.81C55.6648 11.81 56.4048 11.99 57.0348 12.35C57.6648 12.7 58.1298 13.205 58.4298 13.865L56.6148 14.84C56.4048 14.46 56.1398 14.18 55.8198 14C55.5098 13.82 55.1698 13.73 54.7998 13.73C54.3998 13.73 54.0398 13.82 53.7198 14C53.3998 14.18 53.1448 14.435 52.9548 14.765C52.7748 15.095 52.6848 15.495 52.6848 15.965C52.6848 16.435 52.7748 16.835 52.9548 17.165C53.1448 17.495 53.3998 17.75 53.7198 17.93C54.0398 18.11 54.3998 18.2 54.7998 18.2C55.1698 18.2 55.5098 18.115 55.8198 17.945C56.1398 17.765 56.4048 17.48 56.6148 17.09L58.4298 18.08C58.1298 18.73 57.6648 19.235 57.0348 19.595C56.4048 19.945 55.6648 20.12 54.8148 20.12ZM59.9132 20V8.87H62.2532V20H59.9132ZM64.6049 20V11.93H66.9449V20H64.6049ZM65.7749 10.805C65.3449 10.805 64.9949 10.68 64.7249 10.43C64.4549 10.18 64.3199 9.87 64.3199 9.5C64.3199 9.13 64.4549 8.82 64.7249 8.57C64.9949 8.32 65.3449 8.195 65.7749 8.195C66.2049 8.195 66.5549 8.315 66.8249 8.555C67.0949 8.785 67.2299 9.085 67.2299 9.455C67.2299 9.845 67.0949 10.17 66.8249 10.43C66.5649 10.68 66.2149 10.805 65.7749 10.805ZM74.0666 20.12C73.3866 20.12 72.7916 19.97 72.2816 19.67C71.7716 19.37 71.3716 18.915 71.0816 18.305C70.8016 17.685 70.6616 16.905 70.6616 15.965C70.6616 15.015 70.7966 14.235 71.0666 13.625C71.3366 13.015 71.7266 12.56 72.2366 12.26C72.7466 11.96 73.3566 11.81 74.0666 11.81C74.8266 11.81 75.5066 11.985 76.1066 12.335C76.7166 12.675 77.1966 13.155 77.5466 13.775C77.9066 14.395 78.0866 15.125 78.0866 15.965C78.0866 16.815 77.9066 17.55 77.5466 18.17C77.1966 18.79 76.7166 19.27 76.1066 19.61C75.5066 19.95 74.8266 20.12 74.0666 20.12ZM69.2966 22.91V11.93H71.5316V13.58L71.4866 15.98L71.6366 18.365V22.91H69.2966ZM73.6616 18.2C74.0516 18.2 74.3966 18.11 74.6966 17.93C75.0066 17.75 75.2516 17.495 75.4316 17.165C75.6216 16.825 75.7166 16.425 75.7166 15.965C75.7166 15.495 75.6216 15.095 75.4316 14.765C75.2516 14.435 75.0066 14.18 74.6966 14C74.3966 13.82 74.0516 13.73 73.6616 13.73C73.2716 13.73 72.9216 13.82 72.6116 14C72.3016 14.18 72.0566 14.435 71.8766 14.765C71.6966 15.095 71.6066 15.495 71.6066 15.965C71.6066 16.425 71.6966 16.825 71.8766 17.165C72.0566 17.495 72.3016 17.75 72.6116 17.93C72.9216 18.11 73.2716 18.2 73.6616 18.2ZM82.5481 20.12C81.8581 20.12 81.1931 20.04 80.5531 19.88C79.9231 19.71 79.4231 19.5 79.0531 19.25L79.8331 17.57C80.2031 17.8 80.6381 17.99 81.1381 18.14C81.6481 18.28 82.1481 18.35 82.6381 18.35C83.1781 18.35 83.5581 18.285 83.7781 18.155C84.0081 18.025 84.1231 17.845 84.1231 17.615C84.1231 17.425 84.0331 17.285 83.8531 17.195C83.6831 17.095 83.4531 17.02 83.1631 16.97C82.8731 16.92 82.5531 16.87 82.2031 16.82C81.8631 16.77 81.5181 16.705 81.1681 16.625C80.8181 16.535 80.4981 16.405 80.2081 16.235C79.9181 16.065 79.6831 15.835 79.5031 15.545C79.3331 15.255 79.2481 14.88 79.2481 14.42C79.2481 13.91 79.3931 13.46 79.6831 13.07C79.9831 12.68 80.4131 12.375 80.9731 12.155C81.5331 11.925 82.2031 11.81 82.9831 11.81C83.5331 11.81 84.0931 11.87 84.6631 11.99C85.2331 12.11 85.7081 12.285 86.0881 12.515L85.3081 14.18C84.9181 13.95 84.5231 13.795 84.1231 13.715C83.7331 13.625 83.3531 13.58 82.9831 13.58C82.4631 13.58 82.0831 13.65 81.8431 13.79C81.6031 13.93 81.4831 14.11 81.4831 14.33C81.4831 14.53 81.5681 14.68 81.7381 14.78C81.9181 14.88 82.1531 14.96 82.4431 15.02C82.7331 15.08 83.0481 15.135 83.3881 15.185C83.7381 15.225 84.0881 15.29 84.4381 15.38C84.7881 15.47 85.1031 15.6 85.3831 15.77C85.6731 15.93 85.9081 16.155 86.0881 16.445C86.2681 16.725 86.3581 17.095 86.3581 17.555C86.3581 18.055 86.2081 18.5 85.9081 18.89C85.6081 19.27 85.1731 19.57 84.6031 19.79C84.0431 20.01 83.3581 20.12 82.5481 20.12ZM91.9868 20.12C91.0668 20.12 90.2568 19.94 89.5568 19.58C88.8668 19.22 88.3318 18.73 87.9518 18.11C87.5718 17.48 87.3818 16.765 87.3818 15.965C87.3818 15.155 87.5668 14.44 87.9368 13.82C88.3168 13.19 88.8318 12.7 89.4818 12.35C90.1318 11.99 90.8668 11.81 91.6868 11.81C92.4768 11.81 93.1868 11.98 93.8168 12.32C94.4568 12.65 94.9618 13.13 95.3318 13.76C95.7018 14.38 95.8868 15.125 95.8868 15.995C95.8868 16.085 95.8818 16.19 95.8718 16.31C95.8618 16.42 95.8518 16.525 95.8418 16.625H89.2868V15.26H94.6118L93.7118 15.665C93.7118 15.245 93.6268 14.88 93.4568 14.57C93.2868 14.26 93.0518 14.02 92.7518 13.85C92.4518 13.67 92.1018 13.58 91.7018 13.58C91.3018 13.58 90.9468 13.67 90.6368 13.85C90.3368 14.02 90.1018 14.265 89.9318 14.585C89.7618 14.895 89.6768 15.265 89.6768 15.695V16.055C89.6768 16.495 89.7718 16.885 89.9618 17.225C90.1618 17.555 90.4368 17.81 90.7868 17.99C91.1468 18.16 91.5668 18.245 92.0468 18.245C92.4768 18.245 92.8518 18.18 93.1718 18.05C93.5018 17.92 93.8018 17.725 94.0718 17.465L95.3168 18.815C94.9468 19.235 94.4818 19.56 93.9218 19.79C93.3618 20.01 92.7168 20.12 91.9868 20.12Z" fill="white"/>
<path d="M100 0H5C2.23858 0 0 2.23858 0 5V27C0 29.7614 2.23858 32 5 32H100C102.761 32 105 29.7614 105 27V5C105 2.23858 102.761 0 100 0Z" fill="url(#paint3_linear_18_801)"/>
<defs>
<linearGradient id="paint0_linear_18_801" x1="16.4197" y1="28.1424" x2="16.4197" y2="11.9589" gradientUnits="userSpaceOnUse">
<stop offset="0.3033" stop-color="#473788"/>
<stop offset="0.872" stop-color="#2C2255"/>
</linearGradient>
<linearGradient id="paint1_linear_18_801" x1="16.4197" y1="28.1427" x2="16.4197" y2="11.9592" gradientUnits="userSpaceOnUse">
<stop offset="0.3033" stop-color="#473788"/>
<stop offset="0.872" stop-color="#2C2255"/>
</linearGradient>
<linearGradient id="paint2_linear_18_801" x1="16.4197" y1="28.1423" x2="16.4197" y2="11.9596" gradientUnits="userSpaceOnUse">
<stop offset="0.3033" stop-color="#473788"/>
<stop offset="0.8631" stop-color="#2C2255"/>
</linearGradient>
<linearGradient id="paint3_linear_18_801" x1="0" y1="0" x2="0" y2="32" gradientUnits="userSpaceOnUse">
<stop stop-color="#BBBBBB" stop-opacity="0.1"/>
<stop offset="1" stop-opacity="0.1"/>
</linearGradient>
</defs>
</svg>
