<svg width="147" height="32" viewBox="0 0 147 32" fill="none" xmlns="http://www.w3.org/2000/svg">
<path d="M142 0H31V32H142C144.761 32 147 29.7614 147 27V5C147 2.23858 144.761 0 142 0Z" fill="#0F1418"/>
<path d="M31 0H5C2.23858 0 0 2.23858 0 5V27C0 29.7614 2.23858 32 5 32H31V0Z" fill="url(#paint0_linear_11_356)"/>
<path d="M31 0H5C2.23858 0 0 2.23858 0 5V27C0 29.7614 2.23858 32 5 32H31V0Z" fill="url(#paint1_linear_11_356)"/>
<path d="M27 5H5V27H27V5Z" fill="black"/>
<path d="M15.287 22.8748H7.03705V24.2498H15.287V22.8748Z" fill="white"/>
<path d="M12.9954 9.53224V7.85168H8.41211V9.53224H9.73618V15.2869H8.41211V16.9674H12.9954V15.2869H11.7223V9.53224H12.9954Z" fill="white"/>
<path d="M17.375 17.1202C16.662 17.1202 16.0509 16.9674 15.5926 16.7128C15.1342 16.4582 14.7268 16.1017 14.4213 15.7452L15.6944 14.3193C15.949 14.6248 16.2037 14.8285 16.4583 14.9813C16.7129 15.1341 17.0185 15.2359 17.324 15.2359C17.6805 15.2359 17.9861 15.1341 18.2407 14.8795C18.4444 14.6248 18.5463 14.2684 18.5463 13.7082V7.85168H20.5833V13.81C20.5833 14.3702 20.5324 14.8285 20.3796 15.2359C20.2268 15.6433 20.0231 15.9489 19.7176 16.2545C19.4629 16.5091 19.1064 16.7637 18.699 16.8656C18.2916 17.0183 17.8842 17.1202 17.375 17.1202Z" fill="white"/>
<path d="M41.2719 20V9.5H43.7019V20H41.2719ZM51.1138 11.81C51.7538 11.81 52.3238 11.94 52.8238 12.2C53.3338 12.45 53.7338 12.84 54.0238 13.37C54.3138 13.89 54.4588 14.56 54.4588 15.38V20H52.1188V15.74C52.1188 15.09 51.9738 14.61 51.6838 14.3C51.4038 13.99 51.0038 13.835 50.4838 13.835C50.1138 13.835 49.7788 13.915 49.4788 14.075C49.1888 14.225 48.9588 14.46 48.7888 14.78C48.6288 15.1 48.5488 15.51 48.5488 16.01V20H46.2088V11.93H48.4438V14.165L48.0238 13.49C48.3138 12.95 48.7288 12.535 49.2688 12.245C49.8088 11.955 50.4238 11.81 51.1138 11.81ZM60.0599 20.12C59.1099 20.12 58.3699 19.88 57.8399 19.4C57.3099 18.91 57.0449 18.185 57.0449 17.225V10.145H59.3849V17.195C59.3849 17.535 59.4749 17.8 59.6549 17.99C59.8349 18.17 60.0799 18.26 60.3899 18.26C60.7599 18.26 61.0749 18.16 61.3349 17.96L61.9649 19.61C61.7249 19.78 61.4349 19.91 61.0949 20C60.7649 20.08 60.4199 20.12 60.0599 20.12ZM55.7999 13.91V12.11H61.3949V13.91H55.7999ZM67.2144 20.12C66.2944 20.12 65.4844 19.94 64.7844 19.58C64.0944 19.22 63.5594 18.73 63.1794 18.11C62.7994 17.48 62.6094 16.765 62.6094 15.965C62.6094 15.155 62.7944 14.44 63.1644 13.82C63.5444 13.19 64.0594 12.7 64.7094 12.35C65.3594 11.99 66.0944 11.81 66.9144 11.81C67.7044 11.81 68.4144 11.98 69.0444 12.32C69.6844 12.65 70.1894 13.13 70.5594 13.76C70.9294 14.38 71.1144 15.125 71.1144 15.995C71.1144 16.085 71.1094 16.19 71.0994 16.31C71.0894 16.42 71.0794 16.525 71.0694 16.625H64.5144V15.26H69.8394L68.9394 15.665C68.9394 15.245 68.8544 14.88 68.6844 14.57C68.5144 14.26 68.2794 14.02 67.9794 13.85C67.6794 13.67 67.3294 13.58 66.9294 13.58C66.5294 13.58 66.1744 13.67 65.8644 13.85C65.5644 14.02 65.3294 14.265 65.1594 14.585C64.9894 14.895 64.9044 15.265 64.9044 15.695V16.055C64.9044 16.495 64.9994 16.885 65.1894 17.225C65.3894 17.555 65.6644 17.81 66.0144 17.99C66.3744 18.16 66.7944 18.245 67.2744 18.245C67.7044 18.245 68.0794 18.18 68.3994 18.05C68.7294 17.92 69.0294 17.725 69.2994 17.465L70.5444 18.815C70.1744 19.235 69.7094 19.56 69.1494 19.79C68.5894 20.01 67.9444 20.12 67.2144 20.12ZM72.8523 20V8.87H75.1923V20H72.8523ZM77.544 20V8.87H79.884V20H77.544ZM82.2358 20V11.93H84.5758V20H82.2358ZM83.4058 10.805C82.9758 10.805 82.6258 10.68 82.3558 10.43C82.0858 10.18 81.9508 9.87 81.9508 9.5C81.9508 9.13 82.0858 8.82 82.3558 8.57C82.6258 8.32 82.9758 8.195 83.4058 8.195C83.8358 8.195 84.1858 8.315 84.4558 8.555C84.7258 8.785 84.8608 9.085 84.8608 9.455C84.8608 9.845 84.7258 10.17 84.4558 10.43C84.1958 10.68 83.8458 10.805 83.4058 10.805ZM89.0275 20.18C88.3175 20.18 87.6625 20.05 87.0625 19.79C86.4725 19.52 85.9875 19.14 85.6075 18.65L86.9575 17.03C87.2475 17.41 87.5525 17.7 87.8725 17.9C88.1925 18.09 88.5375 18.185 88.9075 18.185C89.8975 18.185 90.3925 17.605 90.3925 16.445V11.45H86.7025V9.5H92.8075V16.31C92.8075 17.61 92.4875 18.58 91.8475 19.22C91.2075 19.86 90.2675 20.18 89.0275 20.18ZM99.8158 20V9.5H102.246V20H99.8158ZM104.918 20V9.5H109.688C110.828 9.5 111.833 9.72 112.703 10.16C113.573 10.59 114.253 11.195 114.743 11.975C115.233 12.755 115.478 13.68 115.478 14.75C115.478 15.81 115.233 16.735 114.743 17.525C114.253 18.305 113.573 18.915 112.703 19.355C111.833 19.785 110.828 20 109.688 20H104.918ZM107.348 18.005H109.568C110.268 18.005 110.873 17.875 111.383 17.615C111.903 17.345 112.303 16.965 112.583 16.475C112.873 15.985 113.018 15.41 113.018 14.75C113.018 14.08 112.873 13.505 112.583 13.025C112.303 12.535 111.903 12.16 111.383 11.9C110.873 11.63 110.268 11.495 109.568 11.495H107.348V18.005ZM119.725 13.73H124.78V15.62H119.725V13.73ZM119.905 18.05H125.62V20H117.49V9.5H125.425V11.45H119.905V18.05ZM126.354 20L131.034 9.5H133.434L138.129 20H135.579L131.739 10.73H132.699L128.844 20H126.354ZM128.694 17.75L129.339 15.905H134.739L135.399 17.75H128.694Z" fill="white"/>
<path d="M142 0H5C2.23858 0 0 2.23858 0 5V27C0 29.7614 2.23858 32 5 32H142C144.761 32 147 29.7614 147 27V5C147 2.23858 144.761 0 142 0Z" fill="url(#paint2_linear_11_356)"/>
<defs>
<linearGradient id="paint0_linear_11_356" x1="4.30677" y1="26.8639" x2="29.7785" y2="14.3741" gradientUnits="userSpaceOnUse">
<stop stop-color="#078EFC"/>
<stop offset="0.1062" stop-color="#15A7D3"/>
<stop offset="0.228" stop-color="#23BFAA"/>
<stop offset="0.3478" stop-color="#2DD28B"/>
<stop offset="0.4634" stop-color="#35DF74"/>
<stop offset="0.573" stop-color="#39E767"/>
<stop offset="0.6701" stop-color="#3BEA62"/>
</linearGradient>
<linearGradient id="paint1_linear_11_356" x1="6.18869" y1="7.71795" x2="24.9381" y2="45.9296" gradientUnits="userSpaceOnUse">
<stop stop-color="#FE315D"/>
<stop offset="0.0402328" stop-color="#F63462"/>
<stop offset="0.1037" stop-color="#DF3A71"/>
<stop offset="0.1667" stop-color="#C24383"/>
<stop offset="0.2912" stop-color="#AD4A91"/>
<stop offset="0.5498" stop-color="#755BB4"/>
<stop offset="0.9175" stop-color="#1D76ED"/>
<stop offset="1" stop-color="#087CFA"/>
</linearGradient>
<linearGradient id="paint2_linear_11_356" x1="0" y1="0" x2="0" y2="32" gradientUnits="userSpaceOnUse">
<stop stop-color="#BBBBBB" stop-opacity="0.1"/>
<stop offset="1" stop-opacity="0.1"/>
</linearGradient>
</defs>
</svg>
